<svg xmlns="http://www.w3.org/2000/svg" width="144" height="144" viewBox="0 0 144 144">
  <g id="Group_16703" data-name="Group 16703" transform="translate(-125 -120)">
    <circle id="Ellipse_5667" data-name="Ellipse 5667" cx="72" cy="72" r="72" transform="translate(125 120)" fill="#427069" opacity="0.25"/>
    <g id="password" transform="translate(158 146.807)">
      <g id="Group_16702" data-name="Group 16702" transform="translate(0 7.194)">
        <path id="Path_5554" data-name="Path 5554" d="M22.592,354.154a1.133,1.133,0,0,0-1.542-.406l-2.824,1.639v-3.262a1.12,1.12,0,0,0-2.24,0v3.262l-2.824-1.639a1.127,1.127,0,1,0-1.136,1.947l2.84,1.655-2.84,1.655a1.127,1.127,0,1,0,1.136,1.947l2.824-1.639v3.262a1.12,1.12,0,1,0,2.24,0v-3.262l2.824,1.639a1.127,1.127,0,1,0,1.136-1.947l-2.84-1.655,2.84-1.655A1.123,1.123,0,0,0,22.592,354.154Z" transform="translate(-9.609 -295.211)" fill="#427069"/>
        <path id="Path_5555" data-name="Path 5555" d="M143.121,360.448a1.133,1.133,0,0,0,1.542.406l2.824-1.639v3.262a1.12,1.12,0,0,0,2.24,0v-3.262l2.824,1.639a1.127,1.127,0,1,0,1.136-1.947l-2.84-1.655,2.84-1.655a1.127,1.127,0,1,0-1.136-1.947l-2.824,1.639v-3.262a1.12,1.12,0,1,0-2.24,0v3.262l-2.824-1.623a1.127,1.127,0,0,0-1.136,1.947l2.84,1.655-2.84,1.639A1.133,1.133,0,0,0,143.121,360.448Z" transform="translate(-119.768 -295.127)" fill="#427069"/>
        <path id="Path_5556" data-name="Path 5556" d="M131.5,457.666v1.98a.866.866,0,0,0,.86.86h13.291a.866.866,0,0,0,.86-.86v-1.98a.866.866,0,0,0-.86-.86H132.36A.855.855,0,0,0,131.5,457.666Z" transform="translate(-110.16 -383.841)" fill="#fcb041"/>
        <path id="Path_5557" data-name="Path 5557" d="M168.583,25.68h-.1V21.266A14.008,14.008,0,0,0,154.546,7.2,13.744,13.744,0,0,0,141.06,20.909v.422a1.157,1.157,0,0,0,1.152,1.152H145.9a1.157,1.157,0,0,0,1.152-1.152V21.2a7.915,7.915,0,0,1,7.222-8,7.723,7.723,0,0,1,8.212,7.692v4.771h-11.36v.016h-10.5a3.621,3.621,0,0,0-3.522,3.6V49.244a3.622,3.622,0,0,0,3.619,3.619h27.848a3.622,3.622,0,0,0,3.619-3.619V29.3A3.6,3.6,0,0,0,168.583,25.68ZM156.8,40.172a.78.78,0,0,0-.357.73c.016,1.461.016,2.921,0,4.4h0a1.539,1.539,0,0,1-.828,1.477,1.715,1.715,0,0,1-2.564-1.477V40.886a.766.766,0,0,0-.325-.7,3.335,3.335,0,0,1-1.1-4.122,3.412,3.412,0,0,1,6.524,1.347A3.09,3.09,0,0,1,156.8,40.172Z" transform="translate(-114.851 -7.194)" fill="#427069"/>
        <path id="Path_5558" data-name="Path 5558" d="M262.9,457.666v1.98a.866.866,0,0,0,.86.86h13.291a.866.866,0,0,0,.86-.86v-1.98a.866.866,0,0,0-.86-.86H263.76A.866.866,0,0,0,262.9,457.666Z" transform="translate(-220.235 -383.841)" fill="#fcb041"/>
        <path id="Path_5559" data-name="Path 5559" d="M274.521,360.448a1.133,1.133,0,0,0,1.542.406l2.824-1.639v3.262a1.12,1.12,0,1,0,2.24,0v-3.262l2.824,1.639a1.127,1.127,0,1,0,1.136-1.947l-2.84-1.655,2.84-1.655a1.127,1.127,0,1,0-1.136-1.947l-2.824,1.639v-3.262a1.12,1.12,0,1,0-2.24,0v3.262l-2.824-1.639a1.127,1.127,0,1,0-1.136,1.947l2.84,1.655-2.84,1.655A1.133,1.133,0,0,0,274.521,360.448Z" transform="translate(-229.844 -295.127)" fill="#427069"/>
        <path id="Path_5560" data-name="Path 5560" d="M408.451,456.806H395.16a.866.866,0,0,0-.86.86v1.98a.866.866,0,0,0,.86.86h13.291a.866.866,0,0,0,.86-.86v-1.98A.866.866,0,0,0,408.451,456.806Z" transform="translate(-330.311 -383.841)" fill="#fcb041"/>
        <path id="Path_5561" data-name="Path 5561" d="M.86,460.506H14.151a.866.866,0,0,0,.86-.86v-1.98a.866.866,0,0,0-.86-.86H.86a.866.866,0,0,0-.86.86v1.98A.866.866,0,0,0,.86,460.506Z" transform="translate(0 -383.841)" fill="#fcb041"/>
        <path id="Path_5562" data-name="Path 5562" d="M405.984,360.448a1.133,1.133,0,0,0,1.542.406l2.824-1.639v3.262a1.12,1.12,0,0,0,2.24,0v-3.262l2.824,1.639a1.127,1.127,0,1,0,1.136-1.947l-2.84-1.655,2.84-1.655a1.127,1.127,0,1,0-1.136-1.947l-2.824,1.639v-3.262a1.12,1.12,0,1,0-2.24,0v3.262l-2.824-1.639a1.127,1.127,0,1,0-1.136,1.947l2.84,1.655-2.84,1.655A1.119,1.119,0,0,0,405.984,360.448Z" transform="translate(-339.967 -295.127)" fill="#427069"/>
      </g>
    </g>
  </g>
</svg>
