<svg xmlns="http://www.w3.org/2000/svg" xmlns:xlink="http://www.w3.org/1999/xlink" width="393" height="366" viewBox="0 0 393 366">
  <defs>
    <clipPath id="clip-path">
      <rect id="Rectangle_26927" data-name="Rectangle 26927" width="393" height="366" transform="translate(0 138)" fill="#fff"/>
    </clipPath>
    <linearGradient id="linear-gradient" x1="0.244" y1="0.699" x2="0.91" y2="-0.228" gradientUnits="objectBoundingBox">
      <stop offset="0" stop-color="#febbba"/>
      <stop offset="1" stop-color="#ff928e"/>
    </linearGradient>
    <linearGradient id="linear-gradient-2" x1="10.622" y1="2.656" x2="10.589" y2="4.966" gradientUnits="objectBoundingBox">
      <stop offset="0" stop-color="#fcb041"/>
      <stop offset="1" stop-color="#4042e2"/>
    </linearGradient>
    <linearGradient id="linear-gradient-3" x1="-88.234" y1="7.168" x2="-88.009" y2="6.258" xlink:href="#linear-gradient"/>
    <linearGradient id="linear-gradient-4" x1="-51.097" y1="5.185" x2="-49.888" y2="6.348" xlink:href="#linear-gradient"/>
    <linearGradient id="linear-gradient-5" x1="-144.097" y1="16.743" x2="-140.721" y2="21.062" xlink:href="#linear-gradient"/>
    <linearGradient id="linear-gradient-6" x1="8.129" y1="1.284" x2="9.53" y2="0.148" xlink:href="#linear-gradient"/>
    <linearGradient id="linear-gradient-7" x1="16.675" y1="0.452" x2="12.778" y2="0.783" xlink:href="#linear-gradient"/>
    <linearGradient id="linear-gradient-8" x1="1.929" y1="-0.013" x2="-0.172" y2="0.802" xlink:href="#linear-gradient"/>
    <linearGradient id="linear-gradient-9" x1="1.219" y1="-8.079" x2="0.239" y2="3.337" gradientUnits="objectBoundingBox">
      <stop offset="0" stop-color="#dc9b3b"/>
      <stop offset="1" stop-color="#fe7062"/>
    </linearGradient>
    <linearGradient id="linear-gradient-10" x1="0.183" y1="0.527" x2="-0.107" y2="-0.41" xlink:href="#linear-gradient"/>
  </defs>
  <g id="Mask_Group_6" data-name="Mask Group 6" transform="translate(0 -138)" clip-path="url(#clip-path)">
    <g id="Group_137" data-name="Group 137">
      <g id="Ellipse_33" data-name="Ellipse 33" transform="translate(-33 138)" fill="none" stroke="#427069" stroke-width="2" stroke-dasharray="10">
        <circle cx="86" cy="86" r="86" stroke="none"/>
        <circle cx="86" cy="86" r="85" fill="none"/>
      </g>
      <g id="Ellipse_31" data-name="Ellipse 31" transform="translate(-63 212)" fill="none" stroke="#427069" stroke-width="2" stroke-dasharray="10">
        <circle cx="122" cy="122" r="122" stroke="none"/>
        <circle cx="122" cy="122" r="121" fill="none"/>
      </g>
      <g id="Group_110" data-name="Group 110">
        <g id="Group_106" data-name="Group 106" transform="matrix(-0.995, 0.105, -0.105, -0.995, 393, 466.73)" opacity="0.36">
          <g id="Group_104" data-name="Group 104" transform="translate(0 0)">
            <g id="Group_103" data-name="Group 103">
              <path id="Path_381" data-name="Path 381" d="M19.742,212.1c-15.415-27.119-25.705-59.475-15.9-88.4,9.3-27.453,36.295-41.49,62.83-48.094C94.418,68.7,110.5,6.369,138.543.5c29.421-6.157,71.391,46.8,99.354,35.768,12.682-5,25.224-10.524,38.437-13.883,23.822-6.056,53.052-2.233,68.614,18.7,16.249,21.856,16.986,53.491,5.253,77.56-13.405,27.5,2.378,65.662-6.451,95.527-5.351,18.1-43.918,21.168-50.236,38.93-6.187,17.395-15.545,33.817-28.378,47.174-14.647,15.245-33.964,26.323-54.862,29.516-28.854,4.408-57.915-6.188-83.806-19.665-34.618-18.019-66.889-42.1-90.518-73.45A229.966,229.966,0,0,1,19.742,212.1Z" transform="translate(0 0)" fill="#e2e4ef"/>
            </g>
          </g>
        </g>
        <g id="Group_91" data-name="Group 91" transform="translate(32.715 155.605)">
          <g id="Group_88" data-name="Group 88" transform="translate(12.188)">
            <path id="Path_346" data-name="Path 346" d="M708.213,790.153s1.1-46.125-20.148-58.47-61.638-20.063-63.152-86.294c-.887-38.774-1.846-55.727-2.489-63.119a4.366,4.366,0,0,1,5.156-4.675c20.12,3.79,85.483,19.392,99.186,64C743.013,694.488,708.213,790.153,708.213,790.153Z" transform="translate(-622.408 -577.518)" fill="#fcb041"/>
            <path id="Path_347" data-name="Path 347" d="M780.763,726.4c22.086,19.7,47.625,54.559,61.237,89.419,1.747,5.745,6.858,17.963,9.078,39.671,1.982,18.1,1,37.236-1.407,49.9a1.475,1.475,0,0,1-1.725,1.174,1.5,1.5,0,0,1-1.181-1.7,202.337,202.337,0,0,0-4.685-72.867c-8.036-29.837-25.961-58.765-44.5-83.3l-1.908-2.416c-14.364-18.447-17.388-18.582-16.045-19.868A.84.84,0,0,1,780.763,726.4Z" transform="translate(-760.029 -707.899)" fill="#fff" opacity="0.5"/>
          </g>
          <g id="Group_89" data-name="Group 89" transform="translate(0 122.723)">
            <path id="Path_348" data-name="Path 348" d="M655.488,1753.516c2.874,1.409-27.211-36.423-36.635-95.842-4.441-28-4.5-63.081-20.449-76.6-13.275-11.251-58.446-4.148-73.226-1.448a2.217,2.217,0,0,0-1.031,3.878c7.088,5.953,22.25,19.993,26.2,34.144,5.207,18.651,22.94,30.515,38.814,33.725s24.706,6.326,32.439,31.714S647.321,1749.511,655.488,1753.516Z" transform="translate(-523.355 -1574.923)" fill="#f9be68"/>
            <path id="Path_349" data-name="Path 349" d="M704.107,1677.191c18.857.79,39.1,9.392,49.371,25.527l.97,1.54c2.239,3.61,14.93,29.275,21.978,50.55a.506.506,0,0,1-.321.639.516.516,0,0,1-.633-.3c-4.911-12.019-11.964-27.256-17.581-38.651-6.024-12.434-10.24-20.855-23.981-28.921A76.5,76.5,0,0,0,704.048,1678a.406.406,0,0,1,.058-.809Z" transform="translate(-681.496 -1664.607)" fill="#fcb041"/>
          </g>
          <g id="Group_90" data-name="Group 90" transform="translate(2.106 192.412)">
            <path id="Path_350" data-name="Path 350" d="M657.6,2255.188c1.706.9-9.608-18.573-10.476-35.729s-4.738-46.437-19.533-63.953-31-19.114-51.41-3.19c-17.012,13.269-27.624,19.966-33.847,21.211a2.352,2.352,0,0,0-1.578,3.429c3.992,7.351,15.277,24.235,34.225,23.047,24.17-1.516,53.462-17.229,62.39-4.121s7.781,20.441,8.056,26.653S646.313,2249.237,657.6,2255.188Z" transform="translate(-540.47 -2141.307)" fill="#fcb041"/>
            <path id="Path_351" data-name="Path 351" d="M885.42,2309.546c7.4-7.1,19.463-14.074,30-12.773,13.712,2.209,22.847,11.365,27.829,25a83.149,83.149,0,0,1,3.9,15.972.451.451,0,0,1-.883.182c-.838-3.332-1.668-6.821-2.909-10.43-7.228-23.282-22.656-26.418-23.256-26.895-1.166.115-8.238-5.178-25.016,3.85a74.475,74.475,0,0,0-9.046,5.8l-.016.012a.469.469,0,0,1-.606-.714Z" transform="translate(-842.85 -2277.506)" fill="#fff" opacity="0.5"/>
          </g>
        </g>
        <g id="Group_95" data-name="Group 95" transform="translate(111.697 141.773)">
          <g id="Group_92" data-name="Group 92" transform="translate(0 57.645)">
            <path id="Path_352" data-name="Path 352" d="M1283.86,933.614l-90.8,9.174a2.977,2.977,0,0,0-2.327,1.56l-24.522,45.959a8,8,0,0,0-.86,4.911l31.179,215.751a2.89,2.89,0,0,0,3.363,2.432l150.116-26.565a3.531,3.531,0,0,0,2.88-3.982L1322.6,973.278a10.657,10.657,0,0,0-2.831-5.826l-30.222-31.732A6.9,6.9,0,0,0,1283.86,933.614Z" transform="translate(-1165.268 -933.579)" fill="#427069"/>
          </g>
          <g id="Group_93" data-name="Group 93" transform="translate(8.912 65.952)" opacity="0.54">
            <path id="Path_353" data-name="Path 353" d="M1270.051,1262.508a3.18,3.18,0,0,1-1.869-.611,3.385,3.385,0,0,1-1.354-2.252l-29.042-200.969a8.207,8.207,0,0,1,.816-4.949l21.894-42.673a3.279,3.279,0,0,1,2.593-1.785l81.778-8.141a6.844,6.844,0,0,1,5.665,2.187l27.372,29.671a10.746,10.746,0,0,1,2.738,5.776l28.211,195.218a3.859,3.859,0,0,1-3.1,4.411l-135.149,24.069A3.194,3.194,0,0,1,1270.051,1262.508Zm74.88-260.748.063.633-81.778,8.141a2.012,2.012,0,0,0-1.587,1.1l-21.894,42.673a6.941,6.941,0,0,0-.69,4.187l29.042,200.969a2.079,2.079,0,0,0,.84,1.4,1.91,1.91,0,0,0,1.461.341l135.149-24.069a2.594,2.594,0,0,0,2.059-2.977l-28.211-195.218a9.48,9.48,0,0,0-2.415-5.1l-27.372-29.671a5.486,5.486,0,0,0-4.6-1.784Z" transform="translate(-1237.699 -1001.096)" fill="#fff"/>
          </g>
          <g id="Group_94" data-name="Group 94" transform="translate(49.747 134.269)">
            <path id="Path_354" data-name="Path 354" d="M1616.231,1693.311l-1.684-10.112a83.6,83.6,0,0,1-29.4-1.426,5.93,5.93,0,0,1-4.383-6.372l1-9.847a5.977,5.977,0,0,1,7.36-5.191,69.409,69.409,0,0,0,27.115,1.153c10.153-1.691,17.151-6.394,15.976-13.45-1.06-6.367-7.541-9.178-22.283-10.613-21.051-2.153-36.969-8.523-39.921-26.248-2.666-16,7-30.172,26.763-36.823l-1.684-10.113a5.973,5.973,0,0,1,4.911-6.873l5.941-.989a5.972,5.972,0,0,1,6.873,4.91l1.512,9.08a76.218,76.218,0,0,1,23.162.293,5.943,5.943,0,0,1,4.842,6.467l-.911,9.1a5.957,5.957,0,0,1-7.1,5.26,62.186,62.186,0,0,0-22.724-.331c-12.046,2.006-14.656,7.57-13.911,12.044.917,5.507,8.775,8.088,25.237,10.3,23.489,2.985,34.329,10.73,37.109,27.423,2.551,15.315-6.514,30.974-27.967,38.085l1.885,11.316a5.973,5.973,0,0,1-4.911,6.873l-5.942.99A5.973,5.973,0,0,1,1616.231,1693.311Z" transform="translate(-1569.58 -1556.326)" fill="#fff"/>
          </g>
          <ellipse id="Ellipse_15" data-name="Ellipse 15" cx="15.123" cy="15.123" rx="15.123" ry="15.123" transform="translate(64.94 78.71)" fill="#fcb041"/>
          <circle id="Ellipse_16" data-name="Ellipse 16" cx="12.335" cy="12.335" r="12.335" transform="translate(62.62 93.833) rotate(-45)" fill="#fff"/>
          <path id="Path_355" data-name="Path 355" d="M1498.435,562.439a12.444,12.444,0,0,1-.244-6.088l.809-.622c26.7-20.514,25.687-46.9,15.84-64.746-8.105-14.693-21.747-23.516-31.056-20.087-11.516,4.243-14.1,26.51-7.414,59.183l-5.335.539.052.253c-10.055-49.126,2.537-61.653,10.938-64.748,11.8-4.349,27.826,5.283,37.27,22.4,10.867,19.7,12.057,48.759-17.2,71.237Z" transform="translate(-1430.194 -465.082)" fill="#fcb041"/>
        </g>
        <g id="Group_101" data-name="Group 101" transform="translate(233.127 231.631)">
          <g id="Group_97" data-name="Group 97" transform="translate(0 0)">
            <path id="Path_356" data-name="Path 356" d="M2510.12,1206.637s-5.56-13.622,15.411-10.876,15.874,10.663,17.531,16.85,10.455,13.2,34.937,22.743,17.223,35.569,6.227,44.207-16.993,2.9-19.551,17.8-12.76,27.015-25.49,14.378-27.2-27.582-23.152-47.177-.536-15.888-8.435-24.878S2516.441,1222,2510.12,1206.637Z" transform="translate(-2461.966 -1195.396)" fill="#427069"/>
            <path id="Path_357" data-name="Path 357" d="M2248.792,1531.315c-3.329-3.377-6.569,4.74-7.433,6.774-2.183,5.137-4.453,9.747-9.06,13.267-2.851,2.178-6.7,3.574-10.31,2.528-12.99-3.768-13.051-14.2-13.343-22.019a5.012,5.012,0,0,0-2.64-5.1,5.214,5.214,0,0,1-2.586-2.731s-1.271,2.818.291,4.139a1.831,1.831,0,0,1,.689,1.524c-.182-.031-.37-.058-.567-.083-3.905-.488.014,5.1.014,5.1s-3.78,20.459,13.534,28.59c8.571,4.025,15.145,3.071,19.612,1.079a14.56,14.56,0,0,0,5.867-4.008,12.128,12.128,0,0,0,1.012-1.121v-.064C2250.785,1550.4,2251.985,1534.554,2248.792,1531.315Z" transform="translate(-2195.958 -1483.597)" fill="url(#linear-gradient)"/>
            <path id="Path_358" data-name="Path 358" d="M2488.54,1566.191c3.4-1.02,13.31-2.9,22.733,5.793a5.836,5.836,0,0,1,1.682,5.815c-2.531,9.318-9.209,36.848-3.354,48.76,0,0-10.319,11.375-21.576,2.207,0,0-5.051-22.013-11.666-31.677-4.567-6.672,7.283-25.054,10.281-29.495A3.512,3.512,0,0,1,2488.54,1566.191Z" transform="translate(-2435.561 -1519.77)" fill="url(#linear-gradient-2)"/>
            <path id="Path_359" data-name="Path 359" d="M2611.083,1422.21s5.032,14.234,5.41,20.513a10.763,10.763,0,0,1-10.8-1.74s-.55-14.217-1.344-16.763Z" transform="translate(-2548.71 -1394.302)" fill="url(#linear-gradient-3)"/>
            <path id="Path_360" data-name="Path 360" d="M2546.681,1263.733s-13.162,18.419-5.294,23.77,17.237-7.74,17.237-7.74,3.054-10.081-.139-13.5S2546.681,1263.733,2546.681,1263.733Z" transform="translate(-2491.298 -1255.233)" fill="url(#linear-gradient-4)"/>
            <path id="Path_361" data-name="Path 361" d="M2612.524,1231.177c-2.491-6-10.245-4.222-10.245-4.222s-6.047,1.433-6.894,4.168c-.381,1.231,1.316,2.422,3.539,3.37a16.25,16.25,0,0,1,9.568,11.85l.234,1.217S2615.015,1237.175,2612.524,1231.177Z" transform="translate(-2540.804 -1222.856)" fill="#395e58"/>
            <path id="Path_362" data-name="Path 362" d="M2678.613,1359.693s5.123-5.933,7.16-2.065-4.611,6.772-6.913,4.873Z" transform="translate(-2613.838 -1336.519)" fill="url(#linear-gradient-5)"/>
            <path id="Path_363" data-name="Path 363" d="M2451.49,2456.87c.039,1-1.716,8.926-2.671,13.155a6.965,6.965,0,0,0,.75,5l33.07,55.659a7.586,7.586,0,0,1,.868,2.166,47.755,47.755,0,0,1,1.207,14.836l-1.711,3.553,7.4-1.68,1.61-19.869-2.095-1.277a9.954,9.954,0,0,1-4.025-4.713c-2.99-7.264-10.416-25.753-12.33-34.764-2.176-10.241-13.548-18.559-13.548-18.559l2-4.723Z" transform="translate(-2412.168 -2301.656)" fill="url(#linear-gradient-6)"/>
            <path id="Path_364" data-name="Path 364" d="M2727.63,3050.866s-4-6.334-4.466-8.8-1.779-6.82-4.242-5.509c0,0-1.161,11.978-.76,16.658s-5.291,4.53-5.291,4.53a5.314,5.314,0,0,0-2.717,1.369,1.332,1.332,0,0,0,.893,2.241,32.024,32.024,0,0,0,7.927-.449,2.425,2.425,0,0,0,1.956-2.237l.82-13.786,5.04,6.364Z" transform="translate(-2641.173 -2809.806)" fill="#427069"/>
            <path id="Path_365" data-name="Path 365" d="M2583.266,2519.37s1.166,49.786,1.324,56.857-1.117,22.741-8.205,27.425l3.084,2.284a41.232,41.232,0,0,0,7.62-9.582c4.23-7.083,5.51-8.377,5.51-8.377l-1.4-2.875a6.321,6.321,0,0,1-.512-4.054c1.53-7.414,6.64-32.073,8.034-37.384,1.646-6.269,1.762-14.64-3.962-21.647S2583.266,2519.37,2583.266,2519.37Z" transform="translate(-2524.188 -2355.29)" fill="url(#linear-gradient-7)"/>
            <path id="Path_366" data-name="Path 366" d="M2565.042,3098.224a.434.434,0,0,0,.438-.373c.236-1.66,1.218-8.314,2.022-10.037.921-1.973,3.927-10.279,0-10.984,0,0-9.768,14.271-11.643,16.195a3.676,3.676,0,0,1-4.241.672,7.062,7.062,0,0,0-3.2,2.3,1.294,1.294,0,0,0,1.019,2.078l6.579.063a4.63,4.63,0,0,0,4.34-2.917c1.158-2.893,3.147-7.135,5.466-9.018l-1.2,11.536a.438.438,0,0,0,.432.484Z" transform="translate(-2499.419 -2845.335)" fill="#427069"/>
            <path id="Path_367" data-name="Path 367" d="M2459.1,2014.377s1.483,4.726-.795,12.509l-14.129,49.34a1.527,1.527,0,0,0,.955,1.859c4.226,1.517,18.12,5.8,37.085,4.5a2.154,2.154,0,0,0,1.963-1.677c1.249-5.625,5.513-24.816,6.391-28.76,3.345-15.025,7.08-31.229-9.351-41.027C2473.65,2014.362,2466.588,2016.273,2459.1,2014.377Z" transform="translate(-2408.198 -1910.75)" fill="#365d57"/>
            <g id="Group_96" data-name="Group 96" transform="translate(2.106 19.681)">
              <path id="Path_368" data-name="Path 368" d="M2205.845,1395.105a6.877,6.877,0,0,0,.24-3.37c-.239-2.418-.219-4.828-.259-7.257-.1-6.293-.046-12.6-.545-18.879-.108-1.355.037-2.714-.069-4.063-.268-3.424-2.276-4.435-5.618-5.149-2.826-.6-5.907-1.436-8.827-.816a2.685,2.685,0,0,0-2.4,2.074c-.58,4.847-.435,36.607,5.415,37.481,1.975.3,3.936.641,5.9.995,1.4.251,3.263.782,4.669.309A2.4,2.4,0,0,0,2205.845,1395.105Z" transform="translate(-2185.823 -1355.352)" fill="#355953"/>
              <path id="Path_369" data-name="Path 369" d="M2186.986,1395.105a6.877,6.877,0,0,0,.24-3.37c-.239-2.418-.219-4.828-.259-7.257-.1-6.293-.046-12.6-.545-18.879-.107-1.355.037-2.714-.068-4.063-.268-3.424-2.277-4.435-5.618-5.149-2.826-.6-5.907-1.436-8.827-.816a2.686,2.686,0,0,0-2.4,2.074c-.58,4.847-.435,36.607,5.414,37.481,1.976.3,3.936.641,5.9.995,1.4.251,3.263.782,4.669.309A2.4,2.4,0,0,0,2186.986,1395.105Z" transform="translate(-2169.284 -1355.352)" fill="#538981"/>
            </g>
            <path id="Path_370" data-name="Path 370" d="M2155.106,1495.832s-1.062-.721-1.934-5.03-1.738-6.919,0-8.918,4.433-2.086,4.433,0-.452,5.928-.139,8.918S2157.04,1500.862,2155.106,1495.832Z" transform="translate(-2152.167 -1445.29)" fill="url(#linear-gradient-8)"/>
            <path id="Path_371" data-name="Path 371" d="M2719.094,1251.174a10.85,10.85,0,0,1,5.432,2.869,7.823,7.823,0,0,1,1.667,2.663l.247.756.141.782c.1.527.148,1.013.233,1.519a23.752,23.752,0,0,0,5.1,10.912,22.5,22.5,0,0,0,4.44,4.131,34.5,34.5,0,0,0,5.348,2.946q2.782,1.319,5.646,2.456a54.663,54.663,0,0,0,5.819,2.024,62.279,62.279,0,0,1-11.686-3.994,30.78,30.78,0,0,1-5.49-2.914,23.071,23.071,0,0,1-4.612-4.206,23.764,23.764,0,0,1-5.086-11.27c-.07-.511-.108-1.052-.187-1.538l-.11-.741-.21-.718a7.532,7.532,0,0,0-1.5-2.577A11.068,11.068,0,0,0,2719.094,1251.174Z" transform="translate(-2649.338 -1244.311)" fill="#2e4e49"/>
            <path id="Path_372" data-name="Path 372" d="M3115.565,1602.009a26.441,26.441,0,0,1,3.618,8.143,24.009,24.009,0,0,1,.606,8.945,21.108,21.108,0,0,1-3.139,8.4c-.435.612-.838,1.245-1.328,1.814-.239.289-.464.588-.712.867l-.764.82c-.5.557-1.087,1.024-1.624,1.537-.56.491-1.157.937-1.739,1.4a30.187,30.187,0,0,0,5.713-6.718,23.934,23.934,0,0,0,1.88-3.958,21.739,21.739,0,0,0,1.024-4.25,24.634,24.634,0,0,0-.436-8.727,29.913,29.913,0,0,0-1.261-4.231A28.669,28.669,0,0,0,3115.565,1602.009Z" transform="translate(-2992.571 -1551.978)" fill="#2e4e49"/>
          </g>
          <g id="Group_100" data-name="Group 100" transform="translate(81.033 127.659)">
            <path id="Path_373" data-name="Path 373" d="M2870.358,2247.021a.335.335,0,0,1-.331-.283c-.017-.109-1.767-10.98-5.106-12.882a1.793,1.793,0,0,0-1.639-.12c-4.488,1.786-2.2,12.026-2.175,12.129a.335.335,0,0,1-.654.15c-.1-.444-2.435-10.9,2.581-12.9a2.452,2.452,0,0,1,2.217.161c3.618,2.06,5.365,12.9,5.437,13.36a.335.335,0,0,1-.279.383A.317.317,0,0,1,2870.358,2247.021Z" transform="translate(-2853.786 -2232.922)" fill="#fff"/>
            <path id="Path_374" data-name="Path 374" d="M2832.02,2327.154l-17.331-1.6-3.858,2.139,3.306,4.136,15.83-1.612Z" transform="translate(-2810.821 -2314.155)" fill="url(#linear-gradient-9)"/>
            <path id="Path_375" data-name="Path 375" d="M2966.927,2380.013l5.943-3.415-14.307-38.029-3.434,2.318Z" transform="translate(-2937.364 -2325.57)" fill="#f6bb64"/>
            <path id="Path_376" data-name="Path 376" d="M2841.238,2261.317h-.026a.336.336,0,0,1-.309-.36c.009-.111.777-11.125-2.353-14.708a2.843,2.843,0,0,0-2.042-1.065,2.677,2.677,0,0,0-2.069.8c-3.375,3.143-3.572,14.056-3.574,14.166a.335.335,0,0,1-.335.33h0a.336.336,0,0,1-.33-.34c.007-.46.206-11.31,3.788-14.646a3.391,3.391,0,0,1,2.563-.982,3.528,3.528,0,0,1,2.509,1.293c3.365,3.851,2.525,15.088,2.517,15.2A.336.336,0,0,1,2841.238,2261.317Z" transform="translate(-2827.804 -2243.082)" fill="#fff"/>
            <path id="Path_377" data-name="Path 377" d="M2810.751,2343.949l17.764,1.656,11.8,39.126-25.5.667Z" transform="translate(-2810.751 -2330.288)" fill="#fcb041"/>
            <g id="Group_98" data-name="Group 98" transform="translate(21.824 20.964)">
              <path id="Path_378" data-name="Path 378" d="M2996.218,2436.167a.271.271,0,0,1-.06-.007.237.237,0,0,1-.169-.289l1.14-4.348-9-27.916a.237.237,0,0,1,.45-.146l9.018,27.982a.246.246,0,0,1,0,.133l-1.158,4.414A.237.237,0,0,1,2996.218,2436.167Z" transform="translate(-2988.122 -2403.3)" fill="#fcb041"/>
            </g>
            <g id="Group_99" data-name="Group 99" transform="translate(31.764 49.163)">
              <path id="Path_379" data-name="Path 379" d="M3072.217,2634.427a.233.233,0,0,1-.1-.023l-3.076-1.47a.236.236,0,0,1-.111-.315.238.238,0,0,1,.314-.112l3.076,1.47a.236.236,0,0,1-.1.449Z" transform="translate(-3068.905 -2632.485)" fill="#fcb041"/>
            </g>
          </g>
          <path id="Path_380" data-name="Path 380" d="M2719.08,1645.347c-.182,1.4,12.359,15.026,16.047,32.122s2.448,28.511,2.448,28.511-3.747,2.794-2.4,4.776.992,3.331,2.713,3.715,3.857.926,3.6-2.472,3.8-4.084,3.123-6.138,3.921-57.22-18.291-72.185q-.157-.106-.316-.209C2719.078,1637.822,2719.336,1643.377,2719.08,1645.347Z" transform="translate(-2649.324 -1579.565)" fill="url(#linear-gradient-10)"/>
        </g>
      </g>
    </g>
  </g>
</svg>
