<svg id="Component_2_1" data-name="Component 2 – 1" xmlns="http://www.w3.org/2000/svg" width="248.823" height="96.845" viewBox="0 0 248.823 96.845">
  <g id="OBJECTS" transform="translate(0 0)">
    <g id="Group_13" data-name="Group 13" transform="translate(0 0)">
      <path id="Path_30" data-name="Path 30" d="M152.139,183.894a37.473,37.473,0,0,0-25.84,64.622c.367-.325.743-.64,1.121-.952-.1.084-.209.165-.311.251v-34.35a5.5,5.5,0,0,1,2.265-4.141l20.633-13.218a4.558,4.558,0,0,1,4.523.011l20.378,13.2a5.531,5.531,0,0,1,2.258,4.152v32.464c-.042-.03-.086-.059-.129-.09.7.5,1.392,1.02,2.06,1.564a37.473,37.473,0,0,0-26.96-63.51Z" transform="translate(-114.656 -174.748)" fill="#427069"/>
      <path id="Path_31" data-name="Path 31" d="M161.856,246.17a40.556,40.556,0,0,1,23.818,7.694V221.4a5.531,5.531,0,0,0-2.258-4.152l-20.378-13.2a4.558,4.558,0,0,0-4.523-.011l-20.633,13.218a5.5,5.5,0,0,0-2.265,4.141v34.35A40.583,40.583,0,0,1,161.856,246.17Z" transform="translate(-123.163 -182.683)" fill="#fcb041"/>
      <ellipse id="Ellipse_2" data-name="Ellipse 2" cx="4.393" cy="4.393" rx="4.393" ry="4.393" transform="translate(31.747 26.037) rotate(-22.393)" fill="#fcb041" opacity="0.5" style="mix-blend-mode: multiply;isolation: isolate"/>
      <path id="Path_32" data-name="Path 32" d="M178.794,212.267a3.318,3.318,0,1,1-3.318-3.318A3.318,3.318,0,0,1,178.794,212.267Z" transform="translate(-137.993 -184.917)" fill="#414143"/>
      <g id="Group_11" data-name="Group 11" transform="translate(27.838)">
        <path id="Path_33" data-name="Path 33" d="M171.155,196.7a.54.54,0,0,1-.441-.229c-.375-.536-9.2-13.188-9.2-18.328a9.655,9.655,0,0,1,9.644-9.644.538.538,0,1,1,0,1.075,8.578,8.578,0,0,0-8.568,8.569c0,4.8,8.919,17.581,9.009,17.71a.538.538,0,0,1-.44.847Z" transform="translate(-161.51 -168.501)" fill="#fcb041"/>
      </g>
      <path id="Path_34" data-name="Path 34" d="M146.1,303.88c9.508,8.993,18.8,16.41,18.8,16.41s9.291-7.417,18.8-16.41Z" transform="translate(-127.418 -223.444)" fill="#fcb041"/>
      <path id="Path_35" data-name="Path 35" d="M185.675,263.263V230.8a5.531,5.531,0,0,0-2.258-4.152l-.066-.043c-5.617,15.248-21.039,33.592-47.733,21.43v17.115a40.719,40.719,0,0,1,50.058-1.886Z" transform="translate(-123.163 -192.082)" fill="#fcb041" opacity="0.5" style="mix-blend-mode: multiply;isolation: isolate"/>
      <path id="Path_36" data-name="Path 36" d="M165.173,314.062c4.405,3.782,7.468,6.228,7.468,6.228s9.291-7.417,18.8-16.41h-9.629A19.186,19.186,0,0,1,165.173,314.062Z" transform="translate(-135.158 -223.444)" fill="#fa9429" style="mix-blend-mode: multiply;isolation: isolate"/>
      <g id="Group_12" data-name="Group 12" transform="translate(36.944)">
        <path id="Path_37" data-name="Path 37" d="M177.374,196.7a.538.538,0,0,1-.44-.847c.09-.129,9.009-12.908,9.009-17.71a8.578,8.578,0,0,0-8.568-8.569.538.538,0,1,1,0-1.075,9.655,9.655,0,0,1,9.644,9.644c0,5.14-8.828,17.792-9.2,18.328A.54.54,0,0,1,177.374,196.7Z" transform="translate(-176.836 -168.501)" fill="#fcb041"/>
      </g>
      <path id="Path_38" data-name="Path 38" d="M171.109,203.006c-.557-.993-1.107-1.994-1.639-2.993l-1.443,2.276c.36.665.728,1.328,1.1,1.988Z" transform="translate(-136.317 -181.29)" fill="#414143"/>
    </g>
  </g>
  <g id="Group_27" data-name="Group 27" transform="translate(89.598 4.002)">
    <path id="Path_270" data-name="Path 270" d="M20.662-117.6H9.982V-89.09h10.68c9.1,0,14.944-5.807,14.944-14.254C35.606-111.83,29.758-117.6,20.662-117.6ZM16.926-95.1v-16.568h3.289c5.238,0,8.325,3.086,8.325,8.325S25.454-95.1,20.215-95.1Zm32.568-11.411c2.315,0,4.264,1.421,4.264,3.9h-8.69A4.3,4.3,0,0,1,49.494-106.511ZM60.336-96.6H52.946a3.692,3.692,0,0,1-3.614,2.193c-2.233,0-4.061-1.381-4.3-4.345H60.743a17.547,17.547,0,0,0,.122-2.03c0-6.9-4.67-11.289-11.289-11.289-6.741,0-11.452,4.467-11.452,11.655s4.792,11.655,11.452,11.655C55.22-88.765,59.24-92.176,60.336-96.6Zm2.8-3.858c0,7.147,4.426,11.7,9.949,11.7A8.012,8.012,0,0,0,80.113-92.3v3.208h6.944v-22.66H80.113v3.208a7.887,7.887,0,0,0-6.985-3.533C67.565-112.074,63.138-107.607,63.138-100.46Zm16.974.041c0,3.614-2.315,5.6-4.954,5.6-2.6,0-4.954-2.03-4.954-5.645s2.355-5.563,4.954-5.563C77.8-106.023,80.113-104.034,80.113-100.419ZM92.092-89.09h6.944v-30.05H92.092Z" transform="translate(-9.982 119.14)" fill="#427069"/>
    <path id="Path_269" data-name="Path 269" d="M3.864-112.034h7.553V-89.09h6.944v-22.944h7.553V-117.6H3.864ZM36.351-99.607c0-3.9,1.909-5.035,5.2-5.035h1.909v-7.35a8.447,8.447,0,0,0-7.106,4.02v-3.777H29.407v22.66h6.944Zm9.056-.853c0,7.147,4.426,11.7,9.949,11.7A8.012,8.012,0,0,0,62.381-92.3v3.208h6.944v-22.66H62.381v3.208a7.887,7.887,0,0,0-6.985-3.533C49.833-112.074,45.406-107.607,45.406-100.46Zm16.974.041c0,3.614-2.315,5.6-4.954,5.6-2.6,0-4.954-2.03-4.954-5.645s2.355-5.563,4.954-5.563C60.066-106.023,62.381-104.034,62.381-100.419Zm10.6,0c0,7.188,4.711,11.655,11.37,11.655,5.685,0,9.705-3.289,10.883-8.528H87.842a3.525,3.525,0,0,1-3.614,2.6c-2.477,0-4.183-1.949-4.183-5.726s1.706-5.726,4.183-5.726a3.58,3.58,0,0,1,3.614,2.6h7.391c-1.178-5.4-5.2-8.528-10.883-8.528C77.69-112.074,72.98-107.567,72.98-100.419ZM98.928-89.09h6.944v-9.5l6.9,9.5h8.609l-9.5-11.289,9.421-11.37h-8.568l-6.863,9.218V-119.14H98.928Zm35.086-17.421c2.315,0,4.264,1.421,4.264,3.9h-8.69A4.3,4.3,0,0,1,134.014-106.511ZM144.856-96.6h-7.391a3.692,3.692,0,0,1-3.614,2.193c-2.233,0-4.061-1.381-4.3-4.345h15.715a17.546,17.546,0,0,0,.122-2.03c0-6.9-4.67-11.289-11.289-11.289-6.741,0-11.452,4.467-11.452,11.655s4.792,11.655,11.452,11.655C139.74-88.765,143.76-92.176,144.856-96.6Zm11.127-3.005c0-3.9,1.909-5.035,5.2-5.035h1.909v-7.35a8.447,8.447,0,0,0-7.106,4.02v-3.777h-6.944v22.66h6.944Z" transform="translate(-3.864 156.616)" fill="#fcb041"/>
    <path id="Path_268" data-name="Path 268" d="M7.184-31.041v4.389L4.24-31.041H2.48v7.083H4.24v-4.369l2.944,4.369h1.76v-7.083Zm7.1,2.754a.985.985,0,0,1,1.081.969h-2.2A1.082,1.082,0,0,1,14.286-28.287Zm2.748,2.462H15.161a.937.937,0,0,1-.916.545,1.055,1.055,0,0,1-1.091-1.08h3.983a4.275,4.275,0,0,0,.031-.5,2.68,2.68,0,0,0-2.862-2.8,2.731,2.731,0,0,0-2.9,2.9,2.741,2.741,0,0,0,2.9,2.9A2.678,2.678,0,0,0,17.035-25.825Zm2.048-3.763,2.038,5.63h2.172l2.038-5.63H23.458l-1.245,4.015-1.245-4.015Zm11.055,1.3a.985.985,0,0,1,1.081.969h-2.2A1.082,1.082,0,0,1,30.138-28.287Zm2.748,2.462H31.013a.937.937,0,0,1-.916.545,1.055,1.055,0,0,1-1.091-1.08h3.983a4.274,4.274,0,0,0,.031-.5,2.68,2.68,0,0,0-2.862-2.8,2.731,2.731,0,0,0-2.9,2.9,2.741,2.741,0,0,0,2.9,2.9A2.678,2.678,0,0,0,32.886-25.825Zm4.354-.747c0-.969.484-1.251,1.318-1.251h.484v-1.826a2.15,2.15,0,0,0-1.8,1v-.938H35.48v5.63h1.76Zm15.81,2.613H54.8v-3.289a2.193,2.193,0,0,0-2.337-2.4A2.321,2.321,0,0,0,50.529-28.6a2.155,2.155,0,0,0-1.956-1.049,2.042,2.042,0,0,0-1.678.767v-.706h-1.76v5.63H46.9v-3.057a1.029,1.029,0,0,1,1.1-1.14,1.029,1.029,0,0,1,1.1,1.14v3.057h1.75v-3.057a1.029,1.029,0,0,1,1.1-1.14,1.029,1.029,0,0,1,1.1,1.14Zm4.519,0h1.76v-5.63h-1.76Zm.885-6.215a.961.961,0,0,0,1.04-.928.963.963,0,0,0-1.04-.938.966.966,0,0,0-1.05.938A.964.964,0,0,0,58.455-30.174Zm8.348,4.58c-.031-2.1-3.139-1.463-3.139-2.361,0-.272.226-.434.638-.434a.754.754,0,0,1,.844.636h1.626a2.157,2.157,0,0,0-2.419-1.917c-1.5,0-2.337.787-2.337,1.745,0,2.068,3.129,1.412,3.129,2.32,0,.252-.237.454-.69.454a.8.8,0,0,1-.885-.656h-1.74c.082,1.09,1.112,1.927,2.645,1.927C65.917-23.878,66.8-24.614,66.8-25.593Zm7.277,0c-.031-2.1-3.139-1.463-3.139-2.361,0-.272.226-.434.638-.434a.754.754,0,0,1,.844.636h1.626a2.157,2.157,0,0,0-2.419-1.917c-1.5,0-2.337.787-2.337,1.745,0,2.068,3.129,1.412,3.129,2.32,0,.252-.237.454-.69.454a.8.8,0,0,1-.885-.656h-1.74c.082,1.09,1.112,1.927,2.645,1.927C73.194-23.878,74.08-24.614,74.08-25.593Zm5.98-1.191a2.628,2.628,0,0,0,2.522,2.906,2.043,2.043,0,0,0,1.781-.878v.8h1.76v-5.63h-1.76v.8a2.011,2.011,0,0,0-1.77-.878A2.611,2.611,0,0,0,80.06-26.784Zm4.3.01a1.267,1.267,0,0,1-1.256,1.392,1.282,1.282,0,0,1-1.256-1.4,1.264,1.264,0,0,1,1.256-1.382A1.267,1.267,0,0,1,84.363-26.774Zm7.936-.01a2.629,2.629,0,0,0,2.532,2.906,2,2,0,0,0,1.77-.888v.807h1.76v-7.466H96.6v2.613a2.122,2.122,0,0,0-1.77-.858A2.611,2.611,0,0,0,92.3-26.784Zm4.3.01a1.267,1.267,0,0,1-1.256,1.392,1.282,1.282,0,0,1-1.256-1.4,1.264,1.264,0,0,1,1.256-1.382A1.267,1.267,0,0,1,96.6-26.774Zm7.1-1.513a.985.985,0,0,1,1.081.969h-2.2A1.082,1.082,0,0,1,103.7-28.287Zm2.748,2.462h-1.873a.937.937,0,0,1-.916.545,1.055,1.055,0,0,1-1.091-1.08h3.983a4.273,4.273,0,0,0,.031-.5,2.68,2.68,0,0,0-2.862-2.8,2.731,2.731,0,0,0-2.9,2.9,2.741,2.741,0,0,0,2.9,2.9A2.678,2.678,0,0,0,106.452-25.825Zm2.244-.958a2.628,2.628,0,0,0,2.522,2.906A2.043,2.043,0,0,0,113-24.756v.8h1.76v-5.63H113v.8a2.011,2.011,0,0,0-1.77-.878A2.611,2.611,0,0,0,108.7-26.784Zm4.3.01a1.267,1.267,0,0,1-1.256,1.392,1.282,1.282,0,0,1-1.256-1.4,1.264,1.264,0,0,1,1.256-1.382A1.267,1.267,0,0,1,113-26.774Zm4.57,2.815h1.76v-7.466h-1.76Zm7.936-2.825a2.628,2.628,0,0,0,2.522,2.906,2.043,2.043,0,0,0,1.781-.878v.8h1.76v-5.63h-1.76v.8a2.011,2.011,0,0,0-1.77-.878A2.611,2.611,0,0,0,125.5-26.784Zm4.3.01a1.267,1.267,0,0,1-1.256,1.392,1.282,1.282,0,0,1-1.256-1.4,1.264,1.264,0,0,1,1.256-1.382A1.267,1.267,0,0,1,129.807-26.774Zm4.22-.01a2.629,2.629,0,0,0,2.532,2.906,2.043,2.043,0,0,0,1.77-.888v.8c0,.948-.525,1.291-1.194,1.291a1.084,1.084,0,0,1-1.153-.7h-1.74c.154,1.342,1.266,2.189,2.975,2.189a2.621,2.621,0,0,0,2.872-2.785v-5.62h-1.76v.8a2,2,0,0,0-1.77-.878A2.611,2.611,0,0,0,134.027-26.784Zm4.3.01a1.267,1.267,0,0,1-1.256,1.392,1.282,1.282,0,0,1-1.256-1.4,1.264,1.264,0,0,1,1.256-1.382A1.267,1.267,0,0,1,138.33-26.774Zm4.22-.01a2.628,2.628,0,0,0,2.522,2.906,2.043,2.043,0,0,0,1.781-.878v.8h1.76v-5.63h-1.76v.8a2.011,2.011,0,0,0-1.77-.878A2.611,2.611,0,0,0,142.55-26.784Zm4.3.01a1.267,1.267,0,0,1-1.256,1.392,1.282,1.282,0,0,1-1.256-1.4,1.264,1.264,0,0,1,1.256-1.382A1.267,1.267,0,0,1,146.853-26.774Zm4.57,2.815h1.76v-5.63h-1.76Zm.885-6.215a.961.961,0,0,0,1.04-.928.963.963,0,0,0-1.04-.938.966.966,0,0,0-1.05.938A.964.964,0,0,0,152.308-30.174Zm7.648,6.215h1.75v-3.289a2.148,2.148,0,0,0-2.213-2.4,2.122,2.122,0,0,0-1.74.807v-.747h-1.76v5.63h1.76v-3.057a1.055,1.055,0,0,1,1.1-1.191,1.055,1.055,0,0,1,1.1,1.191Z" transform="translate(-2.48 110.024)" fill="#414143"/>
  </g>
</svg>
