<svg xmlns="http://www.w3.org/2000/svg" width="294.161" height="214.097" viewBox="0 0 294.161 214.097">
  <g id="Group_16385" data-name="Group 16385" transform="translate(-42.483 -64.5)">
    <g id="Group_16374" data-name="Group 16374" transform="translate(48.675 64.5)">
      <path id="Path_5388" data-name="Path 5388" d="M831.654,1123.822a422.893,422.893,0,0,0,30.9-69.509c16.008-48.242,20.324-117.879-27.8-138.58C794.01,898.2,746.534,928,746.534,928s-53.829-35.948-109.834-7.008c-51.586,26.656-23.043,85.82-23.043,85.82s-28.078,12.332-33.4,43.32c-7.178,41.824,32.221,73.531,32.221,73.531Z" transform="translate(-585.579 -909.726)" fill="#f8f8f8"/>
    </g>
    <g id="Group_16381" data-name="Group 16381" transform="translate(102.197 86.373)">
      <g id="Group_16377" data-name="Group 16377">
        <rect id="Rectangle_26596" data-name="Rectangle 26596" width="99.239" height="187.818" rx="10" fill="#427069"/>
        <rect id="Rectangle_26597" data-name="Rectangle 26597" width="166.696" height="88.171" rx="10" transform="translate(93.705 5.713) rotate(90)" fill="#fff"/>
      </g>
      <g id="Group_16380" data-name="Group 16380" transform="translate(14.952 55.863)">
        <g id="Group_16378" data-name="Group 16378">
          <path id="Path_5389" data-name="Path 5389" d="M801.816,1163.6s-12.982-1.964-24.268-2.378a159.268,159.268,0,0,0-24.268,2.378c0,10.724-9.993,10.91-9.993,10.91s1.745,27.275,6.82,40.983,27.44,21.821,27.44,21.821,22.365-8.113,27.44-21.821,6.82-40.983,6.82-40.983S801.816,1174.319,801.816,1163.6Z" transform="translate(-743.287 -1161.217)" fill="#427069"/>
          <path id="Path_5390" data-name="Path 5390" d="M792.492,1243.652c-8.03-3.494-18.616-9.852-21.409-17.394-3.579-9.667-5.45-26.994-6.166-35.124a15.21,15.21,0,0,0,9.063-10.266,138.723,138.723,0,0,1,18.381-1.551c6.68.252,14.041,1.074,18.672,1.663a15.2,15.2,0,0,0,9.032,10.153c-.717,8.132-2.589,25.468-6.165,35.124C811.11,1233.794,800.536,1240.152,792.492,1243.652Z" transform="translate(-758.231 -1173.723)" fill="#fff"/>
        </g>
        <g id="Group_16379" data-name="Group 16379" transform="translate(22.336 16.266)">
          <path id="Path_5391" data-name="Path 5391" d="M836.784,1226.065v-2.915a9.311,9.311,0,1,0-18.623,0v2.915a5.074,5.074,0,0,0-2.613,4.438v10.817a5.076,5.076,0,0,0,5.076,5.076h13.7a5.076,5.076,0,0,0,5.076-5.076V1230.5A5.074,5.074,0,0,0,836.784,1226.065Zm-16.16-.638-.078,0v-2.279a6.927,6.927,0,1,1,13.853,0v2.279l-.078,0Z" transform="translate(-815.548 -1213.839)" fill="#427069"/>
          <path id="Path_5392" data-name="Path 5392" d="M851.13,1271.813a2.426,2.426,0,1,0-3.246,2.281l-1.224,5.1h4.088l-1.224-5.1A2.425,2.425,0,0,0,851.13,1271.813Z" transform="translate(-836.779 -1252.217)" fill="#fff"/>
        </g>
      </g>
    </g>
    <g id="Group_16384" data-name="Group 16384" transform="translate(196.367 105.285)">
      <g id="Group_16382" data-name="Group 16382" transform="translate(33.382 22.827)">
        <path id="Path_5393" data-name="Path 5393" d="M1115.214,1121.941a4.761,4.761,0,0,1-1.179,2.172,43.485,43.485,0,0,0,1.129,4.694s3.553,12.907,3.77,13.6l8.964,10.717-4.182,5.832s-9.434-11.911-9.816-12.617-3.1-18.693-3.393-20.269c0,0-1.06-1.757-1.688-2.881a10.619,10.619,0,0,1-.839-2.8,11.115,11.115,0,0,1-.418-2.764c-.038-1.334.625-.084.625-.084s.526,2.46.718,2.387c.148-.057-.221-1.384-.279-2.859-.015-.379.835-.444.844-.039a7.365,7.365,0,0,0,.227,1.2,9.659,9.659,0,0,0,.242,1.237c.036-.028.166.1.163-.3,0-.484-.245-1.513-.194-2.226.03-.4.037-1.253.037-1.253s.86-.422.747.121a5.9,5.9,0,0,1,.076,1.276s.346,1.821.611,1.778a20.058,20.058,0,0,0,.144-2.289c.1-1.049.974-.948.974-.948s-.033.824-.022,1.1c.012.322.125,1.284.125,1.284s.456,2.963.7,2.9.819-.367.858-.585-.374-1.3-.335-1.515.374-.257.652-.229.776,1.849.776,1.849A3.527,3.527,0,0,1,1115.214,1121.941Z" transform="translate(-1107.562 -1115.52)" fill="#f8a492"/>
        <path id="Path_5394" data-name="Path 5394" d="M1121.461,1132.665a2.368,2.368,0,0,0-1.2.52c-.583.474-.681,1.92-.681,1.92a5.028,5.028,0,0,1-.107-1.88C1119.654,1132.56,1120.807,1132.384,1121.461,1132.665Z" transform="translate(-1115.746 -1127.276)" fill="#f47458"/>
      </g>
      <path id="Path_5395" data-name="Path 5395" d="M1268.041,1109.655a2.8,2.8,0,0,1,.538,0,1.5,1.5,0,0,1,.686,1.05c0,.7.2.638.2.638l.429,3.21-.383,1.054a9.124,9.124,0,0,1-1.052-1.889C1267.94,1112.17,1267.605,1109.861,1268.041,1109.655Z" transform="translate(-1184.916 -1088.63)" fill="#f7a491"/>
      <g id="Group_16383" data-name="Group 16383">
        <path id="Path_5396" data-name="Path 5396" d="M1097.509,1092.884l-71.883,6.5-.638-8.273-4.284.331.638,8.273-5.5.424-.694-8.99-5.52.426.693,8.99-10.76.83.457,5.929,11.984-.924.966,12.523,15.1-1.165-.966-12.523,70.889-6.64Z" transform="translate(-999.565 -1075.832)" fill="#fcb041"/>
        <path id="Path_5397" data-name="Path 5397" d="M1314.463,1041.671c-7.544,0-13.659,8.624-13.659,19.262s6.115,19.262,13.659,19.262,13.659-8.624,13.659-19.262S1322.007,1041.671,1314.463,1041.671Zm0,30.807c-4.522,0-8.187-5.169-8.187-11.546s3.665-11.545,8.187-11.545,8.187,5.169,8.187,11.545S1318.985,1072.478,1314.463,1072.478Z" transform="translate(-1207.69 -1041.671)" fill="#fcb041"/>
      </g>
      <path id="Path_5398" data-name="Path 5398" d="M1249.213,1096.977s-.454-2.076-.63-2.659-1.143-1.808-1.294-1.633a1.067,1.067,0,0,0,.058.968c.163.28.665,1.831.665,1.831l.116,2.169a19.056,19.056,0,0,0-.429-2.238,13.788,13.788,0,0,0-.976-1.758c-.026-.026-.582-.568-.867-.845a.246.246,0,0,0-.408.1.5.5,0,0,0-.014.189,2.394,2.394,0,0,0,.548,1.05,6.875,6.875,0,0,1,.781,1.609,6.6,6.6,0,0,1,.164,2.006c-.1,0-.263-1.344-.435-1.764a6.409,6.409,0,0,0-.953-1.321c-.28-.315-1.1-1.02-1.446-1.02s.536,1.178.606,1.283.8,1.225.8,1.225.385,1.68.175,1.68-2.056-3.3-2.169-2.729c-.105.525,1.039,2.5,1.155,2.869.083.27.452,3.181.665,5.108.067.6.46,1.048.385,1.364-.315,1.329-4.549,18.995-4.549,18.995s-3.533,5.147-4.548,6.476-3.428,4.969-3.428,4.969l5.948,3.545,8.49-13.9s1.8-22.018,1.831-22.029Z" transform="translate(-1160.976 -1076.905)" fill="#f7a491"/>
      <path id="Path_5399" data-name="Path 5399" d="M1073.948,1491.7a48.245,48.245,0,0,0-.543,6.849c-.015.283.115,1.573.131,1.756-2.889,1.477-4.645,1.61-7.713,2.313.768-1.394,2.285-1.292,2.487-1.879.244-.709.094-3.475-.473-7.993C1069.97,1493.259,1071.846,1492.239,1073.948,1491.7Z" transform="translate(-1045.343 -1352.595)" fill="#f7a491"/>
      <path id="Path_5400" data-name="Path 5400" d="M1161.238,1522.6a31.364,31.364,0,0,0,2.469,5.826c.09.153.858.671.956.827-1.926,2.554-2.519,6.608-4.955,8.541.058-1.581.916-4.6.832-5.219-.1-.742-1.488-3.169-4.041-7C1158.646,1525.139,1159.594,1523.977,1161.238,1522.6Z" transform="translate(-1107.991 -1373.945)" fill="#f7a491"/>
      <path id="Path_5401" data-name="Path 5401" d="M1166.767,1542.9a1.433,1.433,0,0,1,1.861-.91c.717.365,1.664.751,2.379,1.152.8.45.9,1.017.9,1.147-.025.377-7.021,11.3-9.816,11.874-1.144.234.74-8.955,1.937-9.93C1165.089,1545.369,1165.721,1546.134,1166.767,1542.9Z" transform="translate(-1111.606 -1387.264)" fill="#232323"/>
      <path id="Path_5402" data-name="Path 5402" d="M1058.928,1516.785a1.453,1.453,0,0,1,1.979.654c.23.749.6,1.672.806,2.444a1.413,1.413,0,0,1-.228,1.416c-.3.245-14.637,2.084-15.611,1.455s7.09-5.7,8.653-5.55C1055.918,1517.337,1055.79,1518.3,1058.928,1516.785Z" transform="translate(-1031.504 -1369.824)" fill="#232323"/>
      <path id="Path_5403" data-name="Path 5403" d="M1096.892,1350.608l14.771,4.594-18.505,14-17.969,3.251s-1.379,16.639-1.492,23.259c-1.849.759-5.268,1.723-7.186,1.494-1.339-9.19-2.716-28.176-1.077-31.084C1066.85,1363.606,1096.892,1350.608,1096.892,1350.608Z" transform="translate(-1044.558 -1255.115)" fill="#385f59"/>
      <path id="Path_5404" data-name="Path 5404" d="M1128.807,1347.942a13.593,13.593,0,0,0,.9-4.376l9.451,6.564,2.812,1.64s.576,6.918-3.033,11.059-20.61,15.363-20.61,15.363,6.027,15.553,8.834,21.379a16.761,16.761,0,0,1-5.9,4.275c-2.572-4.193-16.478-23.345-15.83-27.594C1105.913,1373.113,1128.04,1349.391,1128.807,1347.942Z" transform="translate(-1072.695 -1250.25)" fill="#427069"/>
      <path id="Path_5405" data-name="Path 5405" d="M1175.38,1220.831s-5.455,5.425-8.553,6.7a15.579,15.579,0,0,1-2.994.84c-3.129.174-11.2-7.483-11.2-7.483s-4.372,5.9-4.335,6.76c.031.734,5.01,5.722,5.321,7.568.969,5.759-.616,25.992-.616,25.992,4.3,3.346,18.91,6.189,18.91,6.189s3.157-31.178,3.418-31.4c1.08-.929,6.233-8.654,6.433-9.547C1182.127,1224.839,1175.38,1220.831,1175.38,1220.831Z" transform="translate(-1102.327 -1165.452)" fill="#fcb041"/>
      <path id="Path_5406" data-name="Path 5406" d="M1193.89,1226.65l-.729,2.976s-.167,2.591,1.036,2.824c1.45.281,3.606-1.889,3.606-1.889l1.248-8.393Z" transform="translate(-1133.314 -1166.375)" fill="#f7a491"/>
      <path id="Path_5407" data-name="Path 5407" d="M1199.469,1222.292l-5.149,4.444-.545,2.223C1195.743,1228.486,1198.549,1226.32,1199.469,1222.292Z" transform="translate(-1133.744 -1166.462)" fill="#f47458"/>
      <path id="Path_5408" data-name="Path 5408" d="M1186.486,1197.308a3.04,3.04,0,0,0-2.8,2.1,26.434,26.434,0,0,0-1.123,4.309c-.545,3.228,1.293,6.182,2.893,6.418s5.409-.824,6.251-5.4c.361-1.96.836-4.531-.775-5.881A7.246,7.246,0,0,0,1186.486,1197.308Z" transform="translate(-1125.928 -1149.2)" fill="#f7a491"/>
      <path id="Path_5409" data-name="Path 5409" d="M1190.7,1198.873s5.638-5.024,5.884-8.949-3.379-6.028-6.479-6.137a21.046,21.046,0,0,0-3.794.2c-3.105.392-5.118,1.768-4.41,4.313.951,3.416,7.4.534,8.715,1.594,1.087.875-.676,2.98.381,3.783.993.755.487.5.158,1.934A25.34,25.34,0,0,0,1190.7,1198.873Z" transform="translate(-1125.44 -1139.847)" fill="#333343"/>
      <path id="Path_5410" data-name="Path 5410" d="M1213.033,1213.743c-.14.941-.715,1.635-1.284,1.551s-.918-.915-.778-1.855.715-1.635,1.284-1.551S1213.172,1212.8,1213.033,1213.743Z" transform="translate(-1145.603 -1159.269)" fill="#f7a491"/>
      <path id="Path_5411" data-name="Path 5411" d="M1124.612,1124.439a5.866,5.866,0,0,1,1.188,2.616,4.716,4.716,0,0,1-.61,2.1l-2.462-1.864a8.563,8.563,0,0,0,1.261-.826c.295-.295-.417-1.359-.234-1.795S1124.312,1124.012,1124.612,1124.439Z" transform="translate(-1084.658 -1098.697)" fill="#f8a492"/>
    </g>
  </g>
</svg>
