<svg xmlns="http://www.w3.org/2000/svg" width="305.117" height="223.998" viewBox="0 0 305.117 223.998">
  <g id="Group_15889" data-name="Group 15889" transform="translate(-43.941 -58.143)">
    <g id="Background_Complete" data-name="Background Complete" transform="translate(43.941 58.143)">
      <g id="Group_141" data-name="Group 141" transform="translate(0 0)">
        <path id="Path_467" data-name="Path 467" d="M81.547,359.212c-.189-2.274.122-5.219,2.775-6.095,4.5-1.483,7.166-4.966,7.016-8.906s4.584-7.774,8.134-4.081,3.078-2.839,7.812-4.426,8.747,2.264,7.451,5.783,3.376,5.718,8.97,2.725,11.749,2.452,10.565,6.712-.215,4.735,3.325,3.314c2.86-1.147,7.541,1.261,8.063,4.974Z" transform="translate(-63.029 -176.123)" fill="#e0e0e0"/>
        <path id="Path_468" data-name="Path 468" d="M362.051,360.472c-.219-1.8-.123-4.428,2.111-5.165,3.492-1.151,5.563-3.855,5.446-6.914s3.559-6.035,6.314-3.169,2.389-2.2,6.065-3.436,6.79,1.757,5.784,4.49,2.62,4.438,6.963,2.115,9.12,1.9,8.2,5.211-.167,3.675,2.581,2.573c2.329-.934,6.2,1.171,6.282,4.295Z" transform="translate(-120.309 -177.382)" fill="#e0e0e0"/>
        <path id="Path_469" data-name="Path 469" d="M369.782,356.68H288.047c-1.15-3.836,1.823-8.436,5.061-9.084,3.979-.8,7.978-7.8,8.167-12.254s7.351-18.167,18.491-9.7,7.755,1.247,15.814-1.132,13.143,4.465,9.607,9.6c0,0,8.1-2.029,11.43,5.531s0,12.256,0,12.256S366.852,351.6,369.782,356.68Z" transform="translate(-105.16 -173.59)" fill="#e0e0e0"/>
        <g id="Group_139" data-name="Group 139" transform="translate(167.959)">
          <path id="Path_475" data-name="Path 475" d="M375.324,200.754a7.332,7.332,0,0,0,.226-1.494c.184-3.1,3.142-2.608,5.66-3.029,1.966-.329-3.24-5.3.724-6.9A3.486,3.486,0,0,0,383.848,188a2.253,2.253,0,0,0-.864-2.749,5.319,5.319,0,0,0-3.01-.754c-.647-.786-.121-1.97.505-2.772s1.392-1.716,1.155-2.706c-.358-1.5-2.447-1.549-3.957-1.258a10.858,10.858,0,0,1-.817-3.059c-.271-1.027-1.087-2.1-2.141-1.976-.993.121-1.6,1.242-2.573,1.471-1.131.267-2.11-.733-3-1.483s-2.438-1.218-3.049-.23c-.366.591-.147,1.416-.527,2-.659,1.009-2.221.383-3.19-.333s-2.515-1.364-3.2-.371a4.176,4.176,0,0,0-.376,1.037c-.459,1.323-1.89,1.983-3,2.832s-2,2.538-1.054,3.574c.466.511,1.284.719,1.515,1.37.289.814-.543,1.544-1.2,2.1-1.1.932-1.294,3.72.154,4.483.608.32,1.5.419,1.649,1.089.134.6-.475,1.066-.879,1.529a2.878,2.878,0,0,0,.881,4.285c.348.167.775.3.9.667a1.371,1.371,0,0,1-.083.81,4.255,4.255,0,0,0-.14,1.552.705.705,0,0,0,.189.487.741.741,0,0,0,.458.13c2.092.093,3.1-.648,4.378,1.172a1.49,1.49,0,0,0,.436.463,1.362,1.362,0,0,0,.577.144c1.438.118,2.378-.779,3.692-.947,1.823-.232,2.209.708,3.816,1.463C373.625,203.208,374.85,202.475,375.324,200.754Z" transform="translate(-286.679 -142.748)" fill="#ebebeb"/>
          <path id="Path_476" data-name="Path 476" d="M345.053,197.483a7.273,7.273,0,0,0,.226-1.494c.184-3.1,3.142-2.608,5.659-3.029,1.966-.329-3.24-5.3.724-6.9a3.486,3.486,0,0,0,1.914-1.333,2.253,2.253,0,0,0-.864-2.749,5.319,5.319,0,0,0-3.01-.754c-.647-.786-.121-1.97.5-2.772s1.393-1.716,1.155-2.706c-.358-1.5-2.447-1.549-3.957-1.258a10.858,10.858,0,0,1-.817-3.059c-.271-1.027-1.087-2.1-2.141-1.976-.993.121-1.6,1.242-2.573,1.471-1.131.267-2.11-.733-3-1.483s-2.438-1.218-3.049-.23c-.366.591-.147,1.416-.527,2-.659,1.009-2.221.383-3.19-.333s-2.515-1.364-3.2-.371a4.145,4.145,0,0,0-.376,1.037c-.459,1.323-1.89,1.983-3,2.832s-2,2.538-1.054,3.574c.466.511,1.284.719,1.515,1.37.29.814-.543,1.544-1.2,2.1-1.1.932-1.294,3.72.154,4.483.608.32,1.5.419,1.649,1.089.134.6-.475,1.066-.879,1.529a2.879,2.879,0,0,0,.881,4.286c.348.166.775.3.9.666a1.365,1.365,0,0,1-.084.81,4.272,4.272,0,0,0-.139,1.552.705.705,0,0,0,.189.487.741.741,0,0,0,.458.13c2.092.093,3.1-.648,4.378,1.173a1.5,1.5,0,0,0,.436.462,1.364,1.364,0,0,0,.577.144c1.438.119,2.378-.779,3.692-.947,1.823-.232,2.209.708,3.816,1.463C343.354,199.936,344.579,199.205,345.053,197.483Z" transform="translate(-280.497 -142.08)" fill="#ebebeb"/>
          <path id="Path_477" data-name="Path 477" d="M342.136,178.206a7.294,7.294,0,0,0,.225-1.494c.185-3.1,3.143-2.608,5.66-3.029,1.966-.328-3.24-5.3.724-6.9a3.485,3.485,0,0,0,1.913-1.334,2.252,2.252,0,0,0-.863-2.749,5.328,5.328,0,0,0-3.01-.754c-.647-.786-.121-1.97.5-2.772s1.393-1.716,1.155-2.706c-.358-1.494-2.447-1.549-3.957-1.258a10.858,10.858,0,0,1-.818-3.059c-.271-1.027-1.086-2.1-2.141-1.975-.992.121-1.6,1.241-2.573,1.471-1.13.267-2.109-.733-3-1.483s-2.437-1.218-3.049-.23c-.365.591-.146,1.416-.526,2-.659,1.009-2.221.383-3.191-.333s-2.514-1.364-3.2-.371a4.157,4.157,0,0,0-.376,1.037c-.459,1.324-1.89,1.983-3,2.832s-2,2.538-1.054,3.574c.466.511,1.284.719,1.515,1.37.289.814-.543,1.544-1.2,2.1-1.1.932-1.294,3.72.154,4.483.608.321,1.5.419,1.649,1.089.134.6-.475,1.066-.879,1.529a2.879,2.879,0,0,0,.881,4.286c.348.166.775.3.9.667a1.369,1.369,0,0,1-.084.809,4.273,4.273,0,0,0-.139,1.552.705.705,0,0,0,.189.487.736.736,0,0,0,.458.13c2.092.093,3.1-.647,4.378,1.173a1.488,1.488,0,0,0,.436.462,1.35,1.35,0,0,0,.577.144c1.438.119,2.378-.779,3.692-.946,1.823-.232,2.209.707,3.815,1.463C340.437,180.659,341.662,179.927,342.136,178.206Z" transform="translate(-279.901 -138.143)" fill="#ebebeb"/>
          <path id="Path_478" data-name="Path 478" d="M322.2,187.808a7.3,7.3,0,0,0,.226-1.494c.184-3.1,3.142-2.608,5.66-3.028,1.966-.329-3.24-5.3.725-6.9a3.485,3.485,0,0,0,1.913-1.334,2.254,2.254,0,0,0-.863-2.749,5.329,5.329,0,0,0-3.01-.754c-.647-.786-.121-1.97.505-2.772s1.392-1.716,1.155-2.706c-.358-1.494-2.447-1.549-3.957-1.258a10.859,10.859,0,0,1-.817-3.059c-.271-1.027-1.087-2.1-2.141-1.975-.993.121-1.6,1.241-2.573,1.471-1.131.267-2.11-.733-3-1.483s-2.437-1.218-3.049-.23c-.366.591-.146,1.416-.527,2-.659,1.009-2.221.383-3.19-.333s-2.515-1.364-3.2-.371a4.19,4.19,0,0,0-.376,1.037c-.458,1.324-1.89,1.983-3,2.832s-2,2.538-1.054,3.574c.466.512,1.284.719,1.515,1.37.289.814-.544,1.544-1.2,2.1-1.1.932-1.294,3.72.154,4.483.608.321,1.5.419,1.649,1.089.134.6-.475,1.066-.879,1.529a2.879,2.879,0,0,0,.881,4.286c.348.166.775.3.9.667a1.363,1.363,0,0,1-.083.809,4.256,4.256,0,0,0-.139,1.552.709.709,0,0,0,.189.487.737.737,0,0,0,.459.13c2.091.093,3.1-.647,4.377,1.173a1.505,1.505,0,0,0,.436.462,1.353,1.353,0,0,0,.577.144c1.438.119,2.378-.779,3.692-.946,1.823-.232,2.21.707,3.816,1.463C320.5,190.261,321.721,189.529,322.2,187.808Z" transform="translate(-275.829 -140.104)" fill="#ebebeb"/>
          <path id="Path_479" data-name="Path 479" d="M302.042,183.373a7.281,7.281,0,0,0,.226-1.494c.184-3.1,3.142-2.608,5.66-3.028,1.966-.329-3.24-5.3.724-6.9a3.482,3.482,0,0,0,1.913-1.334,2.252,2.252,0,0,0-.863-2.749,5.325,5.325,0,0,0-3.01-.754c-.647-.786-.121-1.97.5-2.772s1.393-1.716,1.155-2.706c-.358-1.494-2.447-1.549-3.957-1.258a10.859,10.859,0,0,1-.817-3.059c-.271-1.027-1.087-2.1-2.141-1.975-.993.121-1.6,1.241-2.573,1.471-1.131.267-2.11-.733-3-1.483s-2.438-1.218-3.049-.23c-.366.591-.147,1.416-.527,2-.659,1.009-2.221.383-3.19-.333s-2.515-1.364-3.2-.37a4.139,4.139,0,0,0-.376,1.036c-.459,1.324-1.89,1.983-3,2.832s-2,2.538-1.054,3.574c.466.512,1.284.719,1.515,1.37.289.814-.543,1.544-1.2,2.1-1.1.932-1.294,3.72.154,4.483.608.321,1.5.419,1.649,1.089.134.6-.475,1.066-.879,1.529a2.879,2.879,0,0,0,.881,4.286c.348.166.775.3.9.667a1.362,1.362,0,0,1-.084.809,4.273,4.273,0,0,0-.139,1.552.705.705,0,0,0,.189.487.737.737,0,0,0,.459.13c2.091.093,3.1-.647,4.377,1.173a1.488,1.488,0,0,0,.436.462,1.35,1.35,0,0,0,.577.144c1.438.119,2.378-.779,3.692-.946,1.823-.232,2.209.707,3.815,1.463C300.343,185.826,301.568,185.094,302.042,183.373Z" transform="translate(-271.713 -139.198)" fill="#ebebeb"/>
          <path id="Path_480" data-name="Path 480" d="M302.932,206.5a5.708,5.708,0,0,0,.177-1.177c.146-2.44,2.475-2.053,4.457-2.384,1.548-.259-2.552-4.171.57-5.432a2.749,2.749,0,0,0,1.507-1.05,1.774,1.774,0,0,0-.68-2.164,4.2,4.2,0,0,0-2.37-.594c-.509-.619-.1-1.55.4-2.183s1.1-1.351.91-2.131c-.282-1.177-1.927-1.219-3.115-.99a8.565,8.565,0,0,1-.644-2.409c-.212-.809-.855-1.657-1.685-1.556-.781.1-1.259.978-2.025,1.159-.89.209-1.661-.578-2.359-1.168s-1.919-.959-2.4-.181c-.288.466-.116,1.115-.415,1.573-.518.795-1.748.3-2.511-.262s-1.98-1.074-2.518-.292a3.322,3.322,0,0,0-.3.816c-.361,1.042-1.488,1.562-2.365,2.231s-1.573,2-.831,2.814c.367.4,1.011.566,1.193,1.078.228.641-.427,1.215-.945,1.656-.863.734-1.019,2.929.122,3.53.478.251,1.181.329,1.3.857.105.473-.374.84-.692,1.2a2.267,2.267,0,0,0,.694,3.375c.274.131.61.239.711.524a1.075,1.075,0,0,1-.065.637,3.353,3.353,0,0,0-.11,1.222.56.56,0,0,0,.149.384.58.58,0,0,0,.361.1c1.647.073,2.441-.509,3.447.924a1.163,1.163,0,0,0,.343.364,1.066,1.066,0,0,0,.454.114c1.132.093,1.872-.614,2.906-.746,1.436-.183,1.74.558,3,1.152C301.595,208.436,302.559,207.859,302.932,206.5Z" transform="translate(-272.812 -145.174)" fill="#ebebeb"/>
          <path id="Path_481" data-name="Path 481" d="M290.487,197.483a7.277,7.277,0,0,0,.225-1.494c.185-3.1,3.143-2.608,5.66-3.029,1.966-.329-3.24-5.3.724-6.9a3.484,3.484,0,0,0,1.913-1.333,2.252,2.252,0,0,0-.863-2.749,5.323,5.323,0,0,0-3.01-.754c-.646-.786-.12-1.97.505-2.772s1.393-1.716,1.155-2.706c-.358-1.5-2.448-1.549-3.957-1.258a10.859,10.859,0,0,1-.818-3.059c-.271-1.027-1.087-2.1-2.141-1.976-.992.121-1.6,1.242-2.573,1.471-1.13.267-2.109-.733-3-1.483s-2.437-1.218-3.049-.23c-.365.591-.146,1.416-.527,2-.658,1.009-2.22.383-3.19-.333s-2.515-1.364-3.2-.371a4.143,4.143,0,0,0-.376,1.037c-.459,1.323-1.89,1.983-3,2.832s-2,2.538-1.054,3.574c.466.511,1.284.719,1.515,1.37.289.814-.543,1.544-1.2,2.1-1.1.932-1.294,3.72.154,4.483.608.32,1.5.419,1.649,1.089.133.6-.475,1.066-.88,1.529a2.879,2.879,0,0,0,.882,4.286c.348.166.775.3.9.666a1.371,1.371,0,0,1-.084.81,4.272,4.272,0,0,0-.139,1.552.708.708,0,0,0,.189.487.745.745,0,0,0,.459.13c2.092.093,3.1-.648,4.378,1.173a1.494,1.494,0,0,0,.435.462,1.365,1.365,0,0,0,.578.144c1.438.119,2.378-.779,3.692-.947,1.823-.232,2.209.708,3.815,1.463C288.787,199.936,290.012,199.205,290.487,197.483Z" transform="translate(-269.353 -142.08)" fill="#ebebeb"/>
          <path id="Path_482" data-name="Path 482" d="M322.2,164.095a7.287,7.287,0,0,0,.226-1.494c.184-3.1,3.142-2.609,5.66-3.029,1.966-.329-3.24-5.3.725-6.9a3.485,3.485,0,0,0,1.913-1.334,2.253,2.253,0,0,0-.863-2.749,5.323,5.323,0,0,0-3.01-.755c-.647-.786-.121-1.97.505-2.772s1.392-1.716,1.155-2.706c-.358-1.494-2.447-1.549-3.957-1.257a10.865,10.865,0,0,1-.817-3.06c-.271-1.027-1.087-2.1-2.141-1.975-.993.121-1.6,1.241-2.573,1.471-1.131.266-2.11-.734-3-1.483s-2.437-1.218-3.049-.231c-.366.592-.146,1.416-.527,2-.659,1.01-2.221.383-3.19-.333s-2.515-1.364-3.2-.37a4.173,4.173,0,0,0-.376,1.036c-.458,1.324-1.89,1.984-3,2.833s-2,2.537-1.054,3.573c.466.512,1.284.719,1.515,1.37.289.813-.544,1.543-1.2,2.1-1.1.932-1.294,3.719.154,4.482.608.321,1.5.419,1.649,1.089.134.6-.475,1.066-.879,1.529a2.878,2.878,0,0,0,.881,4.285c.348.166.775.3.9.667a1.363,1.363,0,0,1-.083.809,4.259,4.259,0,0,0-.139,1.553.711.711,0,0,0,.189.487.742.742,0,0,0,.459.129c2.091.093,3.1-.647,4.377,1.173a1.5,1.5,0,0,0,.436.462,1.353,1.353,0,0,0,.577.144c1.438.119,2.378-.779,3.692-.946,1.823-.232,2.21.707,3.816,1.463C320.5,166.548,321.721,165.816,322.2,164.095Z" transform="translate(-275.829 -135.261)" fill="#ebebeb"/>
          <path id="Path_483" data-name="Path 483" d="M348.085,165.419a7.283,7.283,0,0,0,.226-1.494c.184-3.1,3.142-2.608,5.66-3.028,1.966-.329-3.24-5.3.725-6.9a3.485,3.485,0,0,0,1.913-1.334,2.253,2.253,0,0,0-.863-2.749,5.324,5.324,0,0,0-3.01-.755c-.647-.786-.121-1.97.505-2.772s1.392-1.716,1.155-2.706c-.358-1.494-2.447-1.549-3.957-1.258a10.851,10.851,0,0,1-.817-3.059c-.271-1.027-1.087-2.1-2.141-1.975-.993.121-1.6,1.241-2.573,1.471-1.131.266-2.11-.734-3-1.483s-2.438-1.218-3.049-.231c-.366.592-.147,1.416-.527,2-.659,1.01-2.221.383-3.19-.333s-2.515-1.364-3.2-.37a4.172,4.172,0,0,0-.376,1.036c-.458,1.324-1.89,1.984-3,2.833s-2,2.537-1.054,3.573c.465.512,1.284.719,1.515,1.37.289.813-.543,1.543-1.2,2.1-1.095.931-1.294,3.719.154,4.483.608.32,1.5.418,1.649,1.089.134.6-.475,1.066-.879,1.529a2.879,2.879,0,0,0,.881,4.286c.348.166.775.3.9.667a1.368,1.368,0,0,1-.083.809,4.257,4.257,0,0,0-.14,1.552.709.709,0,0,0,.189.487.737.737,0,0,0,.459.13c2.091.093,3.1-.647,4.377,1.173a1.5,1.5,0,0,0,.436.462,1.353,1.353,0,0,0,.577.144c1.438.119,2.378-.779,3.692-.946,1.823-.232,2.21.707,3.816,1.463C346.386,167.872,347.611,167.14,348.085,165.419Z" transform="translate(-281.116 -135.532)" fill="#ebebeb"/>
          <path id="Path_484" data-name="Path 484" d="M363.811,176.014a7.338,7.338,0,0,0,.226-1.494c.184-3.1,3.142-2.609,5.66-3.029,1.966-.329-3.24-5.3.724-6.9a3.482,3.482,0,0,0,1.913-1.334,2.251,2.251,0,0,0-.863-2.749,5.319,5.319,0,0,0-3.01-.755c-.647-.786-.121-1.97.5-2.772s1.393-1.716,1.155-2.706c-.358-1.494-2.447-1.548-3.957-1.257a10.865,10.865,0,0,1-.817-3.06c-.271-1.027-1.087-2.1-2.141-1.975-.993.121-1.6,1.241-2.573,1.471-1.131.266-2.11-.734-3-1.483s-2.438-1.218-3.049-.231c-.366.592-.147,1.416-.527,2-.659,1.01-2.221.383-3.19-.333s-2.515-1.364-3.2-.37a4.14,4.14,0,0,0-.376,1.036c-.459,1.324-1.89,1.984-3,2.833s-2,2.538-1.054,3.574c.466.511,1.284.718,1.515,1.37.289.813-.543,1.543-1.2,2.1-1.1.932-1.294,3.719.154,4.483.608.32,1.5.418,1.649,1.089.134.6-.475,1.066-.879,1.529a2.878,2.878,0,0,0,.881,4.285c.348.166.775.3.9.667a1.363,1.363,0,0,1-.084.809,4.276,4.276,0,0,0-.139,1.553.708.708,0,0,0,.189.487.742.742,0,0,0,.459.129c2.091.093,3.1-.647,4.377,1.173a1.488,1.488,0,0,0,.436.462,1.349,1.349,0,0,0,.577.144c1.438.119,2.378-.779,3.692-.946,1.823-.232,2.209.707,3.816,1.463C362.112,178.467,363.337,177.735,363.811,176.014Z" transform="translate(-284.328 -137.695)" fill="#ebebeb"/>
          <path id="Path_485" data-name="Path 485" d="M349.46,192.11s-5.234,7.4-7.038,9.746-10.828,16.963-12.056,26.632c-.131,1.031-.26,1.92-.387,2.7,3.882,25.617,3.272,72.487,3.135,80.512h-12.3c-.114-9.048-1.159-91.76-1.544-94.286-.407-2.672-5.547-12.848-13.488-17.029s-14.8-18.016-14.8-18.016h2.531s4.692,8.482,11.369,13.174a25.58,25.58,0,0,0,3,1.781,42.642,42.642,0,0,1,2.655-14.955l1.366,1.264c-1.845,7.554-1.6,12.393-1.044,15.172a27.462,27.462,0,0,1,6.9,4.62c6.926-9.007,10.821-29.6,10.821-29.6l1.774.968a105,105,0,0,1-2.29,12.633c-1.3,5.332-5.117,15.369-6.894,19.926a47.212,47.212,0,0,1,5.231,9.821,4.032,4.032,0,0,1,.668-.8c4.512-4.079,12.994-23.352,12.994-23.352,2.051-4.48-1.083-16.242-1.083-16.242h2.367l1.062,10.287,5.956-6.5,1.082.9-6.316,8.122L339.9,199.873l8.482-9.387Z" transform="translate(-273.771 -143.136)" fill="#e6e6e6"/>
        </g>
        <g id="Group_140" data-name="Group 140" transform="translate(13.496 41.096)">
          <path id="Path_486" data-name="Path 486" d="M81.938,237.155a5.6,5.6,0,0,1-.173-1.147c-.142-2.378-2.411-2-4.343-2.324-1.509-.251,2.486-4.063-.556-5.293a2.668,2.668,0,0,1-1.467-1.023,1.728,1.728,0,0,1,.662-2.109,4.086,4.086,0,0,1,2.309-.579c.5-.6.093-1.511-.388-2.127s-1.068-1.317-.886-2.076c.275-1.147,1.877-1.188,3.036-.965a8.36,8.36,0,0,0,.627-2.348c.208-.788.834-1.614,1.642-1.516.762.093,1.227.953,1.974,1.129.867.2,1.619-.563,2.3-1.138s1.871-.935,2.34-.177c.28.454.112,1.086.4,1.533.505.775,1.7.294,2.448-.255s1.93-1.046,2.453-.285a3.2,3.2,0,0,1,.288.8c.353,1.015,1.45,1.521,2.305,2.173s1.533,1.947.809,2.741c-.357.392-.985.551-1.163,1.051-.222.625.416,1.184.922,1.614.84.715.993,2.854-.119,3.439-.466.246-1.151.321-1.265.836-.1.46.364.818.675,1.173a2.208,2.208,0,0,1-.676,3.288c-.267.128-.6.233-.694.512a1.048,1.048,0,0,0,.064.621,3.286,3.286,0,0,1,.107,1.19.549.549,0,0,1-.145.374.569.569,0,0,1-.353.1c-1.605.071-2.379-.5-3.359.9a1.133,1.133,0,0,1-.334.355,1.028,1.028,0,0,1-.442.111c-1.1.091-1.825-.6-2.832-.726-1.4-.178-1.7.543-2.928,1.122C83.242,239.037,82.3,238.476,81.938,237.155Z" transform="translate(-75.248 -192.649)" fill="#ebebeb"/>
          <path id="Path_487" data-name="Path 487" d="M105.164,234.645a5.594,5.594,0,0,1-.173-1.146c-.142-2.378-2.412-2-4.343-2.324-1.509-.252,2.486-4.064-.556-5.293a2.667,2.667,0,0,1-1.467-1.023,1.727,1.727,0,0,1,.662-2.11,4.086,4.086,0,0,1,2.309-.579c.5-.6.093-1.51-.388-2.127s-1.068-1.317-.886-2.076c.275-1.147,1.877-1.188,3.036-.965a8.362,8.362,0,0,0,.627-2.347c.208-.788.834-1.615,1.642-1.516.762.092,1.227.953,1.974,1.128.867.2,1.619-.563,2.3-1.138s1.87-.934,2.339-.177c.281.454.113,1.086.4,1.533.505.774,1.7.294,2.448-.255s1.93-1.046,2.453-.284a3.182,3.182,0,0,1,.288.795c.352,1.016,1.45,1.522,2.305,2.173s1.533,1.947.809,2.742c-.357.392-.985.551-1.163,1.05-.222.625.416,1.185.922,1.614.84.715.992,2.854-.119,3.439-.466.246-1.151.322-1.265.836-.1.461.364.819.675,1.173a2.209,2.209,0,0,1-.676,3.289c-.267.127-.6.232-.694.512a1.045,1.045,0,0,0,.064.621,3.288,3.288,0,0,1,.107,1.191.549.549,0,0,1-.145.373.569.569,0,0,1-.353.1c-1.605.072-2.379-.5-3.359.9a1.15,1.15,0,0,1-.334.355,1.027,1.027,0,0,1-.442.11c-1.1.092-1.825-.6-2.832-.726-1.4-.178-1.7.543-2.928,1.122C106.468,236.528,105.528,235.966,105.164,234.645Z" transform="translate(-79.991 -192.137)" fill="#ebebeb"/>
          <path id="Path_488" data-name="Path 488" d="M107.4,219.854a5.648,5.648,0,0,1-.173-1.146c-.142-2.378-2.411-2-4.343-2.324-1.509-.252,2.486-4.064-.556-5.293a2.673,2.673,0,0,1-1.467-1.023,1.728,1.728,0,0,1,.662-2.11,4.086,4.086,0,0,1,2.31-.579c.5-.6.092-1.511-.388-2.127s-1.069-1.317-.886-2.076c.275-1.147,1.877-1.188,3.036-.965a8.334,8.334,0,0,0,.627-2.348c.208-.787.834-1.614,1.642-1.515.762.092,1.227.953,1.974,1.128.867.2,1.618-.563,2.3-1.138s1.871-.935,2.34-.177c.28.454.112,1.086.4,1.533.505.775,1.7.294,2.448-.255s1.929-1.046,2.453-.285a3.167,3.167,0,0,1,.288.8c.353,1.015,1.451,1.522,2.305,2.173s1.533,1.947.809,2.742c-.357.392-.985.551-1.163,1.05-.222.625.417,1.184.922,1.614.84.715.993,2.854-.119,3.439-.466.246-1.151.321-1.265.836-.1.46.365.818.676,1.173a2.21,2.21,0,0,1-.676,3.289c-.267.127-.594.232-.694.511a1.061,1.061,0,0,0,.064.621,3.268,3.268,0,0,1,.107,1.19.545.545,0,0,1-.145.374.569.569,0,0,1-.353.1c-1.6.071-2.379-.5-3.358.9a1.142,1.142,0,0,1-.334.355,1.034,1.034,0,0,1-.443.111c-1.1.092-1.824-.6-2.832-.726-1.4-.178-1.695.543-2.928,1.122C108.706,221.736,107.767,221.175,107.4,219.854Z" transform="translate(-80.448 -189.116)" fill="#ebebeb"/>
          <path id="Path_489" data-name="Path 489" d="M122.7,227.221a5.593,5.593,0,0,1-.173-1.146c-.142-2.378-2.411-2-4.343-2.324-1.509-.252,2.486-4.063-.556-5.293a2.675,2.675,0,0,1-1.467-1.023,1.727,1.727,0,0,1,.662-2.11,4.091,4.091,0,0,1,2.309-.579c.5-.6.093-1.511-.388-2.127s-1.068-1.317-.886-2.077c.275-1.147,1.877-1.188,3.036-.965a8.362,8.362,0,0,0,.627-2.347c.208-.788.834-1.615,1.642-1.516.762.093,1.227.953,1.974,1.128.867.2,1.619-.563,2.3-1.138s1.87-.934,2.339-.177c.281.454.113,1.086.4,1.533.505.774,1.7.294,2.448-.255s1.93-1.046,2.453-.284a3.181,3.181,0,0,1,.288.795c.352,1.016,1.45,1.522,2.305,2.173s1.533,1.947.809,2.742c-.357.392-.985.551-1.163,1.051-.222.624.416,1.184.922,1.613.84.715.993,2.854-.119,3.439-.466.246-1.151.321-1.265.836-.1.461.364.819.675,1.174a2.208,2.208,0,0,1-.676,3.288c-.267.127-.6.232-.694.512a1.045,1.045,0,0,0,.064.621,3.288,3.288,0,0,1,.107,1.191.545.545,0,0,1-.145.373.569.569,0,0,1-.353.1c-1.605.072-2.379-.5-3.359.9a1.15,1.15,0,0,1-.334.355,1.027,1.027,0,0,1-.442.11c-1.1.092-1.825-.6-2.832-.726-1.4-.178-1.7.543-2.928,1.122C124.006,229.1,123.066,228.542,122.7,227.221Z" transform="translate(-83.573 -190.62)" fill="#ebebeb"/>
          <path id="Path_490" data-name="Path 490" d="M138.165,223.819a5.6,5.6,0,0,1-.173-1.147c-.142-2.378-2.411-2-4.343-2.324-1.509-.252,2.486-4.063-.556-5.293a2.676,2.676,0,0,1-1.468-1.023,1.729,1.729,0,0,1,.663-2.11,4.092,4.092,0,0,1,2.309-.579c.5-.6.093-1.511-.388-2.127s-1.068-1.317-.886-2.077c.275-1.147,1.877-1.188,3.035-.965a8.337,8.337,0,0,0,.628-2.347c.208-.788.834-1.615,1.642-1.516.762.093,1.227.953,1.973,1.129.867.2,1.619-.563,2.3-1.139s1.87-.934,2.339-.176c.281.454.113,1.086.4,1.533.505.774,1.7.294,2.448-.255s1.93-1.046,2.453-.284a3.182,3.182,0,0,1,.288.795c.353,1.016,1.45,1.522,2.305,2.173s1.533,1.947.809,2.742c-.357.392-.985.551-1.163,1.051-.222.624.416,1.184.921,1.614.84.715.993,2.854-.119,3.439-.466.245-1.151.321-1.265.836-.1.46.364.818.675,1.173a2.208,2.208,0,0,1-.676,3.288c-.267.128-.6.232-.694.512a1.045,1.045,0,0,0,.064.621,3.288,3.288,0,0,1,.107,1.191.549.549,0,0,1-.145.373.569.569,0,0,1-.353.1c-1.605.072-2.379-.5-3.359.9a1.141,1.141,0,0,1-.334.355,1.039,1.039,0,0,1-.442.111c-1.1.091-1.825-.6-2.832-.727-1.4-.178-1.7.544-2.928,1.123C139.469,225.7,138.529,225.139,138.165,223.819Z" transform="translate(-86.731 -189.925)" fill="#ebebeb"/>
          <path id="Path_491" data-name="Path 491" d="M138.732,241.566a4.406,4.406,0,0,1-.136-.9c-.111-1.872-1.9-1.576-3.419-1.829-1.188-.2,1.958-3.2-.438-4.167a2.112,2.112,0,0,1-1.156-.806,1.361,1.361,0,0,1,.522-1.661,3.22,3.22,0,0,1,1.818-.456c.391-.475.073-1.19-.3-1.675s-.841-1.037-.7-1.635c.216-.9,1.479-.936,2.39-.76a6.57,6.57,0,0,0,.493-1.849c.164-.62.656-1.271,1.293-1.194.6.073.967.75,1.555.889.683.162,1.274-.442,1.81-.9s1.473-.736,1.842-.139c.22.357.088.855.318,1.207.4.61,1.342.232,1.928-.2s1.519-.824,1.931-.224a2.526,2.526,0,0,1,.227.626c.277.8,1.142,1.2,1.815,1.712s1.207,1.533.637,2.159c-.282.309-.776.434-.916.828-.174.492.328.933.726,1.271.662.563.782,2.247-.093,2.708-.368.193-.906.252-1,.658-.08.362.287.644.532.923a1.74,1.74,0,0,1-.532,2.589c-.21.1-.468.183-.546.4a.823.823,0,0,0,.05.489,2.586,2.586,0,0,1,.084.937.431.431,0,0,1-.115.294.449.449,0,0,1-.277.078c-1.264.056-1.873-.391-2.644.708a.915.915,0,0,1-.263.28.832.832,0,0,1-.349.087c-.869.072-1.437-.471-2.231-.572-1.1-.14-1.334.428-2.305.884C139.758,243.049,139.018,242.606,138.732,241.566Z" transform="translate(-87.137 -194.511)" fill="#ebebeb"/>
          <path id="Path_492" data-name="Path 492" d="M147.031,234.645a5.592,5.592,0,0,1-.173-1.146c-.142-2.378-2.411-2-4.343-2.324-1.509-.252,2.486-4.064-.556-5.293a2.671,2.671,0,0,1-1.468-1.023,1.729,1.729,0,0,1,.663-2.11,4.086,4.086,0,0,1,2.309-.579c.5-.6.093-1.51-.388-2.127s-1.068-1.317-.886-2.076c.275-1.147,1.877-1.188,3.035-.965a8.336,8.336,0,0,0,.628-2.347c.208-.788.834-1.615,1.642-1.516.762.092,1.227.953,1.974,1.128.867.2,1.619-.563,2.3-1.138s1.87-.934,2.339-.177c.281.454.113,1.086.4,1.533.505.774,1.7.294,2.448-.255s1.93-1.046,2.453-.284a3.182,3.182,0,0,1,.288.795c.352,1.016,1.45,1.522,2.305,2.173s1.533,1.947.809,2.742c-.357.392-.985.551-1.163,1.05-.222.625.416,1.185.922,1.614.84.715.993,2.854-.119,3.439-.466.246-1.151.322-1.265.836-.1.461.364.819.675,1.173a2.209,2.209,0,0,1-.676,3.289c-.267.127-.6.232-.694.512a1.046,1.046,0,0,0,.064.621,3.288,3.288,0,0,1,.107,1.191.549.549,0,0,1-.145.373.569.569,0,0,1-.353.1c-1.605.072-2.379-.5-3.359.9a1.15,1.15,0,0,1-.334.355,1.027,1.027,0,0,1-.442.11c-1.1.092-1.825-.6-2.832-.726-1.4-.178-1.7.543-2.928,1.122C148.335,236.528,147.4,235.966,147.031,234.645Z" transform="translate(-88.542 -192.137)" fill="#ebebeb"/>
          <path id="Path_493" data-name="Path 493" d="M122.7,209.028a5.61,5.61,0,0,1-.173-1.147c-.142-2.378-2.411-2-4.343-2.324-1.509-.252,2.486-4.063-.556-5.293a2.675,2.675,0,0,1-1.467-1.023,1.727,1.727,0,0,1,.662-2.11,4.086,4.086,0,0,1,2.309-.579c.5-.6.093-1.51-.388-2.127s-1.068-1.316-.886-2.076c.275-1.147,1.877-1.188,3.036-.965a8.361,8.361,0,0,0,.627-2.348c.208-.787.834-1.614,1.642-1.515.762.093,1.227.953,1.974,1.128.867.2,1.619-.563,2.3-1.138s1.87-.934,2.339-.177c.281.454.113,1.086.4,1.533.505.774,1.7.294,2.448-.255s1.93-1.046,2.453-.284a3.181,3.181,0,0,1,.288.795c.352,1.016,1.45,1.522,2.305,2.173s1.533,1.947.809,2.742c-.357.392-.985.551-1.163,1.05-.222.625.416,1.185.922,1.614.84.715.993,2.854-.119,3.439-.466.246-1.151.322-1.265.836-.1.46.364.818.675,1.173a2.208,2.208,0,0,1-.676,3.288c-.267.127-.6.232-.694.512a1.045,1.045,0,0,0,.064.621,3.288,3.288,0,0,1,.107,1.191.545.545,0,0,1-.145.373.569.569,0,0,1-.353.1c-1.605.072-2.379-.5-3.359.9a1.15,1.15,0,0,1-.334.355,1.027,1.027,0,0,1-.442.11c-1.1.092-1.825-.6-2.832-.726-1.4-.178-1.7.543-2.928,1.122C124.006,210.91,123.066,210.348,122.7,209.028Z" transform="translate(-83.573 -186.905)" fill="#ebebeb"/>
          <path id="Path_494" data-name="Path 494" d="M102.838,210.043a5.591,5.591,0,0,1-.173-1.146c-.141-2.378-2.411-2-4.343-2.324-1.509-.252,2.487-4.064-.555-5.293a2.675,2.675,0,0,1-1.468-1.023,1.729,1.729,0,0,1,.663-2.11,4.084,4.084,0,0,1,2.309-.579c.5-.6.092-1.511-.388-2.127s-1.069-1.317-.886-2.076c.275-1.147,1.878-1.188,3.036-.965a8.333,8.333,0,0,0,.627-2.348c.208-.787.834-1.614,1.642-1.515.762.092,1.227.953,1.974,1.128.867.2,1.619-.563,2.3-1.138s1.87-.934,2.339-.177c.281.454.112,1.086.4,1.533.505.774,1.7.294,2.448-.255s1.929-1.046,2.453-.284a3.182,3.182,0,0,1,.289.795c.352,1.016,1.45,1.521,2.3,2.173s1.533,1.947.809,2.742c-.357.392-.985.551-1.163,1.05-.221.625.417,1.184.922,1.614.841.715.993,2.854-.118,3.439-.467.246-1.151.321-1.265.836-.1.46.364.819.675,1.173a2.21,2.21,0,0,1-.676,3.289c-.267.127-.594.232-.693.511a1.047,1.047,0,0,0,.064.621,3.268,3.268,0,0,1,.107,1.19.542.542,0,0,1-.145.374.565.565,0,0,1-.352.1c-1.605.072-2.379-.5-3.359.9a1.15,1.15,0,0,1-.334.355,1.042,1.042,0,0,1-.443.11c-1.1.092-1.824-.6-2.832-.726-1.4-.178-1.695.543-2.928,1.122C104.141,211.926,103.2,211.364,102.838,210.043Z" transform="translate(-79.516 -187.112)" fill="#ebebeb"/>
          <path id="Path_495" data-name="Path 495" d="M90.772,218.173a5.607,5.607,0,0,1-.173-1.147c-.141-2.378-2.411-2-4.343-2.324-1.509-.252,2.487-4.063-.555-5.293a2.676,2.676,0,0,1-1.468-1.023,1.729,1.729,0,0,1,.663-2.11A4.09,4.09,0,0,1,87.2,205.7c.5-.6.092-1.511-.388-2.127s-1.069-1.317-.886-2.077c.275-1.147,1.878-1.188,3.036-.965a8.336,8.336,0,0,0,.627-2.347c.208-.788.834-1.615,1.642-1.516.762.093,1.227.953,1.974,1.129.867.2,1.619-.563,2.3-1.139s1.87-.934,2.339-.177c.281.454.113,1.086.4,1.533.505.774,1.7.294,2.448-.255s1.93-1.046,2.453-.284a3.183,3.183,0,0,1,.289.795c.352,1.016,1.45,1.522,2.305,2.173s1.533,1.947.808,2.742c-.357.392-.984.551-1.163,1.051-.221.624.417,1.184.922,1.613.841.715.993,2.854-.118,3.439-.467.246-1.151.321-1.265.836-.1.46.364.818.675,1.173a2.209,2.209,0,0,1-.676,3.288c-.267.127-.594.232-.693.512a1.045,1.045,0,0,0,.064.621,3.271,3.271,0,0,1,.107,1.191.541.541,0,0,1-.145.373.565.565,0,0,1-.352.1c-1.605.072-2.379-.5-3.359.9a1.141,1.141,0,0,1-.334.355,1.042,1.042,0,0,1-.443.111c-1.1.091-1.824-.6-2.832-.727-1.4-.178-1.695.543-2.928,1.122C92.075,220.055,91.136,219.493,90.772,218.173Z" transform="translate(-77.052 -188.772)" fill="#ebebeb"/>
          <path id="Path_496" data-name="Path 496" d="M96.147,230.523s4.015,5.677,5.4,7.477,8.308,13.016,9.25,20.435c.1.791.2,1.473.3,2.069-2.978,19.656-2.511,55.617-2.406,61.774h9.434c.087-6.942.889-70.4,1.184-72.343.313-2.05,4.257-9.858,10.35-13.066s11.357-13.823,11.357-13.823h-1.942s-3.6,6.508-8.723,10.108a19.626,19.626,0,0,1-2.305,1.366,32.706,32.706,0,0,0-2.037-11.474l-1.048.969c1.415,5.8,1.229,9.509.8,11.641a21.052,21.052,0,0,0-5.3,3.545c-5.314-6.91-8.3-22.714-8.3-22.714l-1.361.743a80.539,80.539,0,0,0,1.757,9.692,161.359,161.359,0,0,0,5.289,15.289,36.2,36.2,0,0,0-4.014,7.535,3.051,3.051,0,0,0-.513-.614c-3.462-3.13-9.969-17.918-9.969-17.918-1.574-3.438.831-12.462.831-12.462h-1.817l-.814,7.892-4.569-4.985-.831.692,4.846,6.231,2.492,7.895-6.508-7.2Z" transform="translate(-79.516 -192.946)" fill="#e6e6e6"/>
        </g>
        <path id="Rectangle_34" data-name="Rectangle 34" d="M0,0H305.117a0,0,0,0,1,0,0V7.871a7.915,7.915,0,0,1-7.915,7.915H7.915A7.915,7.915,0,0,1,0,7.871V0A0,0,0,0,1,0,0Z" transform="translate(305.117 197.331) rotate(180)" fill="#e0e0e0"/>
      </g>
    </g>
    <rect id="Rectangle_39" data-name="Rectangle 39" width="116.374" height="158.021" rx="7.83" transform="translate(78.41 92.043)" fill="#407bff"/>
    <rect id="Rectangle_40" data-name="Rectangle 40" width="116.374" height="158.021" rx="7.83" transform="translate(78.41 92.043)" fill="#427069" style="mix-blend-mode: normal;isolation: isolate"/>
    <g id="Group_148" data-name="Group 148" transform="translate(120.968 118.795)">
      <path id="Path_537" data-name="Path 537" d="M186.341,166.781a15.629,15.629,0,1,1-15.629-15.621A15.614,15.614,0,0,1,186.341,166.781Z" transform="translate(-155.083 -151.16)" fill="#407bff"/>
      <path id="Path_538" data-name="Path 538" d="M186.341,166.781a15.629,15.629,0,1,1-15.629-15.621A15.614,15.614,0,0,1,186.341,166.781Z" transform="translate(-155.083 -151.16)" fill="#fff" opacity="0.7"/>
      <g id="Group_147" data-name="Group 147" transform="translate(5.714 8.556)">
        <circle id="Ellipse_35" data-name="Ellipse 35" cx="5.597" cy="5.597" r="5.597" transform="translate(4.319)" fill="#fff"/>
        <path id="Path_539" data-name="Path 539" d="M182.1,183.8a15.636,15.636,0,0,1-19.839,0c1.464-4.289,4.48-7.456,8.1-8.26a8.373,8.373,0,0,1,3.629,0C177.621,176.343,180.629,179.51,182.1,183.8Z" transform="translate(-162.263 -164.654)" fill="#fff"/>
      </g>
    </g>
    <text id="Sign_up_now" data-name="Sign up now" transform="translate(126.584 194.529)" fill="#fff" font-size="2" font-family="Montserrat-Regular, Montserrat"><tspan x="0" y="0">Sign up now</tspan></text>
    <rect id="Rectangle_41" data-name="Rectangle 41" width="75.974" height="13.009" rx="6.505" transform="translate(98.61 200.299)" fill="#fcb041"/>
    <text id="Forgot_Password_" data-name="Forgot Password?" transform="translate(122.279 220.822)" fill="#fff" font-size="2" font-family="Montserrat-Regular, Montserrat"><tspan x="0" y="0">Forgot Password?</tspan></text>
    <text id="Login" transform="translate(134.844 207.459)" fill="#fff" font-size="5" font-family="Montserrat-Medium, Montserrat" font-weight="500"><tspan x="-7" y="0">Login</tspan></text>
    <rect id="Rectangle_42" data-name="Rectangle 42" width="75.974" height="13.009" rx="6.505" transform="translate(98.61 156.367)" fill="#fff"/>
    <rect id="Rectangle_43" data-name="Rectangle 43" width="75.974" height="13.009" rx="6.505" transform="translate(98.61 174.818)" fill="#fff"/>
    <text id="Name_mail.com" data-name="Name@mail.com" transform="translate(106.945 163.064)" font-size="3" font-family="Montserrat-Regular, Montserrat" opacity="0.5"><tspan x="0" y="0">Name@mail.com</tspan></text>
    <text id="_" data-name="*******" transform="translate(106.945 183.291)" font-size="4" font-family="Montserrat-Regular, Montserrat" opacity="0.5"><tspan x="0" y="0">*******</tspan></text>
    <path id="Path_540" data-name="Path 540" d="M205.658,202.713v6.11h8.656v-6.11Zm7.244.666-2.916,1.986-2.915-1.986Zm-6.578,4.778v-4.481l3.662,2.495,3.663-2.495v4.481Z" transform="translate(-44.443 -42.896)" opacity="0.2"/>
    <g id="Group_150" data-name="Group 150" transform="translate(161.885 177.873)" opacity="0.2">
      <g id="Group_149" data-name="Group 149">
        <path id="Path_541" data-name="Path 541" d="M212.2,227.839V227.1a1.7,1.7,0,0,0-1.693-1.693h-.922a1.7,1.7,0,0,0-1.694,1.693v.743H206.5v5.078h7.317v-5.078Zm-3.644-.743a1.029,1.029,0,0,1,1.028-1.028h.922a1.03,1.03,0,0,1,1.028,1.028v.743h-2.979Zm4.592,5.155h-5.986V228.5h5.986Z" transform="translate(-206.5 -225.402)"/>
        <path id="Path_542" data-name="Path 542" d="M210.808,231.731v.6h.384v-.6a.373.373,0,0,0,.186-.318.378.378,0,1,0-.757,0A.372.372,0,0,0,210.808,231.731Z" transform="translate(-207.342 -226.552)"/>
      </g>
    </g>
    <g id="Group_170" data-name="Group 170" transform="translate(274.171 66.41)">
      <path id="Path_543" data-name="Path 543" d="M343.984,145.652H321.123a7.04,7.04,0,0,0-7.039,7.039v19.9a7.039,7.039,0,0,0,7.039,7.039h9.042l2.389,6.282,2.389-6.282h9.042a7.039,7.039,0,0,0,7.039-7.039v-19.9A7.039,7.039,0,0,0,343.984,145.652Z" transform="translate(-314.084 -145.652)" fill="#427069" opacity="0.5"/>
      <g id="Group_155" data-name="Group 155" transform="translate(2.423 0.855)">
        <g id="Group_153" data-name="Group 153" transform="translate(0 0)" style="mix-blend-mode: normal;isolation: isolate">
          <circle id="Ellipse_36" data-name="Ellipse 36" cx="11.346" cy="11.346" r="11.346" transform="translate(0 16.046) rotate(-45)" fill="#427069"/>
        </g>
        <g id="Group_154" data-name="Group 154" transform="translate(9.361 10.978)">
          <path id="Path_545" data-name="Path 545" d="M334.388,170.659a1.046,1.046,0,0,1-.8-.368l-4.452-5.246a1.043,1.043,0,0,1,1.59-1.349L334.388,168l6.038-7.114a1.043,1.043,0,1,1,1.59,1.349l-6.833,8.052A1.044,1.044,0,0,1,334.388,170.659Z" transform="translate(-328.893 -160.522)" fill="#fff"/>
        </g>
      </g>
    </g>
    <g id="Character" transform="translate(164.809 112.332)">
      <g id="Group_157" data-name="Group 157" transform="translate(0 52.375)">
        <path id="Path_546" data-name="Path 546" d="M387.93,401.188h5.255l-10.742-60.633h-5.255Z" transform="translate(-217.61 -283.754)" fill="#263238"/>
        <path id="Path_547" data-name="Path 547" d="M242.775,401.188h5.255l-10.742-60.633h-5.255Z" transform="translate(-187.965 -283.754)" fill="#263238"/>
        <path id="Path_548" data-name="Path 548" d="M387.93,401.188h5.255l-10.742-60.633h-5.255Z" transform="translate(-217.61 -283.754)" fill="#fff" opacity="0.3"/>
        <path id="Path_549" data-name="Path 549" d="M242.775,401.188h5.255l-10.742-60.633h-5.255Z" transform="translate(-187.965 -283.754)" fill="#fff" opacity="0.3"/>
        <rect id="Rectangle_44" data-name="Rectangle 44" width="158.48" height="5.322" transform="translate(167.577 92.44) rotate(180)" fill="#263238"/>
        <rect id="Rectangle_45" data-name="Rectangle 45" width="158.48" height="5.322" transform="translate(167.577 92.44) rotate(180)" fill="#fff" opacity="0.5"/>
        <path id="Path_550" data-name="Path 550" d="M328.445,401.188H323.19l10.743-60.633h5.255Z" transform="translate(-206.582 -283.754)" fill="#263238"/>
        <path id="Path_551" data-name="Path 551" d="M183.29,401.188h-5.255l10.742-60.633h5.255Z" transform="translate(-176.937 -283.754)" fill="#263238"/>
        <path id="Path_552" data-name="Path 552" d="M328.445,401.188H323.19l10.743-60.633h5.255Z" transform="translate(-206.582 -283.754)" fill="#fff" opacity="0.3"/>
        <path id="Path_553" data-name="Path 553" d="M183.29,401.188h-5.255l10.742-60.633h5.255Z" transform="translate(-176.937 -283.754)" fill="#fff" opacity="0.3"/>
        <path id="Path_554" data-name="Path 554" d="M244.521,325.106h5.229l8.753-48.661h-5.229Z" transform="translate(-190.516 -270.66)" fill="#263238"/>
        <path id="Path_555" data-name="Path 555" d="M244.521,325.106h5.229l8.753-48.661h-5.229Z" transform="translate(-190.516 -270.66)" fill="#fff" opacity="0.3"/>
        <path id="Path_556" data-name="Path 556" d="M375.006,325.106h5.229l8.753-48.661h-5.229Z" transform="translate(-217.165 -270.66)" fill="#263238"/>
        <path id="Path_557" data-name="Path 557" d="M309.763,325.106h5.229l8.753-48.661h-5.229Z" transform="translate(-203.84 -270.66)" fill="#263238"/>
        <path id="Path_558" data-name="Path 558" d="M375.006,325.106h5.229l8.753-48.661h-5.229Z" transform="translate(-217.165 -270.66)" fill="#fff" opacity="0.3"/>
        <path id="Path_559" data-name="Path 559" d="M309.763,325.106h5.229l8.753-48.661h-5.229Z" transform="translate(-203.84 -270.66)" fill="#fff" opacity="0.3"/>
        <path id="Path_560" data-name="Path 560" d="M233.171,278.283H370.5l1.638-9.107H234.809Z" transform="translate(-188.198 -269.176)" fill="#263238"/>
        <path id="Path_561" data-name="Path 561" d="M229.447,298.985H366.774l1.638-9.107H231.086Z" transform="translate(-187.437 -273.404)" fill="#263238"/>
        <path id="Path_562" data-name="Path 562" d="M225.724,319.688H363.05l1.638-9.107H227.362Z" transform="translate(-186.677 -277.632)" fill="#263238"/>
        <rect id="Rectangle_46" data-name="Rectangle 46" width="175.013" height="6.3" transform="translate(175.013 59.311) rotate(180)" fill="#263238"/>
        <path id="Path_563" data-name="Path 563" d="M233.171,278.283H370.5l1.638-9.107H234.809Z" transform="translate(-188.198 -269.176)" fill="#fff" opacity="0.5"/>
        <path id="Path_564" data-name="Path 564" d="M229.447,298.985H366.774l1.638-9.107H231.086Z" transform="translate(-187.437 -273.404)" fill="#fff" opacity="0.5"/>
        <path id="Path_565" data-name="Path 565" d="M225.724,319.688H363.05l1.638-9.107H227.362Z" transform="translate(-186.677 -277.632)" fill="#fff" opacity="0.5"/>
        <rect id="Rectangle_47" data-name="Rectangle 47" width="175.013" height="6.3" transform="translate(175.013 59.311) rotate(180)" fill="#fff" opacity="0.5"/>
        <rect id="Rectangle_48" data-name="Rectangle 48" width="132.043" height="6.3" transform="translate(132.043 59.311) rotate(180)" fill="#fff" opacity="0.2"/>
      </g>
      <g id="Group_169" data-name="Group 169" transform="translate(28.709)">
        <path id="Path_566" data-name="Path 566" d="M314.471,250.819s-11.9,12.9-15.147,12.4c-4.358-.663-13.852-11.742-13.852-11.742" transform="translate(-227.588 -213.052)" fill="none" stroke="#e9b376" stroke-linecap="round" stroke-linejoin="round" stroke-width="9.989"/>
        <path id="Path_567" data-name="Path 567" d="M316.543,245.249v11.4s-2.412,2.005-5.371,4.218c-1.481,1.106-3.1,2.26-4.607,3.239-2.3,1.5-4.37,2.594-5.42,2.531-3.135-.191-9.938-5.053-9.938-5.053l4.472-7.448s5.141,3.143,5.466,3.358S312.253,245.321,316.543,245.249Z" transform="translate(-228.759 -211.915)" fill="#fcb041"/>
        <path id="Path_568" data-name="Path 568" d="M315.113,263.386c-1.481,1.106-3.1,2.26-4.607,3.239.358-6.541,3.438-9.056,3.438-9.056A11.361,11.361,0,0,1,315.113,263.386Z" transform="translate(-232.701 -214.431)" opacity="0.2"/>
        <path id="Path_569" data-name="Path 569" d="M327.555,206.913c-5.491,4.481-4.846,17.372,1.327,25.831,0,0,13.178,1.1,20.5-2.172s-.771-24.15-8.508-25.793A18.448,18.448,0,0,0,327.555,206.913Z" transform="translate(-235.419 -203.565)" fill="#263238"/>
        <path id="Path_570" data-name="Path 570" d="M328.463,220.106c-2.011-3.474-4.01-12.836,4.359-15.729,10.448-3.611,15.132,3.051,16.034,9.654s-2.818,11.6-9.724,11.1S329.855,222.509,328.463,220.106Z" transform="translate(-236.008 -203.36)" fill="#263238"/>
        <path id="Path_571" data-name="Path 571" d="M314.744,254.895c-1.022,4.827.769,16.207,1.063,24.784l24.6,2.836c.006-2.692.5-6.593,2.106-12.79.923-3.63,2.238-8.05,4.044-13.476.266-.807.542-1.629.833-2.48a6.122,6.122,0,0,0-4.8-8.222c-1.03-.164-2.129-.309-3.251-.418a83.1,83.1,0,0,0-11.9-.632c-1.3.043-2.648.14-3.943.248C318.846,245.138,315.7,250.371,314.744,254.895Z" transform="translate(-233.503 -211.754)" fill="#263238"/>
        <g id="Group_158" data-name="Group 158" transform="translate(92.618 19.933)">
          <path id="Path_572" data-name="Path 572" d="M342.215,228.409c-1.239,3.772-2.884,10.717-.532,13.4,0,0-3.6-.737-11.547,3.614-2.059-3.315-.349-4.245-.349-4.245,4.4-.789,4.693-3.949,4.329-6.95Z" transform="translate(-329.121 -228.409)" fill="#ebb376"/>
          <path id="Path_573" data-name="Path 573" d="M340.2,231.394l-4.794,3.443a11.786,11.786,0,0,1,.1,2.123c1.661-.149,4.129-1.812,4.521-3.5A5.736,5.736,0,0,0,340.2,231.394Z" transform="translate(-330.403 -229.019)" opacity="0.2"/>
        </g>
        <g id="Group_159" data-name="Group 159" transform="translate(89.339 2.038)">
          <path id="Path_574" data-name="Path 574" d="M343.079,215.133c.085,6.3.255,8.96-2.67,12.415-4.4,5.2-12.151,3.923-14.116-2.221-1.768-5.531-1.61-14.9,4.339-17.854A8.589,8.589,0,0,1,343.079,215.133Z" transform="translate(-325.063 -206.048)" fill="#ffb573"/>
          <path id="Path_575" data-name="Path 575" d="M340.82,209.514c-1.746,2.188,2.231,9.08,5.363,10.254C352.273,217.76,346.031,202.984,340.82,209.514Z" transform="translate(-328.144 -206.317)" fill="#263238"/>
          <path id="Path_576" data-name="Path 576" d="M330.336,206.184c-2.315,1.019-4.489,5.371-4.771,7,3.442.258,12.312-3.722,12.312-3.722s6.252,1.151,2.889-1.673S330.336,206.184,330.336,206.184Z" transform="translate(-325.115 -205.921)" fill="#263238"/>
          <path id="Path_577" data-name="Path 577" d="M334.17,220.332c.038.51-.2.945-.535.969s-.635-.368-.673-.879.2-.945.535-.969S334.132,219.822,334.17,220.332Z" transform="translate(-326.625 -208.685)" fill="#263238"/>
          <path id="Path_578" data-name="Path 578" d="M326.921,220.875c.038.511-.2.945-.535.969s-.635-.368-.673-.879.2-.945.535-.969S326.883,220.365,326.921,220.875Z" transform="translate(-325.145 -208.796)" fill="#263238"/>
          <path id="Path_579" data-name="Path 579" d="M326.253,219.952,325,219.69S325.7,220.6,326.253,219.952Z" transform="translate(-325 -208.733)" fill="#263238"/>
          <path id="Path_580" data-name="Path 580" d="M329.9,221.9a13.67,13.67,0,0,1-1.575,3.394,2.2,2.2,0,0,0,1.845.205Z" transform="translate(-325.679 -209.185)" fill="#ed893e"/>
          <path id="Path_581" data-name="Path 581" d="M334.1,228.137a4.89,4.89,0,0,1-.747.113.151.151,0,0,1-.162-.138.155.155,0,0,1,.138-.162,4.034,4.034,0,0,0,3.177-1.827.151.151,0,1,1,.264.145A4.213,4.213,0,0,1,334.1,228.137Z" transform="translate(-326.672 -210.031)" fill="#263238"/>
          <path id="Path_582" data-name="Path 582" d="M349.136,223.688a4.6,4.6,0,0,1-2.2,2.741c-1.42.766-2.484-.419-2.387-1.944.088-1.374.934-3.427,2.5-3.565A2.068,2.068,0,0,1,349.136,223.688Z" transform="translate(-328.991 -208.983)" fill="#ffb573"/>
          <path id="Path_583" data-name="Path 583" d="M337.231,218.145a.3.3,0,0,1-.325-.137,3.551,3.551,0,0,0-2.521-1.334.3.3,0,1,1,.043-.6,4.11,4.11,0,0,1,2.992,1.622.3.3,0,0,1-.1.413A.284.284,0,0,1,337.231,218.145Z" transform="translate(-326.86 -207.995)" fill="#263238"/>
          <path id="Path_584" data-name="Path 584" d="M325.461,217.372a.3.3,0,0,1-.276-.51,2.986,2.986,0,0,1,2.612-.838.3.3,0,0,1-.135.586h0a2.383,2.383,0,0,0-2.062.687A.3.3,0,0,1,325.461,217.372Z" transform="translate(-325.019 -207.976)" fill="#263238"/>
          <path id="Path_585" data-name="Path 585" d="M333.5,219.408l-1.253-.261S332.95,220.057,333.5,219.408Z" transform="translate(-326.48 -208.622)" fill="#263238"/>
        </g>
        <path id="Path_586" data-name="Path 586" d="M305.693,247.57l.6,1.864a2.277,2.277,0,0,0,1.474,1.475l3.276,1.049a4.247,4.247,0,0,0,3.842-.645l.682-.511c-.777-3.16-3.945-6-3.945-6l-.813-.91a1.894,1.894,0,0,0-2.687-.214l-1.825,1.588A2.182,2.182,0,0,0,305.693,247.57Z" transform="translate(-231.696 -211.499)" fill="#ebb376"/>
        <path id="Path_587" data-name="Path 587" d="M278.007,249.716l.6,1.865a2.28,2.28,0,0,0,1.475,1.475l3.276,1.049a4.245,4.245,0,0,0,3.842-.645l.681-.511c-.777-3.16-3.945-6-3.945-6l-.812-.91a1.894,1.894,0,0,0-2.686-.214l-1.826,1.588A2.182,2.182,0,0,0,278.007,249.716Z" transform="translate(-226.041 -211.937)" fill="#ebb376"/>
        <path id="Path_588" data-name="Path 588" d="M337.72,261.2c1.582,4.662,5.621,8.141,9.489,10.2.923-3.63,2.238-8.05,4.044-13.476-2.426-3.394-5.825-5.8-10.148-5.153C341.1,252.772,336.117,256.48,337.72,261.2Z" transform="translate(-238.194 -213.429)" opacity="0.2"/>
        <g id="Group_160" data-name="Group 160" transform="translate(12.205 69.971)">
          <path id="Path_589" data-name="Path 589" d="M228.07,361.608l4.152,1.677s35.3-53.242,38.565-51.241c11.833,7.249,36.159,20.2,47.672,12.358s4.678-28.528,4.678-28.528-22.388-7.858-25.154-3a37.054,37.054,0,0,0-1.9,4.476c-.578,1.539-1.024,2.84-1.024,2.84a.025.025,0,0,1-.014-.011c-.677-.321-22.624-10.878-32.96-6.53C251.583,298.074,228.07,361.608,228.07,361.608Z" transform="translate(-228.07 -291.288)" fill="#ebb376"/>
        </g>
        <path id="Path_590" data-name="Path 590" d="M312.738,331.755s-11.1.726-26.308-4.441c0,0-3.749,42.4-6.265,65.409l-5.1-.718s-8.664-62.812-6.95-70.47,10.982-8.161,10.982-8.161S296.841,326.394,312.738,331.755Z" transform="translate(-223.997 -225.828)" fill="#ebb376"/>
        <path id="Path_591" data-name="Path 591" d="M318.549,334.219a82.678,82.678,0,0,1-22.205-2.745l1.444-6.033C303.386,329.127,311.178,331.376,318.549,334.219Z" transform="translate(-229.809 -228.293)" fill="#294844"/>
        <path id="Path_593" data-name="Path 593" d="M296.64,324.654l-1.332,6.713,2.026.69,1.557-5.927Z" transform="translate(-229.597 -228.132)" fill="#6cafa5"/>
        <g id="Group_161" data-name="Group 161" transform="translate(8.001 134.525)">
          <path id="Path_596" data-name="Path 596" d="M222.842,374.678a.673.673,0,0,1,.158-.75.751.751,0,0,1,.54-.274,2.857,2.857,0,0,1,1.5.5c-.39-.515-.688-1.06-.554-1.4.088-.224.312-.338.666-.342a1.073,1.073,0,0,1,.834.358,4.059,4.059,0,0,1,.541,2.563.182.182,0,0,1-.057.118.173.173,0,0,1-.059.037h0a.193.193,0,0,1-.065.013,11.97,11.97,0,0,1-2.219-.172C223.525,375.209,223,375.011,222.842,374.678Zm.731-.656a.388.388,0,0,0-.284.138c-.179.22-.131.322-.114.356.186.385,1.515.572,2.636.608A4.566,4.566,0,0,0,223.572,374.022Zm1.582-1.242c-.106,0-.289.017-.325.108-.116.294.566,1.209,1.344,2a3.055,3.055,0,0,0-.461-1.872.7.7,0,0,0-.388-.223A.783.783,0,0,0,225.154,372.78Z" transform="translate(-222.787 -372.41)" fill="#263238"/>
        </g>
        <g id="Group_162" data-name="Group 162" transform="translate(45.877 159.386)">
          <path id="Path_597" data-name="Path 597" d="M270.6,406.809a.675.675,0,0,1-.179-.746.749.749,0,0,1,.369-.478,2.874,2.874,0,0,1,1.57-.191c-.574-.3-1.078-.661-1.1-1.03-.016-.24.137-.44.454-.6a1.079,1.079,0,0,1,.906-.036c.955.384,1.563,2.009,1.59,2.083a.175.175,0,0,1,.01.086h0a.17.17,0,0,1-.01.04h0a.191.191,0,0,1-.086.1h0l-.006,0a8.661,8.661,0,0,1-2.918.924A.945.945,0,0,1,270.6,406.809Zm.378-.906a.387.387,0,0,0-.2.247c-.067.276.021.347.05.37.333.267,1.614-.134,2.642-.583A4.571,4.571,0,0,0,270.974,405.9Zm.9-1.8c-.1.046-.255.139-.247.237.022.315,1.031.848,2.074,1.23a3.057,3.057,0,0,0-1.22-1.493.712.712,0,0,0-.606.025Z" transform="translate(-270.384 -403.651)" fill="#263238"/>
        </g>
        <path id="Path_598" data-name="Path 598" d="M231.71,378.725c.227-.524-6.328-3.054-6.328-3.054s-5.755,2.178-9.974,1.318-3.145,2.4,1.108,4.366l10.522,4.853C230.06,387.6,229.358,384.156,231.71,378.725Z" transform="translate(-212.733 -238.551)" fill="#232323"/>
        <path id="Path_599" data-name="Path 599" d="M280.345,405.492c-.021-.571-7.027-.039-7.027-.039s-4.261,4.44-8.439,5.476-1.807,3.523,2.877,3.466l11.586-.138C282.668,414.216,280.555,411.406,280.345,405.492Z" transform="translate(-222.941 -244.587)" fill="#232323"/>
        <g id="Group_163" data-name="Group 163" transform="translate(69.839 69.971)">
          <path id="Path_600" data-name="Path 600" d="M337.928,295.873s-22.388-7.858-25.154-3a37.094,37.094,0,0,0-1.9,4.475c-.579,1.54-1.023,2.841-1.023,2.841a.025.025,0,0,1-.014-.011L308,299.337l-7.5,22.387c11.925,6.614,28.787,7.383,35.692,2.678C347.7,316.565,337.928,295.873,337.928,295.873Z" transform="translate(-300.496 -291.288)" fill="#427069"/>
        </g>
        <path id="Path_602" data-name="Path 602" d="M312.247,301.746l12.92,5.48s-6.632-5.591-11.9-8.321C312.693,300.445,312.247,301.746,312.247,301.746Z" transform="translate(-233.057 -222.873)" opacity="0.3" style="mix-blend-mode: normal;isolation: isolate"/>
        <g id="Group_166" data-name="Group 166" transform="translate(81.798 66.645)">
          <path id="Path_603" data-name="Path 603" d="M315.524,292.636l.452-5.527L341,290.435l.332,5.335Z" transform="translate(-315.524 -287.109)" fill="#487d75"/>
          <g id="Group_165" data-name="Group 165" transform="translate(0.32 0.542)">
            <path id="Path_605" data-name="Path 605" d="M316.108,287.789l1.305.191-.406,4.305-1.082-.127Z" transform="translate(-315.926 -287.789)" fill="#263238"/>
            <path id="Path_606" data-name="Path 606" d="M319.253,288.249l14.109,2.053L333,294.218l-14.141-1.687Z" transform="translate(-316.524 -287.883)" fill="#263238"/>
            <path id="Path_607" data-name="Path 607" d="M345.628,295.826l-7.433-.883.358-3.883h.008l6.708.971Z" transform="translate(-320.474 -288.457)" fill="#263238"/>
            <path id="Path_608" data-name="Path 608" d="M316.108,287.789l1.305.191-.406,4.305-1.082-.127Z" transform="translate(-315.926 -287.789)" opacity="0.2" style="mix-blend-mode: normal;isolation: isolate"/>
            <path id="Path_609" data-name="Path 609" d="M319.253,288.249l14.109,2.053L333,294.218l-14.141-1.687Z" transform="translate(-316.524 -287.883)" opacity="0.2" style="mix-blend-mode: normal;isolation: isolate"/>
            <path id="Path_610" data-name="Path 610" d="M345.628,295.826l-7.433-.883.358-3.883h.008l6.708.971Z" transform="translate(-320.474 -288.457)" opacity="0.2" style="mix-blend-mode: normal;isolation: isolate"/>
          </g>
          <rect id="Rectangle_49" data-name="Rectangle 49" width="5.545" height="4.205" rx="0.937" transform="translate(11.165 6.34) rotate(-172.459)" fill="none" stroke="#fff" stroke-linecap="round" stroke-linejoin="round" stroke-width="1"/>
          <line id="Line_2" data-name="Line 2" x2="1.417" y2="0.224" transform="translate(9.291 3.892)" fill="none" stroke="#fff" stroke-linecap="round" stroke-linejoin="round" stroke-width="1"/>
        </g>
        <g id="Group_167" data-name="Group 167" transform="translate(68.311 76.472)">
          <path id="Path_611" data-name="Path 611" d="M306.534,299.458l2.086,1.1L301.546,324.6l-2.97-.589Z" transform="translate(-298.576 -299.458)" fill="#6db0a6"/>
          <path id="Path_612" data-name="Path 612" d="M306.534,299.458l2.086,1.1L301.546,324.6l-2.97-.589Z" transform="translate(-298.576 -299.458)" fill="#6db0a6" opacity="0.6" style="mix-blend-mode: normal;isolation: isolate"/>
        </g>
        <g id="Group_168" data-name="Group 168" transform="translate(53.293 26.468)">
          <path id="Path_613" data-name="Path 613" d="M301.011,262.346H283.478a1.363,1.363,0,0,1-1.329-1.229l-2.441-23.268a1.108,1.108,0,0,1,1.117-1.229h17.532a1.364,1.364,0,0,1,1.329,1.229l2.441,23.268A1.107,1.107,0,0,1,301.011,262.346Z" transform="translate(-279.703 -236.62)" fill="#263238"/>
          <path id="Path_614" data-name="Path 614" d="M301.011,262.346H283.478a1.363,1.363,0,0,1-1.329-1.229l-2.441-23.268a1.108,1.108,0,0,1,1.117-1.229h17.532a1.364,1.364,0,0,1,1.329,1.229l2.441,23.268A1.107,1.107,0,0,1,301.011,262.346Z" transform="translate(-279.703 -236.62)" fill="#fff" opacity="0.6"/>
          <path id="Path_615" data-name="Path 615" d="M300.278,262.346h-16.8a1.363,1.363,0,0,1-1.329-1.229l-2.441-23.268a1.108,1.108,0,0,1,1.117-1.229h16.8a1.363,1.363,0,0,1,1.329,1.229l2.441,23.268A1.107,1.107,0,0,1,300.278,262.346Z" transform="translate(-279.703 -236.62)" fill="#fff" opacity="0.2"/>
          <path id="Path_616" data-name="Path 616" d="M292.266,250.394a1.714,1.714,0,0,0-1.729,1.9,2.111,2.111,0,0,0,2.059,1.9,1.714,1.714,0,0,0,1.729-1.9A2.111,2.111,0,0,1,292.266,250.394Z" transform="translate(-281.914 -239.433)" fill="#263238"/>
          <path id="Path_617" data-name="Path 617" d="M294.682,238.468h-9.26a1.228,1.228,0,0,1-1.086-.7l-.555-1.148H296l-.357,1.148A.993.993,0,0,1,294.682,238.468Z" transform="translate(-280.536 -236.62)" opacity="0.3"/>
        </g>
        <path id="Path_618" data-name="Path 618" d="M350.74,293.488h-3.254s-4.066-12.207-6.438-22.552a75.043,75.043,0,0,1-1.52-8.3,23.793,23.793,0,0,1,.788-9.215,23.085,23.085,0,0,1,4.121-8.133l-.66-.04c6.16-.064,9.486,2.069,9.9,5.9s-6.4,26.595-6.716,29.634S350.74,293.488,350.74,293.488Z" transform="translate(-238.599 -211.914)" fill="#fcb041"/>
        <path id="Path_619" data-name="Path 619" d="M324.437,244.708s-6.513,10.264-8.258,14.63-.744,16.852-.744,16.852-3.333-15.029-1.188-22.48S320.1,244.729,324.437,244.708Z" transform="translate(-233.318 -211.804)" fill="#fcb041"/>
        <path id="Path_620" data-name="Path 620" d="M343.865,253.162s-9.64,14.345-14.052,12.65c-5.64-2.169-14.29-14.159-14.29-14.159" transform="translate(-233.726 -213.222)" fill="none" stroke="#e9b376" stroke-linecap="round" stroke-linejoin="round" stroke-width="9.989"/>
        <path id="Path_621" data-name="Path 621" d="M351.17,258.091s-5.729,9.772-10.121,13.918a75.045,75.045,0,0,1-1.52-8.3,23.793,23.793,0,0,1,.788-9.215c1.822-1.5,3.621-2.984,4.536-3.74C347.112,248.868,351.17,258.091,351.17,258.091Z" transform="translate(-238.599 -212.987)" opacity="0.2"/>
        <path id="Path_622" data-name="Path 622" d="M348.4,248.5c3,1.616,2.09,5.951-1.841,11.093s-11.045,12.086-14.781,10.818-7.966-6.237-7.966-6.237l2.725-7.7s5.36,4.066,6.476,3.856,6.57-7.269,8.145-9.459S345.148,246.747,348.4,248.5Z" transform="translate(-235.419 -212.44)" fill="#fcb041"/>
        <path id="Path_623" data-name="Path 623" d="M283.49,248.69l-.114,1.527a1.752,1.752,0,0,1-1.49,1.6l-2.076.308.491-5.6,1.734.308A1.753,1.753,0,0,1,283.49,248.69Z" transform="translate(-226.432 -212.175)" fill="#ffb573"/>
      </g>
    </g>
  </g>
</svg>
