<svg xmlns="http://www.w3.org/2000/svg" xmlns:xlink="http://www.w3.org/1999/xlink" width="393" height="406" viewBox="0 0 393 406">
  <defs>
    <clipPath id="clip-path">
      <rect id="Rectangle_26928" data-name="Rectangle 26928" width="393" height="406" transform="translate(0 104)" fill="#fff"/>
    </clipPath>
    <linearGradient id="linear-gradient" x1="0.818" y1="0.936" x2="-0.134" y2="-0.302" gradientUnits="objectBoundingBox">
      <stop offset="0" stop-color="#427069"/>
      <stop offset="1" stop-color="#294641"/>
    </linearGradient>
    <linearGradient id="linear-gradient-2" x1="0.034" y1="1.029" x2="1.196" y2="-0.314" gradientUnits="objectBoundingBox">
      <stop offset="0" stop-color="#fcb041"/>
      <stop offset="1" stop-color="#427069"/>
    </linearGradient>
    <linearGradient id="linear-gradient-3" x1="168.615" y1="-0.382" x2="169.623" y2="-0.382" gradientUnits="objectBoundingBox">
      <stop offset="0" stop-color="#f9b776"/>
      <stop offset="1" stop-color="#f47960"/>
    </linearGradient>
    <linearGradient id="linear-gradient-4" x1="187.941" y1="-0.148" x2="188.955" y2="-0.148" xlink:href="#linear-gradient-3"/>
    <linearGradient id="linear-gradient-5" x1="35.01" y1="0.34" x2="36.004" y2="0.34" xlink:href="#linear-gradient-3"/>
    <linearGradient id="linear-gradient-6" x1="-45.533" y1="0.288" x2="-45.901" y2="2.042" xlink:href="#linear-gradient-3"/>
    <linearGradient id="linear-gradient-7" x1="259.666" y1="-0.084" x2="261.668" y2="-1.865" xlink:href="#linear-gradient-3"/>
    <linearGradient id="linear-gradient-8" x1="24.625" y1="0.25" x2="25.627" y2="0.25" xlink:href="#linear-gradient-3"/>
    <linearGradient id="linear-gradient-9" x1="63.969" y1="0.183" x2="64.96" y2="0.183" xlink:href="#linear-gradient-3"/>
    <linearGradient id="linear-gradient-10" x1="2.74" y1="29.563" x2="2.416" y2="28.498" xlink:href="#linear-gradient-3"/>
    <linearGradient id="linear-gradient-11" x1="5.728" y1="139.835" x2="4.781" y2="135.223" xlink:href="#linear-gradient-3"/>
    <linearGradient id="linear-gradient-12" x1="79.383" y1="0.5" x2="80.383" y2="0.5" xlink:href="#linear-gradient-3"/>
    <linearGradient id="linear-gradient-13" x1="5.739" y1="0.662" x2="3.688" y2="3.761" gradientUnits="objectBoundingBox">
      <stop offset="0" stop-color="#fdf53f"/>
      <stop offset="1" stop-color="#d93c65"/>
    </linearGradient>
    <linearGradient id="linear-gradient-14" x1="3.606" y1="0.312" x2="1.554" y2="3.411" xlink:href="#linear-gradient-13"/>
    <linearGradient id="linear-gradient-15" x1="4.547" y1="0.46" x2="2.495" y2="3.559" xlink:href="#linear-gradient-13"/>
  </defs>
  <g id="Mask_Group_7" data-name="Mask Group 7" transform="translate(0 -104)" clip-path="url(#clip-path)">
    <g id="Group_138" data-name="Group 138" transform="translate(0 6)">
      <g id="Ellipse_34" data-name="Ellipse 34" transform="translate(269 98)" fill="none" stroke="#427069" stroke-width="2" stroke-dasharray="10">
        <circle cx="86" cy="86" r="86" stroke="none"/>
        <circle cx="86" cy="86" r="85" fill="none"/>
      </g>
      <g id="Group_136" data-name="Group 136">
        <g id="Ellipse_32" data-name="Ellipse 32" transform="translate(183 128)" fill="none" stroke="#427069" stroke-width="2" stroke-dasharray="10">
          <circle cx="122" cy="122" r="122" stroke="none"/>
          <circle cx="122" cy="122" r="121" fill="none"/>
        </g>
        <g id="Group_135" data-name="Group 135">
          <path id="Path_383" data-name="Path 383" d="M815.343,752.112a124.406,124.406,0,0,1-19.036,16.027c-62.1,44.556-135.575,31.568-151.191,28.4-23.06-4.684-67.635-13.737-99.861-51.635-48.756-57.336-41.164-147.668-3.346-207.3,6.918-10.907,43.458-71.445,117.728-81.153,44.947-5.875,97.34,5.974,135.282,37.762C874.563,560.939,868.893,695.736,815.343,752.112Z" transform="translate(-486.829 -303.883)" fill="#f4f5f9"/>
          <g id="Group_111" data-name="Group 111" transform="translate(20.671 271.934)">
            <path id="Path_384" data-name="Path 384" d="M483.146,1399.812c-.6-1.3,1.139-2.6,2.509-1.883,13.914,7.265,48.508,30.453,51.641,82.608,3.931,65.436,23.987,85.535,45.962,95.818,0,0-27.585-1.336-48.869-21.541C482.132,1505.205,493.779,1422.942,483.146,1399.812Z" transform="translate(-483.025 -1397.725)" fill="#fcb041"/>
            <path id="Path_385" data-name="Path 385" d="M586.193,1551c2.932,6.779,5.705,13.612,8.182,20.538q3.779,10.368,6.809,20.951c1.985,7.06,3.816,14.159,5.293,21.333,1.515,7.166,2.672,14.4,3.8,21.664a198.9,198.9,0,0,0,4.326,21.764,65.771,65.771,0,0,0,9.462,20.49c1.109,1.563,2.256,3.112,3.5,4.582,1.212,1.492,2.5,2.934,3.826,4.353a79.37,79.37,0,0,0,8.669,7.948,87.244,87.244,0,0,0,21.015,12,1.824,1.824,0,0,0,2.207-.715,1.292,1.292,0,0,0-.65-1.873l-.006,0c-1.824-.8-3.633-1.612-5.39-2.5-.888-.43-1.749-.894-2.622-1.344-.85-.479-1.723-.928-2.553-1.43A79.137,79.137,0,0,1,627.173,1676a64.194,64.194,0,0,1-5.437-9.458,70.66,70.66,0,0,1-3.762-10.176,196.713,196.713,0,0,1-4.447-21.443c-1.25-7.243-2.563-14.511-4.22-21.7q-1.226-5.4-2.675-10.741c-.471-1.784-.982-3.558-1.49-5.332q-.791-2.654-1.621-5.3-3.353-10.558-7.458-20.874c-2.776-6.859-5.765-13.64-9.054-20.295a.447.447,0,0,0-.575-.176A.387.387,0,0,0,586.193,1551Z" transform="translate(-572.948 -1530.89)" fill="#fff" style="mix-blend-mode: soft-light;isolation: isolate"/>
          </g>
          <g id="Group_113" data-name="Group 113" transform="translate(60.131 265.652)">
            <g id="Group_112" data-name="Group 112" transform="translate(0 0)">
              <path id="Path_386" data-name="Path 386" d="M823.039,1488.569a3.069,3.069,0,0,1-5,1c-8.563-8.443-30.614-34.506-26.636-75.829,3.359-34.9,1.864-54.137.58-62.824a1.925,1.925,0,0,1,3.27-1.636C809.7,1363.812,852.971,1415.487,823.039,1488.569Z" transform="translate(-790.932 -1348.709)" fill="#fcb041"/>
              <path id="Path_387" data-name="Path 387" d="M900.62,1755.224a.852.852,0,0,1-1.24-.434c-.183-.5-18.326-50.57-15.847-99.3a.851.851,0,0,1,1.7.087c-2.461,48.376,15.562,98.131,15.745,98.628A.851.851,0,0,1,900.62,1755.224Z" transform="translate(-871.462 -1615.469)" fill="#fff" style="mix-blend-mode: soft-light;isolation: isolate"/>
            </g>
          </g>
          <g id="Group_114" data-name="Group 114" transform="translate(78.051 151.779)">
            <path id="Path_388" data-name="Path 388" d="M931.177,478.167c-.336,54.421-1.259,242.136,1.525,308.61.295,7.042,5.207,12.625,11.233,12.765,29.8.693,139.034,1.945,187.717-1.178,10.14-.651,18.065-10.387,18.1-22.269.156-57.119-.021-217.764-6.435-291.26-.769-8.806-6.788-15.738-14.326-16.505-32.494-3.309-142.292-10.943-184.334-7.116C937.071,461.905,931.232,469.268,931.177,478.167Z" transform="translate(-930.758 -460.166)" fill="url(#linear-gradient)"/>
            <path id="Path_389" data-name="Path 389" d="M1023.775,627.358c-.944,43.936-3.808,190.1-1.393,244.092.353,7.892,5.768,14.2,12.517,14.557,27.786,1.484,122.553,4.253,163.21-.173,7.321-.8,12.969-7.819,13.236-16.417,1.391-44.83,5.273-180.944,2.933-234.335-.373-8.517-6.12-15.391-13.39-16.045-30.077-2.7-130.823-8.7-165.387-5.97C1029.013,613.578,1023.939,619.751,1023.775,627.358Z" transform="translate(-1009.816 -592.865)" fill="url(#linear-gradient-2)"/>
            <path id="Path_390" data-name="Path 390" d="M1690.243,520.472h0a2.964,2.964,0,0,0,2.584,3.1c7.042.326,26.877,1.247,35.743,1.716,1.748.092,3.091-1.765,2.73-3.769l-.062-.342a2.881,2.881,0,0,0-2.424-2.495c-5.586-.514-23.675-2.084-36.049-1.381A2.954,2.954,0,0,0,1690.243,520.472Z" transform="translate(-1592.909 -509.82)" fill="#4d877e"/>
          </g>
          <g id="Group_120" data-name="Group 120" transform="translate(255.916 279.813)">
            <path id="Path_391" data-name="Path 391" d="M2696.856,3102.241s.821,4.4,1.244,8.759a3.006,3.006,0,0,1-2.844,3.284c-5.807.3-18.23.886-22.691.73a.977.977,0,0,1-.874-1.331,2.189,2.189,0,0,1,1.108-1.19l20.438-9.63Z" transform="translate(-2626.384 -2891.673)" fill="#232323"/>
            <path id="Path_392" data-name="Path 392" d="M2828.194,3076.788l-.575,5.277s-3.58,1.708-6.054-.153l1.433-5.889Z" transform="translate(-2757.108 -2868.814)" fill="url(#linear-gradient-3)"/>
            <path id="Path_393" data-name="Path 393" d="M2829.391,2307.731c.283,1.374,2.105,68.683-4.8,98.92a1.024,1.024,0,0,0,.612,1.186,17.835,17.835,0,0,0,5.872,1.135,1.764,1.764,0,0,0,1.737-1.282c1.99-7.019,11.512-42.183,12.479-75.7,1.08-37.448-.012-1.275-.012-1.275l-1.063-23.131Z" transform="translate(-2759.721 -2198.858)" fill="#427069"/>
            <path id="Path_394" data-name="Path 394" d="M2997.481,3118.425s1.261,2.213,2.517,8.113a1.834,1.834,0,0,1-1.593,2.212c-1.917.207-4.868.478-7.234.484a1.829,1.829,0,0,1-1.83-2.022,15.42,15.42,0,0,1,3.52-8.493Z" transform="translate(-2903.374 -2905.782)" fill="#232323"/>
            <path id="Path_395" data-name="Path 395" d="M3022.233,3063.659l-1.385,7.986s-1.435,1.089-4.3.337l.616-8.584Z" transform="translate(-2927.102 -2857.807)" fill="url(#linear-gradient-4)"/>
            <path id="Path_396" data-name="Path 396" d="M2886.587,2299.251c6.224,35.463-.439,87.8-2.757,98.053a1.6,1.6,0,0,1-1.277,1.224,10.714,10.714,0,0,1-4.605-.14,1.463,1.463,0,0,1-1.064-1.336c-.4-8.268-.3-59.048-5.979-79.062a4.559,4.559,0,0,0-1.782-2.5l-10.716-7.465-.933-12.223Z" transform="translate(-2788.416 -2188.585)" fill="#427069"/>
            <g id="Group_115" data-name="Group 115" transform="translate(7.682 16.878)">
              <path id="Path_397" data-name="Path 397" d="M2614.628,1781.913c17.635-.46,37.142,4.277,37.142,4.277,5.55,30.626,1.55,66.051,1.55,66.051-13.621,3.711-29.078-1.912-29.078-1.912-2.392-12.8-13.325-48.785-13.325-48.785a58.111,58.111,0,0,1-21.628-6.637c4.41-5.212,6.449-11.809,7.325-15.705A59.185,59.185,0,0,0,2614.628,1781.913Z" transform="translate(-2562.283 -1755.069)" fill="#fcb041"/>
              <path id="Path_398" data-name="Path 398" d="M2378.56,1592.26a3.374,3.374,0,0,1,3.915-1.14c2.7,10.939,16.394,19.7,30.417,23.91-.876,3.9-2.915,10.494-7.325,15.705C2382.238,1617.91,2378.56,1592.26,2378.56,1592.26Z" transform="translate(-2378.56 -1590.897)" fill="url(#linear-gradient-5)"/>
            </g>
            <g id="Group_116" data-name="Group 116" transform="translate(0 0)">
              <path id="Path_399" data-name="Path 399" d="M2326.726,1477.966c-.176.578,1.932,1.436,3.145-.933.033-1.13.673-5.977-.01-6.891-3.642-4.867-10.671-10.945-10.671-10.945a1.659,1.659,0,0,0-.186,2.306l3.415,3.49a16.362,16.362,0,0,0-1.937,3.922,4.74,4.74,0,0,0,.506,3.483c.6,1.064,1.427,2.446,2.2,3.527A4.68,4.68,0,0,0,2326.726,1477.966Z" transform="translate(-2318.618 -1459.197)" fill="url(#linear-gradient-6)"/>
              <path id="Path_400" data-name="Path 400" d="M2355.412,1522.152l3.107,2.583.992,2.592-2.718,3.074s-.973-5.151-1.67-6.262S2354.776,1522.485,2355.412,1522.152Z" transform="translate(-2350.111 -1514.084)" fill="url(#linear-gradient-7)"/>
            </g>
            <path id="Path_401" data-name="Path 401" d="M3025.309,1850.876l6.6-17.143s16.581,11.036,19.426,25.2a39,39,0,0,0-14.285,3.975C3035.77,1856.221,3025.309,1850.876,3025.309,1850.876Z" transform="translate(-2934.741 -1785.733)" fill="#fcb041"/>
            <path id="Path_402" data-name="Path 402" d="M2897.813,2038.534s18.6,10.277,24.752,1.291a7.013,7.013,0,0,0,1.235-5.464,38.986,38.986,0,0,1,14.284-3.975,19.589,19.589,0,0,1-2,13.448c-10.742,20.1-40.675-.717-40.675-.717Z" transform="translate(-2821.489 -1957.185)" fill="url(#linear-gradient-8)"/>
            <path id="Path_403" data-name="Path 403" d="M2847.633,1687.3l5.767,16.176a.584.584,0,0,1-.259.707c-1.522.86-7.01,3.358-13.692-.79a2.755,2.755,0,0,1-1.287-1.955l-1.951-14.029Z" transform="translate(-2769.877 -1658.068)" fill="url(#linear-gradient-9)"/>
            <g id="Group_117" data-name="Group 117" transform="translate(60.106 5.882)">
              <path id="Path_404" data-name="Path 404" d="M2792.913,1570.942s-6.051,11.659-5.217,16.337,8.469,4.269,15.1.4l4.541-12.57Z" transform="translate(-2787.617 -1562.503)" fill="url(#linear-gradient-10)"/>
              <path id="Path_405" data-name="Path 405" d="M2816.833,1524.121a.478.478,0,0,1-.215-.7,12.486,12.486,0,0,0,1.68-3.656s1.1-.72-2.835-1.623-9.808-2.306-11.071-5.637c-1.231-3.248,1.844-11.475,6.938-4.992a.478.478,0,0,0,.758,0c.814-1.081,2.962-3.33,5.985-2.008,2.829,1.237,3.166,3.3,3.137,4.34a.475.475,0,0,0,.568.481,5.514,5.514,0,0,1,6.467,2.94c1.342,2.876.5,4.519-.267,5.326a.477.477,0,0,0,.212.789,2.869,2.869,0,0,1,2.055,3.255c-.138,3.033-3.531,2.8-4.5,2.67a.477.477,0,0,0-.423.154c-.819.924-4.511,4.848-8.542,5.355a.482.482,0,0,1-.512-.632l1.7-5.093a.481.481,0,0,0-.266-.593Z" transform="translate(-2802.005 -1505.093)" fill="#141414"/>
              <path id="Path_406" data-name="Path 406" d="M2888.792,1648.865s4.359-3.052,4.7-.52-3.916,3.71-6.041,2.785Z" transform="translate(-2874.659 -1629.11)" fill="url(#linear-gradient-11)"/>
            </g>
            <g id="Group_119" data-name="Group 119" transform="translate(33.755 59.275)">
              <g id="Group_118" data-name="Group 118">
                <path id="Path_407" data-name="Path 407" d="M2628.375,1960.03l-10.13-35.377a1.031,1.031,0,0,0-.873-.743c-1.835-.214-7.153-.815-13.294-1.335-7.4-.625-15.986-1.132-21.119-.7a1.035,1.035,0,0,0-.846,1.489c2.918,5.905,14.925,29.926,20.937,37.795a1.038,1.038,0,0,0,.835.41l23.5-.219A1.035,1.035,0,0,0,2628.375,1960.03Z" transform="translate(-2582.005 -1921.714)" fill="#25403c"/>
                <path id="Path_408" data-name="Path 408" d="M2839.563,2071.944s1.412-5.8.842-7.861-1.672-4.706-5.348-4.117a53.824,53.824,0,0,0-8.013,2.137,2.1,2.1,0,0,0,3.013,1.816l-1.732,1.341s.247,2.147,2.607,1l-1.611,1.778a1.878,1.878,0,0,0,2.75.632C2833.807,2067.538,2834.639,2072.642,2839.563,2071.944Z" transform="translate(-2795.64 -2042.174)" fill="url(#linear-gradient-12)"/>
              </g>
              <path id="Path_409" data-name="Path 409" d="M2719.051,1990.613a2.974,2.974,0,1,1-2.974-2.974A2.974,2.974,0,0,1,2719.051,1990.613Z" transform="translate(-2696.302 -1979.19)" fill="#427069"/>
              <path id="Path_410" data-name="Path 410" d="M2663.988,1950.569l-2.062-7a2.4,2.4,0,0,0-1.8-1.684c-6.464-1.349-24.158-1.635-24.336-1.637l.012-.791c.729.011,17.947.29,24.485,1.654a3.189,3.189,0,0,1,2.4,2.233l2.063,7Z" transform="translate(-2628.895 -1937.187)" fill="#fff"/>
            </g>
          </g>
          <rect id="Rectangle_33" data-name="Rectangle 33" width="73.089" height="27.7" rx="13.85" transform="translate(149.578 350.082)" fill="#fff" opacity="0.78"/>
          <g id="Group_122" data-name="Group 122" transform="translate(127.43 241.293)">
            <circle id="Ellipse_17" data-name="Ellipse 17" cx="40.672" cy="40.672" r="40.672" transform="translate(0 57.519) rotate(-45)" fill="#fff" opacity="0.78"/>
            <g id="Group_121" data-name="Group 121" transform="translate(39.237 28.466)">
              <path id="Path_411" data-name="Path 411" d="M1636.758,1439.851l-.08-4.424a36.086,36.086,0,0,1-12.463-2.468,2.559,2.559,0,0,1-1.469-3l1.049-4.141a2.58,2.58,0,0,1,3.471-1.751,29.956,29.956,0,0,0,11.505,2.207c4.442-.08,7.728-1.646,7.672-4.733-.05-2.786-2.64-4.4-8.844-5.941-8.853-2.251-15.247-5.977-15.386-13.731-.126-7,4.9-12.441,13.756-14.031l-.08-4.425a2.578,2.578,0,0,1,2.531-2.624l2.6-.047a2.578,2.578,0,0,1,2.624,2.531l.072,3.973a32.911,32.911,0,0,1,9.871,1.59,2.565,2.565,0,0,1,1.659,3.068l-.965,3.83a2.571,2.571,0,0,1-3.362,1.8,26.85,26.85,0,0,0-9.682-1.578c-5.271.1-6.737,2.306-6.7,4.263.044,2.409,3.236,4.008,10.125,5.994,9.841,2.76,13.98,6.752,14.112,14.056.121,6.7-4.74,12.814-14.35,14.494l.089,4.951a2.578,2.578,0,0,1-2.531,2.625l-2.6.047A2.579,2.579,0,0,1,1636.758,1439.851Z" transform="translate(-1622.213 -1380.743)" fill="#427069"/>
            </g>
          </g>
          <g id="Group_127" data-name="Group 127" transform="translate(20.074 382.324)">
            <path id="Path_412" data-name="Path 412" d="M478.418,2395.523c2.382-24.222,8.343-84.383,9.644-93.177,1.636-11.052,15.07-8.613,15.07-8.613l2.877,111.841H487.277a8.8,8.8,0,0,1-6.605-3.012A9.28,9.28,0,0,1,478.418,2395.523Z" transform="translate(-478.373 -2289.092)" fill="#232323"/>
            <path id="Path_413" data-name="Path 413" d="M719.634,2408.884A10.641,10.641,0,0,0,730,2397.98l-1.91-90.8a9.372,9.372,0,0,0-9.054-9.205l-130.719-3.91a6.909,6.909,0,0,0-7.086,6.957l.314,104.1a6.558,6.558,0,0,0,6.671,6.564Z" transform="translate(-568.048 -2289.583)" fill="#30504b"/>
            <g id="Group_123" data-name="Group 123" transform="translate(18.243 10.642)">
              <path id="Path_414" data-name="Path 414" d="M762.488,2443.15a3.1,3.1,0,0,0,2.994-3.584c-1.929-12.363-7.984-54.89-6.042-90.2a2.859,2.859,0,0,0-2.748-3.031l-131.308-4.223a3.285,3.285,0,0,0-3.378,3.174c-.558,14.845-2.638,75.976.083,97.706a2.6,2.6,0,0,0,2.616,2.285Z" transform="translate(-620.72 -2342.113)" fill="#427069"/>
              <path id="Path_415" data-name="Path 415" d="M772.917,2458.184a2.977,2.977,0,0,0,2.881-3.448c-1.856-11.9-7.684-52.823-5.814-86.8a2.752,2.752,0,0,0-2.644-2.917l-126.364-4.063a3.162,3.162,0,0,0-3.25,3.055c-.537,14.286-2.539,73.115.08,94.027a2.5,2.5,0,0,0,2.517,2.2Z" transform="translate(-634.467 -2358.537)" fill="#fff" opacity="0.6"/>
            </g>
            <path id="Path_416" data-name="Path 416" d="M997.587,2541.577l.193,9.174a2.5,2.5,0,0,1-2.474,2.562l-9.335.053a2.5,2.5,0,0,1-2.5-2.455l-.2-9.645a2.5,2.5,0,0,1,2.6-2.559l9.344.418A2.5,2.5,0,0,1,997.587,2541.577Z" transform="translate(-918.56 -2502.867)" fill="#fff" opacity="0.72"/>
            <path id="Path_417" data-name="Path 417" d="M1267.962,2562.518l-9.335.053a2.5,2.5,0,0,1-2.5-2.455l-.173-8.2a2.5,2.5,0,0,1,2.577-2.56l9.343.338a2.5,2.5,0,0,1,2.4,2.454l.164,7.812A2.5,2.5,0,0,1,1267.962,2562.518Z" transform="translate(-1156.299 -2512.15)" fill="#fff" opacity="0.72"/>
            <path id="Path_418" data-name="Path 418" d="M1267.552,2970.373l8.879-.086a2.726,2.726,0,0,1,2.741,2.679l.176,8.383a2.728,2.728,0,0,1-2.6,2.793l-8.873.379a2.725,2.725,0,0,1-2.829-2.677l-.183-8.674A2.728,2.728,0,0,1,1267.552,2970.373Z" transform="translate(-1164.068 -2879.14)" fill="#fff" opacity="0.72"/>
            <path id="Path_419" data-name="Path 419" d="M1401.232,2979.981l-.173-8.2a2.681,2.681,0,0,1,2.642-2.748l8.973-.088a2.679,2.679,0,0,1,2.694,2.634l.166,7.9a2.681,2.681,0,0,1-2.555,2.745l-8.966.383A2.678,2.678,0,0,1,1401.232,2979.981Z" transform="translate(-1282.809 -2877.974)" fill="#fff" opacity="0.72"/>
            <path id="Path_420" data-name="Path 420" d="M1395.367,2700.418l-.142-6.728a2.884,2.884,0,0,1,2.877-2.957l8.568.016a2.883,2.883,0,0,1,2.866,2.834l.136,6.43a2.886,2.886,0,0,1-2.778,2.955l-8.562.283A2.883,2.883,0,0,1,1395.367,2700.418Z" transform="translate(-1277.723 -2635.414)" fill="#fff" opacity="0.72"/>
            <path id="Path_421" data-name="Path 421" d="M1398.067,2828.2l-.216-10.291a2.681,2.681,0,0,1,2.581-2.746l8.762-.289a2.882,2.882,0,0,1,2.966,2.832l.218,10.379a2.68,2.68,0,0,1-2.668,2.748h-8.974A2.679,2.679,0,0,1,1398.067,2828.2Z" transform="translate(-1280.012 -2743.642)" fill="#fff" opacity="0.72"/>
            <path id="Path_422" data-name="Path 422" d="M1131.643,2558.313l-9.334.053a2.5,2.5,0,0,1-2.5-2.455l-.188-8.936a2.5,2.5,0,0,1,2.577-2.56l9.343.338a2.5,2.5,0,0,1,2.4,2.454l.18,8.544A2.5,2.5,0,0,1,1131.643,2558.313Z" transform="translate(-1037.438 -2507.845)" fill="#fff" opacity="0.72"/>
            <path id="Path_423" data-name="Path 423" d="M1261.923,2832.037l-.2-9.625a2.728,2.728,0,0,1,2.626-2.794l8.875-.293a2.725,2.725,0,0,1,2.8,2.678l.209,9.917a2.727,2.727,0,0,1-2.715,2.8h-8.881A2.726,2.726,0,0,1,1261.923,2832.037Z" transform="translate(-1161.328 -2747.523)" fill="#fff" opacity="0.72"/>
            <path id="Path_424" data-name="Path 424" d="M1124.679,2690.226l10.194.019a2.067,2.067,0,0,1,2.055,2.032l.195,9.255a2.069,2.069,0,0,1-1.992,2.119l-10.186.336a2.067,2.067,0,0,1-2.127-2.031l-.2-9.61A2.068,2.068,0,0,1,1124.679,2690.226Z" transform="translate(-1040.051 -2634.971)" fill="#fff" opacity="0.72"/>
            <path id="Path_425" data-name="Path 425" d="M1000.778,2692.556l.186,8.814a2.6,2.6,0,0,1-2.5,2.664l-9.129.3a2.6,2.6,0,0,1-2.673-2.552l-.192-9.132a2.6,2.6,0,0,1,2.593-2.665l9.136.017A2.6,2.6,0,0,1,1000.778,2692.556Z" transform="translate(-921.35 -2634.762)" fill="#fff" opacity="0.72"/>
            <path id="Path_426" data-name="Path 426" d="M1271.354,2703.292l-10.186.336a2.067,2.067,0,0,1-2.126-2.031l-.189-9a2.068,2.068,0,0,1,2.063-2.12l10.194.018a2.068,2.068,0,0,1,2.055,2.032l.182,8.647A2.068,2.068,0,0,1,1271.354,2703.292Z" transform="translate(-1158.827 -2635.188)" fill="#fff" opacity="0.72"/>
            <path id="Path_427" data-name="Path 427" d="M1128.21,2824.11l8.875-.293a2.725,2.725,0,0,1,2.8,2.678l.2,9.343a2.727,2.727,0,0,1-2.714,2.8h-8.881a2.726,2.726,0,0,1-2.715-2.679l-.191-9.051A2.728,2.728,0,0,1,1128.21,2824.11Z" transform="translate(-1042.638 -2751.44)" fill="#fff" opacity="0.72"/>
            <path id="Path_428" data-name="Path 428" d="M991.721,2828.543l9.5-.314a2.413,2.413,0,0,1,2.483,2.372l.2,9.406a2.415,2.415,0,0,1-2.4,2.475h-9.5a2.414,2.414,0,0,1-2.4-2.373l-.192-9.094A2.416,2.416,0,0,1,991.721,2828.543Z" transform="translate(-923.903 -2755.287)" fill="#fff" opacity="0.72"/>
            <path id="Path_429" data-name="Path 429" d="M1403.049,2565.93l-7.085.041a3.463,3.463,0,0,1-3.468-3.4l-.124-5.893a3.086,3.086,0,0,1,3.183-3.162l7.885.285a3.391,3.391,0,0,1,3.255,3.33l.1,4.921A3.787,3.787,0,0,1,1403.049,2565.93Z" transform="translate(-1275.234 -2515.776)" fill="#fff" opacity="0.72"/>
            <path id="Path_430" data-name="Path 430" d="M1537.3,2971.039a2.885,2.885,0,0,1,2.844-2.957l3.086-.03c2.346-.023,4.264,1.54,4.3,3.509l.12,5.7c.041,1.953-1.78,3.588-4.1,3.687l-3.313.141a2.678,2.678,0,0,1-2.781-2.631Z" transform="translate(-1401.587 -2877.19)" fill="#fff" opacity="0.72"/>
            <path id="Path_431" data-name="Path 431" d="M733.872,2975.673l6.07-.06a2.728,2.728,0,0,1,2.743,2.682l.225,10.673a2.73,2.73,0,0,1-2.6,2.8l-6.042.258c-2.409.1-4.43-1.48-4.473-3.5l-.193-9.153C729.558,2977.357,731.48,2975.7,733.872,2975.673Z" transform="translate(-697.403 -2883.783)" fill="#fff" opacity="0.72"/>
            <path id="Path_432" data-name="Path 432" d="M1540.126,2828.147h-3.013a2.884,2.884,0,0,1-2.872-2.834l-.22-10.461a2.885,2.885,0,0,1,2.778-2.956l3.032-.1c2.391-.078,4.381,1.5,4.423,3.506l.193,9.154C1544.49,2826.479,1542.537,2828.147,1540.126,2828.147Z" transform="translate(-1398.731 -2740.959)" fill="#fff" opacity="0.72"/>
            <path id="Path_433" data-name="Path 433" d="M1537.539,2702.781l-3.793.125a2.18,2.18,0,0,1-2.243-2.143l-.159-7.556a2.182,2.182,0,0,1,2.175-2.236l3.83.007c2.323,0,4.2,1.56,4.246,3.509l.1,4.6C1541.734,2701.06,1539.883,2702.7,1537.539,2702.781Z" transform="translate(-1396.398 -2635.621)" fill="#fff" opacity="0.72"/>
            <path id="Path_434" data-name="Path 434" d="M724.711,2529.539l6.087.22a2.6,2.6,0,0,1,2.495,2.552l.222,10.542a2.6,2.6,0,0,1-2.573,2.665l-6.267.036c-2.337.013-4.243-1.547-4.284-3.508l-.186-8.819C720.161,2531.143,722.23,2529.449,724.711,2529.539Z" transform="translate(-689.211 -2494.874)" fill="#fff" opacity="0.72"/>
            <path id="Path_435" data-name="Path 435" d="M1131.348,2971.7l8.879-.087a2.726,2.726,0,0,1,2.741,2.679l.188,8.956a2.728,2.728,0,0,1-2.6,2.793l-8.873.379a2.725,2.725,0,0,1-2.83-2.677l-.195-9.248A2.727,2.727,0,0,1,1131.348,2971.7Z" transform="translate(-1045.32 -2880.3)" fill="#fff" opacity="0.72"/>
            <path id="Path_436" data-name="Path 436" d="M727.9,2689.531l6.169.011a2.6,2.6,0,0,1,2.583,2.554l.211,10.029a2.6,2.6,0,0,1-2.5,2.663l-6.194.2c-2.391.079-4.381-1.5-4.423-3.505l-.174-8.265C723.529,2691.2,725.487,2689.527,727.9,2689.531Z" transform="translate(-692.147 -2634.365)" fill="#fff" opacity="0.72"/>
            <path id="Path_437" data-name="Path 437" d="M730.867,2837.425l6.439-.213a2.413,2.413,0,0,1,2.483,2.371l.174,8.259a2.415,2.415,0,0,1-2.4,2.476h-6.47c-2.326,0-4.214-1.556-4.255-3.509l-.12-5.7C726.672,2839.145,728.522,2837.5,730.867,2837.425Z" transform="translate(-694.886 -2763.118)" fill="#fff" opacity="0.72"/>
            <path id="Path_438" data-name="Path 438" d="M867.564,2835.093l.186,8.833a2.415,2.415,0,0,1-2.4,2.475h-9.5a2.414,2.414,0,0,1-2.4-2.373l-.179-8.52a2.415,2.415,0,0,1,2.325-2.474l9.5-.313A2.413,2.413,0,0,1,867.564,2835.093Z" transform="translate(-805.214 -2759.203)" fill="#fff" opacity="0.72"/>
            <path id="Path_439" data-name="Path 439" d="M858.944,2974.368l8.875-.087a2.728,2.728,0,0,1,2.744,2.682l.213,10.1a2.731,2.731,0,0,1-2.6,2.8l-8.869.378a2.727,2.727,0,0,1-2.832-2.679l-.219-10.391A2.73,2.73,0,0,1,858.944,2974.368Z" transform="translate(-807.824 -2882.622)" fill="#fff" opacity="0.72"/>
            <path id="Path_440" data-name="Path 440" d="M1534.6,2569.93l-3.714.021a2.18,2.18,0,0,1-2.184-2.143l-.156-7.391a2.181,2.181,0,0,1,2.25-2.235l3.934.142c2.252.082,4.03,1.614,4.07,3.505l.093,4.409C1538.939,2568.252,1537,2569.916,1534.6,2569.93Z" transform="translate(-1393.961 -2519.848)" fill="#fff" opacity="0.72"/>
            <path id="Path_441" data-name="Path 441" d="M995.148,2973.047l8.726-.085a2.88,2.88,0,0,1,2.9,2.831l.2,9.375a2.731,2.731,0,0,1-2.6,2.8l-8.869.378a2.727,2.727,0,0,1-2.832-2.679l-.207-9.817A2.73,2.73,0,0,1,995.148,2973.047Z" transform="translate(-926.572 -2881.471)" fill="#fff" opacity="0.72"/>
            <path id="Path_442" data-name="Path 442" d="M861.263,2536.507l.206,9.81a2.6,2.6,0,0,1-2.573,2.665l-9.134.052a2.6,2.6,0,0,1-2.6-2.554l-.215-10.193a2.6,2.6,0,0,1,2.681-2.663l9.142.33A2.6,2.6,0,0,1,861.263,2536.507Z" transform="translate(-799.709 -2498.437)" fill="#fff" opacity="0.72"/>
            <path id="Path_443" data-name="Path 443" d="M864.541,2692.308l.2,9.422a2.6,2.6,0,0,1-2.5,2.663l-9.129.3a2.6,2.6,0,0,1-2.672-2.553l-.2-9.739a2.6,2.6,0,0,1,2.593-2.665l9.136.016A2.6,2.6,0,0,1,864.541,2692.308Z" transform="translate(-802.573 -2634.545)" fill="#fff" opacity="0.72"/>
            <path id="Path_444" data-name="Path 444" d="M1551.971,2481.051l-.42,3.107a2.031,2.031,0,0,1-1.963,1.764l-.146,0a2.031,2.031,0,0,1-2.067-2l-.067-3.18a2.03,2.03,0,0,1,2.245-2.072l.633.07A2.037,2.037,0,0,1,1551.971,2481.051Z" transform="translate(-1410.315 -2450.522)" fill="#fff"/>
            <path id="Path_445" data-name="Path 445" d="M1440.358,2474.811l-.421,3.107a2.03,2.03,0,0,1-1.963,1.764l-.146,0a2.032,2.032,0,0,1-2.067-2l-.067-3.181a2.031,2.031,0,0,1,2.245-2.071l.633.07A2.037,2.037,0,0,1,1440.358,2474.811Z" transform="translate(-1313.006 -2445.082)" fill="#fff"/>
            <path id="Path_446" data-name="Path 446" d="M1303.033,2476.716l-.421,3.107a2.029,2.029,0,0,1-1.963,1.764l-.146,0a2.031,2.031,0,0,1-2.067-2l-.067-3.18a2.031,2.031,0,0,1,2.245-2.072l.633.07A2.037,2.037,0,0,1,1303.033,2476.716Z" transform="translate(-1193.28 -2446.743)" fill="#fff"/>
            <path id="Path_447" data-name="Path 447" d="M1169.24,2470.676l-.42,3.107a2.03,2.03,0,0,1-1.963,1.764l-.146,0a2.032,2.032,0,0,1-2.067-2l-.067-3.18a2.031,2.031,0,0,1,2.245-2.072l.633.07A2.038,2.038,0,0,1,1169.24,2470.676Z" transform="translate(-1076.634 -2441.477)" fill="#fff"/>
            <path id="Path_448" data-name="Path 448" d="M1031.819,2453.06l-.421,3.107a2.03,2.03,0,0,1-1.963,1.764l-.146,0a2.031,2.031,0,0,1-2.067-2l-.067-3.18a2.03,2.03,0,0,1,2.245-2.072l.633.07A2.038,2.038,0,0,1,1031.819,2453.06Z" transform="translate(-956.825 -2426.119)" fill="#fff"/>
            <path id="Path_449" data-name="Path 449" d="M886.243,2456.173l-.421,3.107a2.03,2.03,0,0,1-1.963,1.764l-.146,0a2.031,2.031,0,0,1-2.067-2l-.067-3.179a2.031,2.031,0,0,1,2.245-2.072l.633.07A2.037,2.037,0,0,1,886.243,2456.173Z" transform="translate(-829.906 -2428.832)" fill="#fff"/>
            <path id="Path_450" data-name="Path 450" d="M763.368,2453.579l-.421,3.107a2.029,2.029,0,0,1-1.963,1.764l-.146,0a2.032,2.032,0,0,1-2.067-2l-.067-3.18a2.03,2.03,0,0,1,2.245-2.072l.633.07A2.037,2.037,0,0,1,763.368,2453.579Z" transform="translate(-722.778 -2426.571)" fill="#fff"/>
            <g id="Group_124" data-name="Group 124" transform="translate(88.056 61.098)">
              <path id="Path_451" data-name="Path 451" d="M1282.5,2736.558a.747.747,0,0,0-1.247-.552c-1.448,1.149-2.036,2.934-2.749,4.6-.831,1.94-1.628,3.9-2.335,5.885a54.707,54.707,0,0,0-1.867,6.4,46.176,46.176,0,0,0-3.493-7.506.669.669,0,0,0-1.227.491c1.224,4.387,2.731,8.686,3.884,13.1a1.363,1.363,0,0,0,2.675-.307,50.3,50.3,0,0,1,2.8-11.847c.66-1.834,1.4-3.639,2.161-5.431C1281.772,2739.8,1282.6,2738.321,1282.5,2736.558Z" transform="translate(-1256.212 -2735.819)" fill="#427069"/>
              <path id="Path_452" data-name="Path 452" d="M1193.735,2749.632a.991.991,0,0,0-.563,1.9c7.64,3.389,8.639,12.938,3.12,18.719a38.346,38.346,0,0,1-9.147,6.534c-3.253,1.809-6.884,3.192-10.659,2.809-8.75-.886-9.939-9.864-7.323-16.792a24.672,24.672,0,0,1,14.5-14.273c.852-.318.522-1.717-.352-1.4a27.813,27.813,0,0,0-14.723,12.429c-3,5.313-4.8,12.809-.873,18.142,4.066,5.519,11.786,5.618,17.6,3.318,6.4-2.531,14.363-7.227,16.909-14.041C1204.9,2759.837,1201.6,2751.116,1193.735,2749.632Z" transform="translate(-1165.462 -2745.638)" fill="#427069"/>
            </g>
            <g id="Group_125" data-name="Group 125" transform="translate(12.851 21.538)">
              <path id="Path_453" data-name="Path 453" d="M578.976,2751.2a.333.333,0,0,0,.331-.332l.4-58.619a.333.333,0,0,0-.329-.336h0a.332.332,0,0,0-.331.332l-.4,58.619a.332.332,0,0,0,.329.336Z" transform="translate(-578.644 -2657.977)" fill="#fff"/>
              <path id="Path_454" data-name="Path 454" d="M582.839,2448.279a.333.333,0,0,0,.331-.332l.141-20.473a.333.333,0,0,0-.329-.337h0a.333.333,0,0,0-.331.333l-.141,20.473a.333.333,0,0,0,.329.336Z" transform="translate(-582.013 -2427.138)" fill="#fff"/>
            </g>
            <ellipse id="Ellipse_18" data-name="Ellipse 18" cx="3.543" cy="3.572" rx="3.543" ry="3.572" transform="translate(134.589 18.347)" fill="#427069"/>
            <ellipse id="Ellipse_19" data-name="Ellipse 19" cx="3.543" cy="3.572" rx="3.543" ry="3.572" transform="translate(105.56 18.073)" fill="#427069"/>
            <ellipse id="Ellipse_20" data-name="Ellipse 20" cx="3.543" cy="3.572" rx="3.543" ry="3.572" transform="translate(76.259 17.111)" fill="#427069"/>
            <ellipse id="Ellipse_21" data-name="Ellipse 21" cx="3.543" cy="3.572" rx="3.543" ry="3.572" transform="translate(47.23 15.737)" fill="#427069"/>
            <g id="Group_126" data-name="Group 126" transform="translate(39.986)">
              <path id="Path_455" data-name="Path 455" d="M790.377,2264.2c1.252-2.683,3.68-5.783,8.093-5,5.962,1.058,5.4,13.819,4.92,19a2.7,2.7,0,0,1-2.864,2.16,1.637,1.637,0,0,1-1.093-.4,1.062,1.062,0,0,1-.367-.927c.515-3.916,1.611-15.191-2.778-15.794a2.818,2.818,0,0,0-2.13.756C792.9,2263.976,791.637,2264.109,790.377,2264.2Z" transform="translate(-790.377 -2259.077)" fill="#fcb041"/>
              <path id="Path_456" data-name="Path 456" d="M1015.089,2269.831c1.174-2.778,3.623-6.345,8.323-5.511,5.962,1.058,5.4,13.823,4.92,19a2.7,2.7,0,0,1-2.864,2.162,1.637,1.637,0,0,1-1.093-.4,1.061,1.061,0,0,1-.367-.927c.515-3.916,1.611-15.2-2.779-15.8a3.068,3.068,0,0,0-2.758,1.55C1017.344,2269.923,1016.211,2269.889,1015.089,2269.831Z" transform="translate(-986.29 -2263.54)" fill="#fcb041"/>
              <path id="Path_457" data-name="Path 457" d="M1240.642,2275.269c1.122-2.81,3.575-6.67,8.445-5.805,5.962,1.058,5.4,13.826,4.92,19.006a2.7,2.7,0,0,1-2.864,2.163,1.638,1.638,0,0,1-1.094-.4,1.061,1.061,0,0,1-.367-.927c.515-3.916,1.611-15.205-2.778-15.809a3.153,3.153,0,0,0-2.809,1.7A25.194,25.194,0,0,1,1240.642,2275.269Z" transform="translate(-1182.937 -2268.025)" fill="#fcb041"/>
              <path id="Path_458" data-name="Path 458" d="M1475.986,2275.411c5.962,1.059,5.4,13.833,4.92,19.013a2.7,2.7,0,0,1-2.864,2.167,1.632,1.632,0,0,1-1.093-.4,1.06,1.06,0,0,1-.368-.926c.515-3.915,1.611-15.219-2.778-15.821a3.03,3.03,0,0,0-2.682,1.421c-1.174.043-2.348.2-3.522.2C1468.745,2278.272,1471.2,2274.561,1475.986,2275.411Z" transform="translate(-1380.807 -2273.21)" fill="#fcb041"/>
            </g>
          </g>
          <g id="Group_129" data-name="Group 129" transform="translate(178.271 425.51)">
            <circle id="Ellipse_22" data-name="Ellipse 22" cx="14.704" cy="14.704" r="14.704" transform="translate(0 20.795) rotate(-45)" fill="#fcb041"/>
            <circle id="Ellipse_23" data-name="Ellipse 23" cx="14.216" cy="14.216" r="14.216" transform="translate(0.691 20.795) rotate(-45)" fill="url(#linear-gradient-13)"/>
            <path id="Path_459" data-name="Path 459" d="M1782.051,2659.961a.465.465,0,0,1-.212-.059.475.475,0,0,1-.187-.646,13.54,13.54,0,0,1,12.411-7.031,13.768,13.768,0,0,1,2.443.31.475.475,0,0,1-.2.929,12.812,12.812,0,0,0-2.273-.288,12.6,12.6,0,0,0-11.544,6.54A.473.473,0,0,1,1782.051,2659.961Z" transform="translate(-1772.773 -2645.019)" fill="#fff"/>
            <circle id="Ellipse_24" data-name="Ellipse 24" cx="12.032" cy="12.032" r="12.032" transform="translate(4.078 21.116) rotate(-45)" fill="#fff" opacity="0.78"/>
            <g id="Group_128" data-name="Group 128" transform="translate(15.573 12.592)">
              <path id="Path_460" data-name="Path 460" d="M1838.3,2711.734l.048-1.308a10.675,10.675,0,0,1-3.641-.93.757.757,0,0,1-.386-.909l.377-1.207a.763.763,0,0,1,1.053-.461,8.863,8.863,0,0,0,3.363.837c1.313.048,2.309-.362,2.343-1.275.03-.824-.709-1.341-2.517-1.9-2.578-.807-4.407-2.011-4.323-4.3.075-2.07,1.647-3.6,4.289-3.923l.048-1.308a.762.762,0,0,1,.79-.734l.768.028a.763.763,0,0,1,.735.79l-.043,1.175a9.718,9.718,0,0,1,2.89.629.758.758,0,0,1,.441.933l-.347,1.116a.761.761,0,0,1-1.022.477,7.926,7.926,0,0,0-2.835-.622c-1.558-.057-2.027.572-2.048,1.151-.026.712.891,1.236,2.895,1.934,2.862.974,4.021,2.22,3.942,4.379-.072,1.982-1.606,3.709-4.472,4.05l-.053,1.464a.763.763,0,0,1-.79.735l-.769-.028A.763.763,0,0,1,1838.3,2711.734Z" transform="translate(-1834.282 -2694.314)" fill="#427069"/>
            </g>
          </g>
          <g id="Group_131" data-name="Group 131" transform="translate(216.457 322.6)">
            <circle id="Ellipse_25" data-name="Ellipse 25" cx="25.598" cy="25.598" r="25.598" transform="translate(0 36.201) rotate(-45)" fill="#fcb041"/>
            <circle id="Ellipse_26" data-name="Ellipse 26" cx="24.747" cy="24.747" r="24.747" transform="translate(1.204 36.201) rotate(-45)" fill="url(#linear-gradient-14)"/>
            <path id="Path_461" data-name="Path 461" d="M2133.748,1906.339a.466.466,0,0,1-.212-.059.475.475,0,0,1-.187-.646,23.222,23.222,0,0,1,21.284-12.058,23.472,23.472,0,0,1,4.19.532.475.475,0,1,1-.2.928,22.586,22.586,0,0,0-4.02-.51,22.277,22.277,0,0,0-20.417,11.567A.474.474,0,0,1,2133.748,1906.339Z" transform="translate(-2117.582 -1880.679)" fill="#fff"/>
            <circle id="Ellipse_27" data-name="Ellipse 27" cx="20.945" cy="20.945" r="20.945" transform="translate(7.099 36.76) rotate(-45)" fill="#fff" opacity="0.78"/>
            <g id="Group_130" data-name="Group 130" transform="translate(27.11 21.921)">
              <path id="Path_462" data-name="Path 462" d="M2229.251,1994.424l.083-2.277a18.594,18.594,0,0,1-6.339-1.618,1.318,1.318,0,0,1-.671-1.583l.656-2.1a1.329,1.329,0,0,1,1.834-.8,15.43,15.43,0,0,0,5.854,1.457c2.287.083,4.02-.63,4.078-2.219.052-1.434-1.234-2.334-4.381-3.3-4.489-1.405-7.672-3.5-7.527-7.492.132-3.6,2.867-6.26,7.467-6.829l.083-2.277a1.327,1.327,0,0,1,1.375-1.279l1.338.049a1.327,1.327,0,0,1,1.278,1.375l-.074,2.045a16.948,16.948,0,0,1,5.031,1.094,1.321,1.321,0,0,1,.767,1.624l-.6,1.942a1.324,1.324,0,0,1-1.779.83,13.827,13.827,0,0,0-4.934-1.083c-2.713-.1-3.529,1-3.565,2-.045,1.24,1.551,2.152,5.038,3.366,4.983,1.7,7,3.864,6.863,7.623-.126,3.449-2.8,6.456-7.786,7.051l-.093,2.548a1.327,1.327,0,0,1-1.375,1.279l-1.338-.049A1.327,1.327,0,0,1,2229.251,1994.424Z" transform="translate(-2222.262 -1964.1)" fill="#427069"/>
            </g>
          </g>
          <g id="Group_133" data-name="Group 133" transform="translate(201.365 384.16)">
            <circle id="Ellipse_28" data-name="Ellipse 28" cx="19.299" cy="19.299" r="19.299" transform="translate(5.116 43.489) rotate(-83.802)" fill="#fcb041"/>
            <circle id="Ellipse_29" data-name="Ellipse 29" cx="18.657" cy="18.657" r="18.657" transform="translate(0 26.386) rotate(-45)" fill="url(#linear-gradient-15)"/>
            <path id="Path_463" data-name="Path 463" d="M1977.829,2351.057a.469.469,0,0,1-.212-.059.475.475,0,0,1-.187-.646,17.624,17.624,0,0,1,16.153-9.151,17.871,17.871,0,0,1,3.18.4.475.475,0,1,1-.2.929,16.97,16.97,0,0,0-3.01-.382,16.679,16.679,0,0,0-15.286,8.66A.474.474,0,0,1,1977.829,2351.057Z" transform="translate(-1966.554 -2332.503)" fill="#fff"/>
            <circle id="Ellipse_30" data-name="Ellipse 30" cx="15.791" cy="15.791" r="15.791" transform="translate(10.986 11.015)" fill="#fff" opacity="0.78"/>
            <g id="Group_132" data-name="Group 132" transform="translate(19.532 15.619)">
              <path id="Path_464" data-name="Path 464" d="M2050.634,2418.145l.062-1.717a14.01,14.01,0,0,1-4.779-1.22.993.993,0,0,1-.506-1.193l.494-1.584a1,1,0,0,1,1.383-.605,11.635,11.635,0,0,0,4.414,1.1c1.724.063,3.03-.475,3.074-1.673.039-1.081-.931-1.76-3.3-2.49-3.385-1.06-5.785-2.639-5.675-5.649.1-2.717,2.161-4.719,5.63-5.149l.062-1.717a1,1,0,0,1,1.037-.964l1.009.037a1,1,0,0,1,.964,1.037l-.056,1.542a12.766,12.766,0,0,1,3.793.825,1,1,0,0,1,.578,1.224l-.455,1.464a1,1,0,0,1-1.342.626,10.427,10.427,0,0,0-3.72-.817c-2.045-.074-2.66.752-2.688,1.511-.034.935,1.169,1.623,3.8,2.538,3.757,1.278,5.277,2.913,5.174,5.748-.095,2.6-2.108,4.867-5.87,5.315l-.07,1.922a1,1,0,0,1-1.037.964l-1.009-.037A1,1,0,0,1,2050.634,2418.145Z" transform="translate(-2045.365 -2395.283)" fill="#427069"/>
            </g>
          </g>
        </g>
      </g>
    </g>
  </g>
</svg>
