<svg xmlns="http://www.w3.org/2000/svg" width="160" height="276.864" viewBox="0 0 160 276.864">
  <g id="Group_16373" data-name="Group 16373" transform="translate(-115 -39)">
    <g id="Character" transform="translate(119.403 139.43)">
      <g id="Group_16368" data-name="Group 16368">
        <g id="Group_15975" data-name="Group 15975" transform="translate(72.624)">
          <path id="Path_5270" data-name="Path 5270" d="M280.39,237.274q-1.721-5.479-3.444-10.957c-.9-2.872-1.738-6.241.006-8.7.677-.953,1.709-1.692,2.058-2.807.457-1.456-.4-2.954-.829-4.42-.951-3.255.244-6.691.831-10.031s.234-7.407-2.649-9.193c-1.4-.867-3.178-1.026-4.483-2.03-1.858-1.431-2.176-4.045-3.083-6.207a10.886,10.886,0,0,0-14.489-5.728l-2.368,1.781c-3.119,8.912-3.426,18.554-3.073,27.99s1.333,18.883.663,28.3c-.255,3.582-.652,7.533,1.471,10.43,1.925,2.628,5.366,3.579,8.567,4.185a35.377,35.377,0,0,0,9.7.751,15.98,15.98,0,0,0,8.963-3.464,8.066,8.066,0,0,0,2.96-4.916A11.808,11.808,0,0,0,280.39,237.274Z" transform="translate(-248.753 -176.266)" fill="#263238"/>
        </g>
        <g id="Group_15979" data-name="Group 15979" transform="translate(93.123 29.983)">
          <g id="Group_15976" data-name="Group 15976">
            <path id="Path_5271" data-name="Path 5271" d="M289.544,256.559l18.142-16.217s-14.674,1.092-23.584,2.088l-.961-8.281s18.6-4.269,24.545-5.794,11.692-1.585,17.333-1.782,6.6,3,6.908,4.374.73,8.209-4.68,14.667c-4.1,4.894-25.963,28.173-25.963,28.173Z" transform="translate(-283.14 -226.563)" fill="#ffbe9d"/>
          </g>
          <g id="Group_15978" data-name="Group 15978" transform="translate(24.119 9.789)">
            <g id="Group_15977" data-name="Group 15977">
              <path id="Path_5272" data-name="Path 5272" d="M338.5,242.986a2.5,2.5,0,0,1-.432.465,6.228,6.228,0,0,1-.554.5c-.226.183-.474.4-.778.608a15.413,15.413,0,0,1-2.2,1.332,16.209,16.209,0,0,1-6.051,1.654,15.4,15.4,0,0,1-2.571-.027c-.366-.021-.692-.085-.979-.128a6.275,6.275,0,0,1-.73-.145,2.477,2.477,0,0,1-.609-.181c.012-.058.892.148,2.334.235a17.5,17.5,0,0,0,2.532-.039,17.342,17.342,0,0,0,5.949-1.626,17.544,17.544,0,0,0,2.2-1.255C337.811,243.567,338.464,242.942,338.5,242.986Z" transform="translate(-323.6 -242.984)" fill="#eb996e"/>
            </g>
          </g>
        </g>
        <g id="Group_15983" data-name="Group 15983" transform="translate(0 26.911)">
          <g id="Group_15980" data-name="Group 15980">
            <path id="Path_5273" data-name="Path 5273" d="M130.907,222.553a12.211,12.211,0,0,0-3.707,6.116c-1.652,6.035,4.659,11.789,4.659,11.789s27.353,26.135,27.538,26.506,6.858-19.461,6.858-19.461l-16.5-11.677s8.961.259,14.086.371a121.012,121.012,0,0,1,13.137,1.319V227.322S139.8,218.291,130.907,222.553Z" transform="translate(-126.925 -221.41)" fill="#ffbe9d"/>
          </g>
          <g id="Group_15982" data-name="Group 15982" transform="translate(7.256 13.202)">
            <g id="Group_15981" data-name="Group 15981">
              <path id="Path_5274" data-name="Path 5274" d="M139.1,244.23c-.007-.007.033-.06.126-.145a1.839,1.839,0,0,1,.464-.3,3.191,3.191,0,0,1,2-.135c.845.173,1.747.637,2.8.932a14.394,14.394,0,0,0,3.521.512c2.541.052,4.848-.262,6.522-.366.836-.064,1.515-.1,1.984-.119a3.282,3.282,0,0,1,.731.008,3.31,3.31,0,0,1-.721.113l-1.973.217a51.648,51.648,0,0,1-6.551.458,13.9,13.9,0,0,1-3.593-.548c-1.081-.322-1.966-.8-2.767-.993a3.234,3.234,0,0,0-1.9.033A5.45,5.45,0,0,0,139.1,244.23Z" transform="translate(-139.097 -243.557)" fill="#eb996e"/>
            </g>
          </g>
        </g>
        <g id="Group_16086" data-name="Group 16086" transform="translate(2.983 41.797)">
          <g id="Group_15984" data-name="Group 15984">
            <path id="Path_5275" data-name="Path 5275" d="M267.5,253.586l-20.887-5.24-17.808,12.58s-3.018-1.81-4.8-.987a46.238,46.238,0,0,0-5.2,3.291l-5.961-3.126-22.377,1.645-4.163,3.62s-.869-2.139-2.219-1.152a3.661,3.661,0,0,1-2.479.823s-1.339-3.784-4.136-5.265-8.85-3.753-9.872-3.511-8.165-6.56-8.165-6.56l-4.458-3.322s-22.7,2.524-23.033,4.163,5.35,10.118,6.5,10.118l3.817,1.251a16.558,16.558,0,0,0,4.463,7.733c3.435,3.126,15.117,11.135,15.117,11.135s-5.326,33.288-7.846,39.377-4.494,13.985-3.836,21.554S153.994,371,153.994,371l16.9-5.266,66.636-1.974,12.669,2.962s-.823-17.77-1.481-27.312-1.481-29.452-4.278-41.3-2.139-17.329-2.139-17.329,20.567-19.527,22.212-22.159S268.17,255.434,267.5,253.586Z" transform="translate(-131.929 -246.381)" fill="#fcb041"/>
          </g>
          <g id="Group_15985" data-name="Group 15985" transform="translate(93.967 52.838)" opacity="0.3">
            <path id="Path_5276" data-name="Path 5276" d="M294.109,335.018s7.254,12.772,7.827,20.007-5.868,18.951-5.868,18.951l-6.507-9.418Z" transform="translate(-289.561 -335.018)"/>
          </g>
          <g id="Group_15987" data-name="Group 15987" transform="translate(22.77 51.837)" opacity="0.3">
            <g id="Group_15986" data-name="Group 15986">
              <path id="Path_5277" data-name="Path 5277" d="M192.77,333.338c-6.51,6-10.275,14.331-13.766,22.464-3.369,7.851-6.667,15.829-8.09,24.254a57.016,57.016,0,0,0,1.463,25.3l26.819-9.9-2.254-33.1Z" transform="translate(-170.126 -333.338)"/>
            </g>
          </g>
          <g id="Group_15988" data-name="Group 15988" transform="translate(41.406 80.866)">
            <path id="Path_5278" data-name="Path 5278" d="M201.389,394.415l8.18-12.379,44.381,1.512,6.507,9.418L230.9,411.839Z" transform="translate(-201.389 -382.036)" fill="#427069"/>
          </g>
          <g id="Group_15989" data-name="Group 15989" transform="translate(45.255 20.8)">
            <path id="Path_5279" data-name="Path 5279" d="M223.6,281.274l-5.2,8.516s.007,6.749-1.207,9.611-9.351,13.113-9.351,13.113l4.331,28.826s19.506,15.6,44.381,1.512l4.548-29.541a79.1,79.1,0,0,0-7.828-9.259c-3.355-3.082-5.368-10.757-5.971-15.015l-2.181-6.725S229.489,288.037,223.6,281.274Z" transform="translate(-207.845 -281.274)" fill="#fff"/>
          </g>
          <g id="Group_15991" data-name="Group 15991" transform="translate(56.983 54.199)">
            <g id="Group_15990" data-name="Group 15990">
              <path id="Path_5280" data-name="Path 5280" d="M252.641,340.88c-.7-.5-2.125-.445-2.984-.522-3.05-.689-5.775-3-8.938-3.057a13.043,13.043,0,0,0-5,1.272c-2.077.835-4.156,1.67-6.177,2.631a4.72,4.72,0,0,0-1.5.981,1.514,1.514,0,0,0,1,2.664,4.626,4.626,0,0,0,1.816-.272c3.041-.907,6.086-2.176,9.252-1.972,3.368.217,6.448,2.088,9.808,2.4a4.867,4.867,0,0,0,2.294-.235,2.135,2.135,0,0,0,.436-3.893Zm-2.982-.521,1.365.187A7.565,7.565,0,0,1,249.659,340.359Z" transform="translate(-227.519 -337.3)" fill="#f5f5f5"/>
            </g>
          </g>
          <g id="Group_15993" data-name="Group 15993" transform="translate(52.978 54.533)">
            <g id="Group_15992" data-name="Group 15992">
              <path id="Path_5281" data-name="Path 5281" d="M234.989,337.864a2.117,2.117,0,0,1-.465.355,13.159,13.159,0,0,1-1.373.81,18.67,18.67,0,0,1-10.208,2.021,13.316,13.316,0,0,1-1.577-.225,2.145,2.145,0,0,1-.566-.152c.01-.054.827.089,2.159.159a20.977,20.977,0,0,0,10.1-2C234.258,338.261,234.96,337.818,234.989,337.864Z" transform="translate(-220.8 -337.861)" fill="#263238"/>
            </g>
          </g>
          <g id="Group_15995" data-name="Group 15995" transform="translate(57.532 76.169)">
            <g id="Group_15994" data-name="Group 15994">
              <path id="Path_5282" data-name="Path 5282" d="M232.015,379.349a8.045,8.045,0,0,1-3.565-5.193,15.117,15.117,0,0,0,3.565,5.193Z" transform="translate(-228.44 -374.156)" fill="#263238"/>
            </g>
          </g>
          <g id="Group_15997" data-name="Group 15997" transform="translate(60.071 59.477)">
            <g id="Group_15996" data-name="Group 15996">
              <path id="Path_5283" data-name="Path 5283" d="M252.138,348.987a3.992,3.992,0,0,1-.765-.247c-.483-.181-1.184-.434-2.056-.729a28.357,28.357,0,0,0-6.987-1.516,17,17,0,0,0-3.916.214l-.864.177c-.278.069-.541.157-.8.231a13.115,13.115,0,0,0-1.407.507,15.614,15.614,0,0,0-1.934.982,3.967,3.967,0,0,1-.707.381,4,4,0,0,1,.643-.483,12.972,12.972,0,0,1,3.327-1.633c.262-.08.529-.175.811-.25l.879-.194a16.446,16.446,0,0,1,3.989-.243,25.711,25.711,0,0,1,7.04,1.619c.867.323,1.559.609,2.029.824A4.041,4.041,0,0,1,252.138,348.987Z" transform="translate(-232.7 -346.156)" fill="#263238"/>
            </g>
          </g>
          <g id="Group_15999" data-name="Group 15999" transform="translate(48.83 16.223)">
            <g id="Group_15998" data-name="Group 15998">
              <path id="Path_5284" data-name="Path 5284" d="M220.412,287.718a6.555,6.555,0,0,1-.082-.957c-.039-.616-.1-1.506-.221-2.6a13.922,13.922,0,0,0-.267-1.764,1.78,1.78,0,0,0-.444-.814,1.325,1.325,0,0,0-.875-.362,3.567,3.567,0,0,0-2.047.712,4.419,4.419,0,0,1-2.339.926l-.294,0,.171-.241.046-.066a44.205,44.205,0,0,1,5.669-6.612c.808-.769,1.489-1.362,1.971-1.756a5.44,5.44,0,0,1,.773-.584,6.1,6.1,0,0,1-.694.675c-.457.421-1.113,1.037-1.9,1.822a50.12,50.12,0,0,0-5.568,6.632l-.046.066-.124-.244a4.207,4.207,0,0,0,2.171-.873,3.811,3.811,0,0,1,2.226-.739,1.6,1.6,0,0,1,1.047.454,2.025,2.025,0,0,1,.5.939,13.075,13.075,0,0,1,.237,1.811c.094,1.1.12,2,.123,2.619A5.042,5.042,0,0,1,220.412,287.718Z" transform="translate(-213.843 -273.595)" fill="#263238"/>
            </g>
          </g>
          <g id="Group_16001" data-name="Group 16001" transform="translate(26.169 46.151)">
            <g id="Group_16000" data-name="Group 16000">
              <path id="Path_5285" data-name="Path 5285" d="M199.246,323.8a2.985,2.985,0,0,1-.279.407l-.848,1.129c-.749.97-1.806,2.395-3.1,4.16a147.941,147.941,0,0,0-9.289,14.362c-1.636,2.914-3.087,5.75-4.315,8.372-1.21,2.631-2.255,5.022-3.05,7.063-.417,1.013-.762,1.942-1.071,2.755s-.574,1.515-.779,2.093l-.49,1.323a2.965,2.965,0,0,1-.191.455,2.89,2.89,0,0,1,.132-.476l.435-1.344c.188-.584.43-1.294.73-2.112s.625-1.756,1.03-2.776c.771-2.054,1.8-4.46,2.995-7.1,1.216-2.635,2.663-5.482,4.3-8.4a134.155,134.155,0,0,1,9.383-14.34c1.322-1.75,2.407-3.156,3.186-4.1l.894-1.094A3,3,0,0,1,199.246,323.8Z" transform="translate(-175.829 -323.801)" fill="#263238"/>
            </g>
          </g>
          <g id="Group_16003" data-name="Group 16003" transform="translate(37.506 18.658)">
            <g id="Group_16002" data-name="Group 16002">
              <path id="Path_5286" data-name="Path 5286" d="M194.849,297.771a5.45,5.45,0,0,1,.215-.909c.076-.291.179-.644.317-1.049s.28-.87.478-1.37c.366-1.012.877-2.189,1.491-3.472.631-1.276,1.379-2.651,2.243-4.048a51.97,51.97,0,0,1,5.011-6.738c.71-.807,1.3-1.443,1.732-1.865a5.345,5.345,0,0,1,.683-.638,5.453,5.453,0,0,1-.594.721c-.4.447-.967,1.1-1.654,1.925a61.094,61.094,0,0,0-4.914,6.76c-.858,1.389-1.609,2.75-2.25,4.011-.624,1.269-1.154,2.428-1.543,3.425-.21.492-.369.95-.518,1.348s-.273.743-.366,1.028A5.343,5.343,0,0,1,194.849,297.771Z" transform="translate(-194.846 -277.68)" fill="#263238"/>
            </g>
          </g>
          <g id="Group_16005" data-name="Group 16005" transform="translate(29.457 17.264)">
            <g id="Group_16004" data-name="Group 16004">
              <path id="Path_5287" data-name="Path 5287" d="M190.762,275.343a4.379,4.379,0,0,1-.487.687c-.332.426-.8,1.053-1.36,1.838a47.057,47.057,0,0,0-6.673,13.442c-.287.921-.5,1.672-.642,2.194a4.361,4.361,0,0,1-.253.8,4.415,4.415,0,0,1,.135-.831c.1-.532.288-1.3.549-2.229a41.213,41.213,0,0,1,6.706-13.509c.585-.773,1.081-1.381,1.443-1.785A4.367,4.367,0,0,1,190.762,275.343Z" transform="translate(-181.343 -275.342)" fill="#263238"/>
            </g>
          </g>
          <g id="Group_16007" data-name="Group 16007" transform="translate(9.004 6.74)">
            <g id="Group_16006" data-name="Group 16006">
              <path id="Path_5288" data-name="Path 5288" d="M169.445,257.688a.771.771,0,0,1-.08.241,4.357,4.357,0,0,1-.318.656,7.8,7.8,0,0,1-1.725,2.049,13.722,13.722,0,0,1-3.4,2.054,35.458,35.458,0,0,1-4.589,1.577,46.4,46.4,0,0,1-8.661,1.545c-1.122.094-2.035.114-2.664.125a5.854,5.854,0,0,1-.978-.033,6.034,6.034,0,0,1,.973-.088c.626-.048,1.533-.1,2.649-.223a52.589,52.589,0,0,0,8.6-1.626,38.076,38.076,0,0,0,4.557-1.54,14.166,14.166,0,0,0,3.372-1.96A9.215,9.215,0,0,0,169.445,257.688Z" transform="translate(-147.033 -257.687)" fill="#263238"/>
            </g>
          </g>
          <g id="Group_16009" data-name="Group 16009" transform="translate(84.715 16.848)">
            <g id="Group_16008" data-name="Group 16008">
              <path id="Path_5289" data-name="Path 5289" d="M276.2,274.645a4.153,4.153,0,0,1,.343.75c.2.493.472,1.21.78,2.106.622,1.792,1.384,4.3,2.055,7.118.272,1.141.511,2.244.712,3.257l.095.477-.342-.344a10.931,10.931,0,0,0-2.166-1.815,6.491,6.491,0,0,0-1.091-.482,4.419,4.419,0,0,0-.982-.26,1.345,1.345,0,0,0-1.255.482c-.213.261-.287.438-.311.424-.008,0,.006-.048.041-.132a1.805,1.805,0,0,1,.193-.352,1.49,1.49,0,0,1,.483-.439,1.536,1.536,0,0,1,.865-.165,4.392,4.392,0,0,1,1.038.236,6.387,6.387,0,0,1,1.142.47,10.7,10.7,0,0,1,2.249,1.824l-.247.134c-.21-1.009-.454-2.106-.725-3.244-.669-2.806-1.394-5.317-1.962-7.122-.275-.856-.5-1.572-.686-2.133A4.18,4.18,0,0,1,276.2,274.645Z" transform="translate(-274.039 -274.645)" fill="#263238"/>
            </g>
          </g>
          <g id="Group_16011" data-name="Group 16011" transform="translate(96.372 14.887)">
            <g id="Group_16010" data-name="Group 16010">
              <path id="Path_5290" data-name="Path 5290" d="M296.5,282.18a10.635,10.635,0,0,1-.342-1.612c-.19-1-.478-2.368-.876-3.862s-.836-2.826-1.17-3.785a10.777,10.777,0,0,1-.509-1.567,7.266,7.266,0,0,1,.714,1.49,32.585,32.585,0,0,1,2.057,7.689A7.324,7.324,0,0,1,296.5,282.18Z" transform="translate(-293.595 -271.354)" fill="#263238"/>
            </g>
          </g>
          <g id="Group_16013" data-name="Group 16013" transform="translate(96.974 14.756)">
            <g id="Group_16012" data-name="Group 16012">
              <path id="Path_5291" data-name="Path 5291" d="M300.147,283.02c-.052.006-.143-.737-.408-1.909a21.756,21.756,0,0,0-3.932-8.434c-.727-.957-1.238-1.5-1.2-1.54.015-.015.157.108.4.343a12.928,12.928,0,0,1,.971,1.06,18.73,18.73,0,0,1,3.975,8.526,12.908,12.908,0,0,1,.188,1.425A1.758,1.758,0,0,1,300.147,283.02Z" transform="translate(-294.605 -271.135)" fill="#263238"/>
            </g>
          </g>
          <g id="Group_16015" data-name="Group 16015" transform="translate(110.147 20.848)">
            <g id="Group_16014" data-name="Group 16014">
              <path id="Path_5292" data-name="Path 5292" d="M318.3,281.354a3.371,3.371,0,0,1-.138.726c-.1.463-.247,1.133-.382,1.969a60.339,60.339,0,0,0-.674,6.582c-.132,2.584-.147,4.929-.122,6.625.015.8.027,1.471.037,2.01a3.4,3.4,0,0,1-.014.74,3.351,3.351,0,0,1-.107-.733c-.046-.473-.1-1.16-.136-2.01-.081-1.7-.1-4.052.032-6.648a47.279,47.279,0,0,1,.768-6.6,19.677,19.677,0,0,1,.481-1.96A3.4,3.4,0,0,1,318.3,281.354Z" transform="translate(-316.704 -281.354)" fill="#263238"/>
            </g>
          </g>
          <g id="Group_16017" data-name="Group 16017" transform="translate(108.489 6.236)">
            <g id="Group_16016" data-name="Group 16016">
              <path id="Path_5293" data-name="Path 5293" d="M336.786,264.234a5.848,5.848,0,0,1-.967-.109l-2.617-.408c-2.207-.359-5.252-.875-8.613-1.464a40.415,40.415,0,0,1-4.718-1.005,12.1,12.1,0,0,1-3.575-1.681,7.815,7.815,0,0,1-1.9-1.871,4.888,4.888,0,0,1-.377-.619.769.769,0,0,1-.1-.233,9.087,9.087,0,0,0,2.5,2.542,12.373,12.373,0,0,0,3.531,1.587,44.1,44.1,0,0,0,4.691.973c3.36.589,6.4,1.14,8.6,1.553l2.6.506A5.9,5.9,0,0,1,336.786,264.234Z" transform="translate(-313.922 -256.843)" fill="#263238"/>
            </g>
          </g>
          <g id="Group_16019" data-name="Group 16019" transform="translate(84.714 28.564)">
            <g id="Group_16018" data-name="Group 16018">
              <path id="Path_5294" data-name="Path 5294" d="M289.8,356.635a.812.812,0,0,1,.076-.163l.249-.463c.228-.4.539-1.007.942-1.784a56.607,56.607,0,0,0,2.881-6.829,36.815,36.815,0,0,0,1.327-4.933,12.212,12.212,0,0,0-.017-5.756c-.715-1.946-1.326-4.048-2.028-6.183a58.306,58.306,0,0,0-2.665-6.433,49.451,49.451,0,0,0-3.332-6.111,29.857,29.857,0,0,0-1.948-2.669c-.684-.836-1.426-1.585-2.122-2.361l-3.976-4.353a8.916,8.916,0,0,1-1.446-2.266c-.379-.773-.708-1.528-1-2.258a47.609,47.609,0,0,1-2.244-7.088c-.2-.856-.313-1.529-.379-1.986-.028-.215-.051-.387-.069-.522a.748.748,0,0,1-.013-.179.767.767,0,0,1,.044.175c.026.133.058.3.1.515.086.453.222,1.12.435,1.97a51.108,51.108,0,0,0,2.33,7.032c.3.724.63,1.473,1.01,2.235a8.743,8.743,0,0,0,1.427,2.206l3.987,4.324c.691.766,1.449,1.527,2.143,2.37a29.835,29.835,0,0,1,1.974,2.691,49.114,49.114,0,0,1,3.358,6.145,57.787,57.787,0,0,1,2.673,6.468c.7,2.152,1.3,4.237,2.01,6.186a12.376,12.376,0,0,1,0,5.9,36.355,36.355,0,0,1-1.372,4.957,52.288,52.288,0,0,1-2.981,6.812c-.421.771-.75,1.368-1,1.76l-.275.448A.783.783,0,0,1,289.8,356.635Z" transform="translate(-274.039 -294.297)" fill="#263238"/>
            </g>
          </g>
          <g id="Group_16021" data-name="Group 16021" transform="translate(84.717 20.115)" opacity="0.3">
            <g id="Group_16020" data-name="Group 16020">
              <path id="Path_5295" data-name="Path 5295" d="M282.427,293.735a38.817,38.817,0,0,0-4.841-13.61c.647,3.3,1.717,6.693,2.364,9.994-1.313-1.684-5.063-3.754-5.908-1.546l.327,1.761a13.932,13.932,0,0,1,6.318,4.364c.285.349.642.751,1.089.693C282.436,295.305,282.53,294.392,282.427,293.735Z" transform="translate(-274.043 -280.125)"/>
            </g>
          </g>
          <g id="Group_16023" data-name="Group 16023" transform="translate(96.73 14.754)" opacity="0.3">
            <g id="Group_16022" data-name="Group 16022">
              <path id="Path_5296" data-name="Path 5296" d="M294.385,271.233a3.682,3.682,0,0,0,.348,2.888,26.966,26.966,0,0,1,1.711,6.814,4.872,4.872,0,0,0,.706,2.472,1.508,1.508,0,0,0,2.244.278,2.068,2.068,0,0,0,.227-1.6,22.7,22.7,0,0,0-4.793-10.948" transform="translate(-294.196 -271.132)"/>
            </g>
          </g>
          <g id="Group_16025" data-name="Group 16025" transform="translate(109.156 7.217)" opacity="0.3">
            <g id="Group_16024" data-name="Group 16024">
              <path id="Path_5297" data-name="Path 5297" d="M315.159,258.488a5.2,5.2,0,0,0,2.065,3.224,12.417,12.417,0,0,0,3.5,1.741c4.7,1.666,9.865,2.483,14.676,1.182l-10.52-1.738a29.724,29.724,0,0,1-5.347-1.226,9.956,9.956,0,0,1-4.491-3.041" transform="translate(-315.04 -258.488)"/>
            </g>
          </g>
          <g id="Group_16027" data-name="Group 16027" transform="translate(114.184 12.033)" opacity="0.3">
            <g id="Group_16026" data-name="Group 16026">
              <path id="Path_5298" data-name="Path 5298" d="M323.475,266.566" transform="translate(-323.475 -266.566)" fill="none" stroke="#000" stroke-width="1"/>
            </g>
          </g>
          <g id="Group_16029" data-name="Group 16029" transform="translate(35.796 18.626)" opacity="0.3">
            <g id="Group_16028" data-name="Group 16028">
              <path id="Path_5299" data-name="Path 5299" d="M205.537,277.626a34.819,34.819,0,0,0-11.919,12.506,22.977,22.977,0,0,0-1.443,3.032c-.267.7-.358,1.722.345,1.989.665.253,1.266-.472,1.618-1.09a100.61,100.61,0,0,1,11.582-16.29" transform="translate(-191.977 -277.626)"/>
            </g>
          </g>
          <g id="Group_16031" data-name="Group 16031" transform="translate(48.158 23.702)" opacity="0.3">
            <g id="Group_16030" data-name="Group 16030">
              <path id="Path_5300" data-name="Path 5300" d="M219.914,296.528q-.04-3.683-.082-7.365a3.068,3.068,0,0,0-1.127-2.743,1.943,1.943,0,0,0-2.079.058c-.735.343-1.456.83-2.048,1.091l-.162.08a10.5,10.5,0,0,0-1.7,3.532,6.158,6.158,0,0,0,2.4-.865,2.23,2.23,0,0,1,2.422.085,2.617,2.617,0,0,1,.593,1.581q.561,4.051,1.121,8.1A6.314,6.314,0,0,0,219.914,296.528Z" transform="translate(-212.715 -286.141)"/>
            </g>
          </g>
          <g id="Group_16033" data-name="Group 16033" transform="translate(9.762 8.988)" opacity="0.3">
            <g id="Group_16032" data-name="Group 16032">
              <path id="Path_5301" data-name="Path 5301" d="M148.3,267.519a19.528,19.528,0,0,0,14.375-.382c2.593-1.122,5.065-2.994,5.944-5.679-6.223,3.649-12.942,5.327-20.128,5.967" transform="translate(-148.305 -261.458)"/>
            </g>
          </g>
          <g id="Group_16035" data-name="Group 16035" transform="translate(8.666 2.219)">
            <g id="Group_16034" data-name="Group 16034">
              <path id="Path_5302" data-name="Path 5302" d="M153.79,262.15c-.055.008-.17-.8-.526-2.051a18.878,18.878,0,0,0-5.218-8.583c-.949-.894-1.61-1.367-1.577-1.412a2.027,2.027,0,0,1,.493.292,12.173,12.173,0,0,1,1.232.957,16.959,16.959,0,0,1,5.282,8.69,12.082,12.082,0,0,1,.282,1.535A2.016,2.016,0,0,1,153.79,262.15Z" transform="translate(-146.467 -250.103)" fill="#fff"/>
            </g>
          </g>
          <g id="Group_16037" data-name="Group 16037" transform="translate(17.754 0.963)">
            <g id="Group_16036" data-name="Group 16036">
              <path id="Path_5303" data-name="Path 5303" d="M169.83,257.516c-.055.012-.209-.7-.643-1.789a14.009,14.009,0,0,0-5.81-6.81c-1-.6-1.686-.864-1.665-.916a1.638,1.638,0,0,1,.5.143,8.918,8.918,0,0,1,1.278.582,12.773,12.773,0,0,1,5.908,6.923,9.029,9.029,0,0,1,.374,1.354A1.655,1.655,0,0,1,169.83,257.516Z" transform="translate(-161.711 -247.997)" fill="#fff"/>
            </g>
          </g>
          <g id="Group_16039" data-name="Group 16039" transform="translate(17.861 14.117)">
            <g id="Group_16038" data-name="Group 16038">
              <path id="Path_5304" data-name="Path 5304" d="M176.742,281.035a3.35,3.35,0,0,1-.663-.305c-.418-.213-1.013-.54-1.739-.962a61.487,61.487,0,0,1-10.532-7.781c-.616-.569-1.1-1.042-1.43-1.379a3.287,3.287,0,0,1-.486-.544,3.29,3.29,0,0,1,.57.457l1.493,1.3c1.265,1.1,3.046,2.569,5.1,4.086s3.984,2.784,5.4,3.671l1.685,1.044A3.312,3.312,0,0,1,176.742,281.035Z" transform="translate(-161.891 -270.063)" fill="#fff"/>
            </g>
          </g>
          <g id="Group_16041" data-name="Group 16041" transform="translate(27.807 10.102)">
            <g id="Group_16040" data-name="Group 16040">
              <path id="Path_5305" data-name="Path 5305" d="M190.47,269.789c-.041.075-2.737-1.31-6.021-3.093s-5.914-3.291-5.873-3.366,2.736,1.309,6.021,3.093S190.511,269.714,190.47,269.789Z" transform="translate(-178.575 -263.328)" fill="#fff"/>
            </g>
          </g>
          <g id="Group_16043" data-name="Group 16043" transform="translate(34.733 22.892)">
            <g id="Group_16042" data-name="Group 16042">
              <path id="Path_5306" data-name="Path 5306" d="M198.025,289.366a13.177,13.177,0,0,0-7.831-4.564,4.057,4.057,0,0,1,1.37.126,10.381,10.381,0,0,1,5.674,3.307A4.082,4.082,0,0,1,198.025,289.366Z" transform="translate(-190.195 -284.782)" fill="#fff"/>
            </g>
          </g>
          <g id="Group_16045" data-name="Group 16045" transform="translate(41.701 14.266)">
            <g id="Group_16044" data-name="Group 16044">
              <path id="Path_5307" data-name="Path 5307" d="M207.608,277.482c-.056,0-.082-.547-.31-1.39a8.376,8.376,0,0,0-4.128-5.165c-.772-.408-1.3-.554-1.288-.609a3.709,3.709,0,0,1,1.385.412,7.693,7.693,0,0,1,4.244,5.31A3.7,3.7,0,0,1,207.608,277.482Z" transform="translate(-201.882 -270.313)" fill="#fff"/>
            </g>
          </g>
          <g id="Group_16047" data-name="Group 16047" transform="translate(28.948 38.871)">
            <g id="Group_16046" data-name="Group 16046">
              <path id="Path_5308" data-name="Path 5308" d="M187.59,315.8a12.3,12.3,0,0,1-.788-.979,8.807,8.807,0,0,0-5.072-2.967,12.36,12.36,0,0,1-1.24-.207,3.283,3.283,0,0,1,1.274-.01,7.77,7.77,0,0,1,5.211,3.047A3.276,3.276,0,0,1,187.59,315.8Z" transform="translate(-180.49 -311.588)" fill="#fff"/>
            </g>
          </g>
          <g id="Group_16049" data-name="Group 16049" transform="translate(37.121 43.393)">
            <g id="Group_16048" data-name="Group 16048">
              <path id="Path_5309" data-name="Path 5309" d="M206.163,322.323a9.058,9.058,0,0,1-1.812-.179,42.792,42.792,0,0,1-8.486-2.231,9.03,9.03,0,0,1-1.666-.734,12.649,12.649,0,0,1,1.739.527c1.064.347,2.541.806,4.191,1.241s3.162.76,4.259.981A12.744,12.744,0,0,1,206.163,322.323Z" transform="translate(-194.2 -319.173)" fill="#fff"/>
            </g>
          </g>
          <g id="Group_16051" data-name="Group 16051" transform="translate(41.577 29.834)">
            <g id="Group_16050" data-name="Group 16050">
              <path id="Path_5310" data-name="Path 5310" d="M215,301.3a2.015,2.015,0,0,1-.57.033,14.654,14.654,0,0,1-1.55-.089,20.98,20.98,0,0,1-9.549-3.492,14.693,14.693,0,0,1-1.242-.932c-.28-.237-.427-.376-.414-.393.032-.041.673.452,1.775,1.141a24.237,24.237,0,0,0,9.456,3.459C214.193,301.216,215,301.252,215,301.3Z" transform="translate(-201.675 -296.429)" fill="#fff"/>
            </g>
          </g>
          <g id="Group_16053" data-name="Group 16053" transform="translate(53.095 20.207)">
            <g id="Group_16052" data-name="Group 16052">
              <path id="Path_5311" data-name="Path 5311" d="M227.174,282.918c-.044.029-.272-.294-.726-.723a6.157,6.157,0,0,0-4.427-1.663A8.373,8.373,0,0,1,221,280.6a2.228,2.228,0,0,1,1.005-.286,5.463,5.463,0,0,1,4.6,1.728A2.224,2.224,0,0,1,227.174,282.918Z" transform="translate(-220.998 -280.278)" fill="#fff"/>
            </g>
          </g>
          <g id="Group_16055" data-name="Group 16055" transform="translate(26.599 52.986)">
            <g id="Group_16054" data-name="Group 16054">
              <path id="Path_5312" data-name="Path 5312" d="M187.628,343.806a1.95,1.95,0,0,1-.542-.145,14.906,14.906,0,0,1-1.422-.56,21.543,21.543,0,0,1-7.931-6.113,14.668,14.668,0,0,1-.9-1.232,1.929,1.929,0,0,1-.278-.488c.042-.03.508.615,1.35,1.58a25.176,25.176,0,0,0,7.856,6.055C186.9,343.47,187.646,343.757,187.628,343.806Z" transform="translate(-176.549 -335.266)" fill="#fff"/>
            </g>
          </g>
          <g id="Group_16057" data-name="Group 16057" transform="translate(22.355 72.243)">
            <g id="Group_16056" data-name="Group 16056">
              <path id="Path_5313" data-name="Path 5313" d="M176.01,373.351a4.8,4.8,0,0,1-1.105-.668,29.12,29.12,0,0,1-4.668-4.1,4.773,4.773,0,0,1-.8-1.009c.068-.062,1.418,1.362,3.234,2.951S176.063,373.275,176.01,373.351Z" transform="translate(-169.43 -367.571)" fill="#fff"/>
            </g>
          </g>
          <g id="Group_16059" data-name="Group 16059" transform="translate(18.143 90.467)">
            <g id="Group_16058" data-name="Group 16058">
              <path id="Path_5314" data-name="Path 5314" d="M167.738,405.352a4.373,4.373,0,0,1-1.067-.8,15.128,15.128,0,0,1-2.135-2.414,20.511,20.511,0,0,1-1.652-2.762,5.045,5.045,0,0,1-.514-1.23c.094-.049.981,1.784,2.418,3.812A35.188,35.188,0,0,0,167.738,405.352Z" transform="translate(-162.364 -398.141)" fill="#fff"/>
            </g>
          </g>
          <g id="Group_16061" data-name="Group 16061" transform="translate(89.565 38.156)">
            <g id="Group_16060" data-name="Group 16060">
              <path id="Path_5315" data-name="Path 5315" d="M302.9,310.391a4.42,4.42,0,0,1-.7.473,21.376,21.376,0,0,1-2.035,1.1,28.019,28.019,0,0,1-3.178,1.3,29.009,29.009,0,0,1-8.256,1.521,28.092,28.092,0,0,1-3.434-.084,21.686,21.686,0,0,1-2.293-.3,4.46,4.46,0,0,1-.827-.192,4.5,4.5,0,0,1,.845.072c.539.073,1.323.148,2.291.206a32.061,32.061,0,0,0,3.406.017A31.164,31.164,0,0,0,296.9,313a31.987,31.987,0,0,0,3.177-1.229c.884-.4,1.59-.748,2.067-1.009A4.4,4.4,0,0,1,302.9,310.391Z" transform="translate(-282.176 -310.389)" fill="#fff"/>
            </g>
          </g>
          <g id="Group_16063" data-name="Group 16063" transform="translate(85.164 31.179)">
            <g id="Group_16062" data-name="Group 16062">
              <path id="Path_5316" data-name="Path 5316" d="M281.627,298.7a11.072,11.072,0,0,1-6.835.524c.013-.094,1.548.122,3.435-.029S281.6,298.6,281.627,298.7Z" transform="translate(-274.793 -298.684)" fill="#fff"/>
            </g>
          </g>
          <g id="Group_16065" data-name="Group 16065" transform="translate(90.132 23.809)">
            <g id="Group_16064" data-name="Group 16064">
              <path id="Path_5317" data-name="Path 5317" d="M291.626,286.463c0,.053-.545.008-1.407.079a10.283,10.283,0,0,0-6.07,2.632c-.64.581-.978,1.006-1.019.974a3.987,3.987,0,0,1,.867-1.132,9.114,9.114,0,0,1,6.21-2.693A4.016,4.016,0,0,1,291.626,286.463Z" transform="translate(-283.128 -286.321)" fill="#fff"/>
            </g>
          </g>
          <g id="Group_16067" data-name="Group 16067" transform="translate(98.783 21.728)">
            <g id="Group_16066" data-name="Group 16066">
              <path id="Path_5318" data-name="Path 5318" d="M300.115,282.846c.05.064-.439.463-1.186.557a1.6,1.6,0,0,1-1.289-.234c.025-.087.58.019,1.249-.073S300.069,282.768,300.115,282.846Z" transform="translate(-297.639 -282.831)" fill="#fff"/>
            </g>
          </g>
          <g id="Group_16069" data-name="Group 16069" transform="translate(100.782 10.086)">
            <g id="Group_16068" data-name="Group 16068">
              <path id="Path_5319" data-name="Path 5319" d="M313.262,263.3a2.209,2.209,0,0,1-.37.469c-.252.29-.634.692-1.124,1.173a33.928,33.928,0,0,1-8.728,6.161c-.617.3-1.124.526-1.481.666a2.2,2.2,0,0,1-.566.192c-.02-.045.745-.407,1.946-1.053a42.954,42.954,0,0,0,8.678-6.126C312.629,263.867,313.227,263.268,313.262,263.3Z" transform="translate(-300.993 -263.3)" fill="#fff"/>
            </g>
          </g>
          <g id="Group_16071" data-name="Group 16071" transform="translate(110.789 12.968)">
            <g id="Group_16070" data-name="Group 16070">
              <path id="Path_5320" data-name="Path 5320" d="M331.366,268.136a3.936,3.936,0,0,1-.29.738c-.2.47-.531,1.131-.976,1.929a29.341,29.341,0,0,1-9.726,10.279,21.352,21.352,0,0,1-1.872,1.081,3.942,3.942,0,0,1-.721.33,3.866,3.866,0,0,1,.662-.436c.438-.257,1.06-.651,1.81-1.159a32.451,32.451,0,0,0,9.657-10.206c.466-.778.825-1.42,1.058-1.872A3.851,3.851,0,0,1,331.366,268.136Z" transform="translate(-317.781 -268.136)" fill="#fff"/>
            </g>
          </g>
          <g id="Group_16073" data-name="Group 16073" transform="translate(119.788 4.79)">
            <g id="Group_16072" data-name="Group 16072">
              <path id="Path_5321" data-name="Path 5321" d="M338.1,254.417a3.522,3.522,0,0,1-.236,1.272,8.78,8.78,0,0,1-3.807,4.833,3.53,3.53,0,0,1-1.181.526,10.927,10.927,0,0,0,5.225-6.631Z" transform="translate(-332.876 -254.416)" fill="#fff"/>
            </g>
          </g>
          <g id="Group_16075" data-name="Group 16075" transform="translate(87.619 15.462)">
            <g id="Group_16074" data-name="Group 16074">
              <path id="Path_5322" data-name="Path 5322" d="M286.937,272.546a12.675,12.675,0,0,1-1.3,0,9.585,9.585,0,0,0-5.724,2.054,12.71,12.71,0,0,1-1,.823,3.533,3.533,0,0,1,.861-.992,8.4,8.4,0,0,1,5.867-2.105A3.517,3.517,0,0,1,286.937,272.546Z" transform="translate(-278.912 -272.319)" fill="#fff"/>
            </g>
          </g>
          <g id="Group_16077" data-name="Group 16077" transform="translate(83.933 19.985)">
            <g id="Group_16076" data-name="Group 16076">
              <path id="Path_5323" data-name="Path 5323" d="M276.951,281.743c-.06.072-.873-.581-2.038-1.07s-2.194-.635-2.184-.728a5.555,5.555,0,0,1,4.222,1.8Z" transform="translate(-272.729 -279.906)" fill="#fff"/>
            </g>
          </g>
          <g id="Group_16079" data-name="Group 16079" transform="translate(101.51 55.044)">
            <g id="Group_16078" data-name="Group 16078">
              <path id="Path_5324" data-name="Path 5324" d="M313.867,338.723c.012.018-.121.127-.373.311a10.941,10.941,0,0,1-1.115.7,16.03,16.03,0,0,1-8.38,2,10.99,10.99,0,0,1-1.313-.123,1.445,1.445,0,0,1-.472-.108c.006-.052.688.018,1.788.011a18.624,18.624,0,0,0,8.274-1.978C313.261,339.05,313.838,338.68,313.867,338.723Z" transform="translate(-302.215 -338.719)" fill="#fff"/>
            </g>
          </g>
          <g id="Group_16081" data-name="Group 16081" transform="translate(106.536 69.758)">
            <g id="Group_16080" data-name="Group 16080">
              <path id="Path_5325" data-name="Path 5325" d="M318.951,363.4a3.781,3.781,0,0,1-.968.9,9.785,9.785,0,0,1-6.025,1.9,3.8,3.8,0,0,1-1.312-.186,12.459,12.459,0,0,0,8.305-2.618Z" transform="translate(-310.646 -363.401)" fill="#fff"/>
            </g>
          </g>
          <g id="Group_16083" data-name="Group 16083" transform="translate(102.179 88.425)">
            <g id="Group_16082" data-name="Group 16082">
              <path id="Path_5326" data-name="Path 5326" d="M317.636,397.015a2.111,2.111,0,0,1-.561.165,13.766,13.766,0,0,1-1.571.265,19.308,19.308,0,0,1-10.276-1.65,13.615,13.615,0,0,1-1.409-.743,2.109,2.109,0,0,1-.482-.332c.027-.047.75.359,1.978.874a21.819,21.819,0,0,0,10.167,1.632C316.811,397.121,317.625,396.961,317.636,397.015Z" transform="translate(-303.337 -394.716)" fill="#fff"/>
            </g>
          </g>
          <g id="Group_16085" data-name="Group 16085" transform="translate(101.374 105.045)">
            <g id="Group_16084" data-name="Group 16084">
              <path id="Path_5327" data-name="Path 5327" d="M317.914,422.6a2.6,2.6,0,0,1-.548.346,15.2,15.2,0,0,1-1.59.768,20.883,20.883,0,0,1-11.452,1.34,15.176,15.176,0,0,1-1.725-.38,2.582,2.582,0,0,1-.613-.21c.014-.054.9.178,2.37.373a23.19,23.19,0,0,0,11.338-1.326C317.075,422.982,317.888,422.551,317.914,422.6Z" transform="translate(-301.986 -422.596)" fill="#fff"/>
            </g>
          </g>
        </g>
        <g id="Group_16304" data-name="Group 16304" transform="translate(53.975 1.158)">
          <g id="Group_16295" data-name="Group 16295">
            <g id="Group_16089" data-name="Group 16089" transform="translate(21.227)">
              <g id="Group_16088" data-name="Group 16088">
                <g id="Group_16087" data-name="Group 16087">
                  <path id="Path_5328" data-name="Path 5328" d="M260.524,181.668a5.916,5.916,0,0,0-3.331-3.287,3.423,3.423,0,0,0-4.116,1.554l3.6,4.061a3.584,3.584,0,0,0,1.5,1.4,2.068,2.068,0,0,0,1.989-.108,2.135,2.135,0,0,0,.834-1.716A4.378,4.378,0,0,0,260.524,181.668Z" transform="translate(-253.077 -178.21)" fill="#ff725e"/>
                </g>
              </g>
            </g>
            <g id="Group_16092" data-name="Group 16092" transform="translate(0.059 1.599)">
              <g id="Group_16091" data-name="Group 16091">
                <g id="Group_16090" data-name="Group 16090">
                  <path id="Path_5329" data-name="Path 5329" d="M256.2,201.16a23.054,23.054,0,0,0-10.086-17.289c-5.828-3.713-13.8-4.086-19.635-.382a20.5,20.5,0,0,0-7.909,10.254c-1.534,4.117-.868,7.528-.833,11.921.018,2.276.308,8.4,2.272,9.545l30.66,5.5A30.149,30.149,0,0,0,256.2,201.16Z" transform="translate(-217.568 -180.891)" fill="#263238"/>
                </g>
              </g>
            </g>
            <g id="Group_16095" data-name="Group 16095" transform="translate(0 2.638)">
              <g id="Group_16094" data-name="Group 16094">
                <g id="Group_16093" data-name="Group 16093">
                  <path id="Path_5330" data-name="Path 5330" d="M255.082,196.587c-.688-4.092-4.684-8.065-7.8-10.807-3.554-3.129-4.054-2.988-8.788-3.108-4.992-.126-10.446-.105-14.34,3.019a17.525,17.525,0,0,0-4.684,6.755c-2.6,5.841-2.2,12.51-1.4,18.854s2.139,12.331,7.332,16.061l21.824-3.381c4.814-1.784,6.42-7.285,7.782-12.235S255.934,201.65,255.082,196.587Z" transform="translate(-217.468 -182.635)" fill="#263238"/>
                </g>
              </g>
            </g>
            <g id="Group_16242" data-name="Group 16242" transform="translate(1.078 9.116)">
              <g id="Group_16241" data-name="Group 16241">
                <g id="Group_16098" data-name="Group 16098">
                  <g id="Group_16097" data-name="Group 16097">
                    <g id="Group_16096" data-name="Group 16096">
                      <path id="Path_5331" data-name="Path 5331" d="M219.547,205.047c.306-6,6.7-12.07,12.68-11.51l19.426,3.453-.024,3.228-1.886,46.644c-15.345,5.862-21.525-1.038-21.525-1.038l1.074-9.833s-7.678-1.18-9.386-11.158C219.057,219.871,219.208,211.716,219.547,205.047Z" transform="translate(-219.277 -193.502)" fill="#ffbe9d"/>
                    </g>
                  </g>
                </g>
                <g id="Group_16113" data-name="Group 16113" transform="translate(4.73 17.785)">
                  <g id="Group_16112" data-name="Group 16112">
                    <g id="Group_16111" data-name="Group 16111">
                      <g id="Group_16110" data-name="Group 16110">
                        <g id="Group_16109" data-name="Group 16109">
                          <g id="Group_16108" data-name="Group 16108">
                            <g id="Group_16107" data-name="Group 16107">
                              <g id="Group_16106" data-name="Group 16106">
                                <g id="Group_16105" data-name="Group 16105">
                                  <g id="Group_16104" data-name="Group 16104">
                                    <g id="Group_16103" data-name="Group 16103">
                                      <g id="Group_16102" data-name="Group 16102">
                                        <g id="Group_16101" data-name="Group 16101">
                                          <g id="Group_16100" data-name="Group 16100">
                                            <g id="Group_16099" data-name="Group 16099">
                                              <path id="Path_5332" data-name="Path 5332" d="M227.213,224.51a1.282,1.282,0,0,0,1.252,1.279,1.227,1.227,0,0,0,1.308-1.172,1.283,1.283,0,0,0-1.251-1.279A1.227,1.227,0,0,0,227.213,224.51Z" transform="translate(-227.212 -223.336)" fill="#263238"/>
                                            </g>
                                          </g>
                                        </g>
                                      </g>
                                    </g>
                                  </g>
                                </g>
                              </g>
                            </g>
                          </g>
                        </g>
                      </g>
                    </g>
                  </g>
                </g>
                <g id="Group_16129" data-name="Group 16129" transform="translate(2.803 15.09)">
                  <g id="Group_16128" data-name="Group 16128">
                    <g id="Group_16127" data-name="Group 16127">
                      <g id="Group_16126" data-name="Group 16126">
                        <g id="Group_16125" data-name="Group 16125">
                          <g id="Group_16124" data-name="Group 16124">
                            <g id="Group_16123" data-name="Group 16123">
                              <g id="Group_16122" data-name="Group 16122">
                                <g id="Group_16121" data-name="Group 16121">
                                  <g id="Group_16120" data-name="Group 16120">
                                    <g id="Group_16119" data-name="Group 16119">
                                      <g id="Group_16118" data-name="Group 16118">
                                        <g id="Group_16117" data-name="Group 16117">
                                          <g id="Group_16116" data-name="Group 16116">
                                            <g id="Group_16115" data-name="Group 16115">
                                              <g id="Group_16114" data-name="Group 16114">
                                                <path id="Path_5333" data-name="Path 5333" d="M224,220.194c.161.165,1.124-.566,2.5-.578,1.378-.033,2.4.665,2.547.494.073-.075-.093-.376-.538-.691a3.52,3.52,0,0,0-2.041-.6,3.381,3.381,0,0,0-1.99.669C224.062,219.815,223.921,220.12,224,220.194Z" transform="translate(-223.98 -218.815)" fill="#263238"/>
                                              </g>
                                            </g>
                                          </g>
                                        </g>
                                      </g>
                                    </g>
                                  </g>
                                </g>
                              </g>
                            </g>
                          </g>
                        </g>
                      </g>
                    </g>
                  </g>
                </g>
                <g id="Group_16144" data-name="Group 16144" transform="translate(17.859 17.785)">
                  <g id="Group_16143" data-name="Group 16143">
                    <g id="Group_16142" data-name="Group 16142">
                      <g id="Group_16141" data-name="Group 16141">
                        <g id="Group_16140" data-name="Group 16140">
                          <g id="Group_16139" data-name="Group 16139">
                            <g id="Group_16138" data-name="Group 16138">
                              <g id="Group_16137" data-name="Group 16137">
                                <g id="Group_16136" data-name="Group 16136">
                                  <g id="Group_16135" data-name="Group 16135">
                                    <g id="Group_16134" data-name="Group 16134">
                                      <g id="Group_16133" data-name="Group 16133">
                                        <g id="Group_16132" data-name="Group 16132">
                                          <g id="Group_16131" data-name="Group 16131">
                                            <g id="Group_16130" data-name="Group 16130">
                                              <path id="Path_5334" data-name="Path 5334" d="M249.236,224.51a1.282,1.282,0,0,0,1.252,1.279,1.227,1.227,0,0,0,1.308-1.172,1.283,1.283,0,0,0-1.251-1.279A1.227,1.227,0,0,0,249.236,224.51Z" transform="translate(-249.235 -223.336)" fill="#263238"/>
                                            </g>
                                          </g>
                                        </g>
                                      </g>
                                    </g>
                                  </g>
                                </g>
                              </g>
                            </g>
                          </g>
                        </g>
                      </g>
                    </g>
                  </g>
                </g>
                <g id="Group_16160" data-name="Group 16160" transform="translate(16.594 14.755)">
                  <g id="Group_16159" data-name="Group 16159">
                    <g id="Group_16158" data-name="Group 16158">
                      <g id="Group_16157" data-name="Group 16157">
                        <g id="Group_16156" data-name="Group 16156">
                          <g id="Group_16155" data-name="Group 16155">
                            <g id="Group_16154" data-name="Group 16154">
                              <g id="Group_16153" data-name="Group 16153">
                                <g id="Group_16152" data-name="Group 16152">
                                  <g id="Group_16151" data-name="Group 16151">
                                    <g id="Group_16150" data-name="Group 16150">
                                      <g id="Group_16149" data-name="Group 16149">
                                        <g id="Group_16148" data-name="Group 16148">
                                          <g id="Group_16147" data-name="Group 16147">
                                            <g id="Group_16146" data-name="Group 16146">
                                              <g id="Group_16145" data-name="Group 16145">
                                                <path id="Path_5335" data-name="Path 5335" d="M247.136,219.631c.162.165,1.125-.565,2.5-.578,1.378-.033,2.4.665,2.547.494.072-.076-.092-.376-.538-.691a3.511,3.511,0,0,0-2.041-.6,3.376,3.376,0,0,0-1.99.669C247.2,219.253,247.057,219.557,247.136,219.631Z" transform="translate(-247.115 -218.253)" fill="#263238"/>
                                              </g>
                                            </g>
                                          </g>
                                        </g>
                                      </g>
                                    </g>
                                  </g>
                                </g>
                              </g>
                            </g>
                          </g>
                        </g>
                      </g>
                    </g>
                  </g>
                </g>
                <g id="Group_16175" data-name="Group 16175" transform="translate(7.589 14.65)">
                  <g id="Group_16174" data-name="Group 16174">
                    <g id="Group_16173" data-name="Group 16173">
                      <g id="Group_16172" data-name="Group 16172">
                        <g id="Group_16171" data-name="Group 16171">
                          <g id="Group_16170" data-name="Group 16170">
                            <g id="Group_16169" data-name="Group 16169">
                              <g id="Group_16168" data-name="Group 16168">
                                <g id="Group_16167" data-name="Group 16167">
                                  <g id="Group_16166" data-name="Group 16166">
                                    <g id="Group_16165" data-name="Group 16165">
                                      <g id="Group_16164" data-name="Group 16164">
                                        <g id="Group_16163" data-name="Group 16163">
                                          <g id="Group_16162" data-name="Group 16162">
                                            <g id="Group_16161" data-name="Group 16161">
                                              <path id="Path_5336" data-name="Path 5336" d="M235.536,229.58a9.179,9.179,0,0,0-2.246-.377c-.352-.032-.687-.1-.749-.338a1.8,1.8,0,0,1,.223-1.047l1.01-2.7a46.166,46.166,0,0,0,2.255-7.046,46.231,46.231,0,0,0-2.817,6.848q-.505,1.419-.966,2.711a2.044,2.044,0,0,0-.166,1.385.886.886,0,0,0,.586.508,2.389,2.389,0,0,0,.6.076A8.961,8.961,0,0,0,235.536,229.58Z" transform="translate(-232.008 -218.077)" fill="#263238"/>
                                            </g>
                                          </g>
                                        </g>
                                      </g>
                                    </g>
                                  </g>
                                </g>
                              </g>
                            </g>
                          </g>
                        </g>
                      </g>
                    </g>
                  </g>
                </g>
                <g id="Group_16189" data-name="Group 16189" transform="translate(10.019 38.759)">
                  <g id="Group_16188" data-name="Group 16188">
                    <g id="Group_16187" data-name="Group 16187">
                      <g id="Group_16186" data-name="Group 16186">
                        <g id="Group_16185" data-name="Group 16185">
                          <g id="Group_16184" data-name="Group 16184">
                            <g id="Group_16183" data-name="Group 16183">
                              <g id="Group_16182" data-name="Group 16182">
                                <g id="Group_16181" data-name="Group 16181">
                                  <g id="Group_16180" data-name="Group 16180">
                                    <g id="Group_16179" data-name="Group 16179">
                                      <g id="Group_16178" data-name="Group 16178">
                                        <g id="Group_16177" data-name="Group 16177">
                                          <g id="Group_16176" data-name="Group 16176">
                                            <path id="Path_5337" data-name="Path 5337" d="M236.085,262.277a26.467,26.467,0,0,0,13.687-3.757s-3.292,7.041-13.651,6.25Z" transform="translate(-236.085 -258.52)" fill="#eb996e"/>
                                          </g>
                                        </g>
                                      </g>
                                    </g>
                                  </g>
                                </g>
                              </g>
                            </g>
                          </g>
                        </g>
                      </g>
                    </g>
                  </g>
                </g>
                <g id="Group_16203" data-name="Group 16203" transform="translate(11.606 28.51)">
                  <g id="Group_16202" data-name="Group 16202">
                    <g id="Group_16201" data-name="Group 16201">
                      <g id="Group_16200" data-name="Group 16200">
                        <g id="Group_16199" data-name="Group 16199">
                          <g id="Group_16198" data-name="Group 16198">
                            <g id="Group_16197" data-name="Group 16197">
                              <g id="Group_16196" data-name="Group 16196">
                                <g id="Group_16195" data-name="Group 16195">
                                  <g id="Group_16194" data-name="Group 16194">
                                    <g id="Group_16193" data-name="Group 16193">
                                      <g id="Group_16192" data-name="Group 16192">
                                        <g id="Group_16191" data-name="Group 16191">
                                          <g id="Group_16190" data-name="Group 16190">
                                            <path id="Path_5338" data-name="Path 5338" d="M238.881,242.289a2.484,2.484,0,0,1,2.218-.95,2.271,2.271,0,0,1,1.577.821,1.439,1.439,0,0,1,.129,1.643,1.669,1.669,0,0,1-1.8.479,5.234,5.234,0,0,1-1.776-1.031,1.537,1.537,0,0,1-.4-.4.461.461,0,0,1,0-.513" transform="translate(-238.746 -241.328)" fill="#eb996e"/>
                                          </g>
                                        </g>
                                      </g>
                                    </g>
                                  </g>
                                </g>
                              </g>
                            </g>
                          </g>
                        </g>
                      </g>
                    </g>
                  </g>
                </g>
                <g id="Group_16218" data-name="Group 16218" transform="translate(11.588 29.045)">
                  <g id="Group_16217" data-name="Group 16217">
                    <g id="Group_16216" data-name="Group 16216">
                      <g id="Group_16215" data-name="Group 16215">
                        <g id="Group_16214" data-name="Group 16214">
                          <g id="Group_16213" data-name="Group 16213">
                            <g id="Group_16212" data-name="Group 16212">
                              <g id="Group_16211" data-name="Group 16211">
                                <g id="Group_16210" data-name="Group 16210">
                                  <g id="Group_16209" data-name="Group 16209">
                                    <g id="Group_16208" data-name="Group 16208">
                                      <g id="Group_16207" data-name="Group 16207">
                                        <g id="Group_16206" data-name="Group 16206">
                                          <g id="Group_16205" data-name="Group 16205">
                                            <g id="Group_16204" data-name="Group 16204">
                                              <path id="Path_5339" data-name="Path 5339" d="M238.773,244.787c.2.106.826-1.255,2.434-1.686s2.989.382,3.087.2c.058-.076-.2-.412-.807-.709a3.728,3.728,0,0,0-2.541-.241,3.248,3.248,0,0,0-1.954,1.454C238.679,244.346,238.677,244.753,238.773,244.787Z" transform="translate(-238.717 -242.225)" fill="#263238"/>
                                            </g>
                                          </g>
                                        </g>
                                      </g>
                                    </g>
                                  </g>
                                </g>
                              </g>
                            </g>
                          </g>
                        </g>
                      </g>
                    </g>
                  </g>
                </g>
                <g id="Group_16229" data-name="Group 16229" transform="translate(15.964 10.509)">
                  <g id="Group_16228" data-name="Group 16228">
                    <g id="Group_16227" data-name="Group 16227">
                      <g id="Group_16226" data-name="Group 16226">
                        <g id="Group_16225" data-name="Group 16225">
                          <g id="Group_16224" data-name="Group 16224">
                            <g id="Group_16223" data-name="Group 16223">
                              <g id="Group_16222" data-name="Group 16222">
                                <g id="Group_16221" data-name="Group 16221">
                                  <g id="Group_16220" data-name="Group 16220">
                                    <g id="Group_16219" data-name="Group 16219">
                                      <path id="Path_5340" data-name="Path 5340" d="M251.925,213.647c-.023-.4-1.393-.624-2.887-1.276-1.508-.622-2.622-1.452-2.925-1.191-.138.127-.021.53.38,1.03a5.486,5.486,0,0,0,4.427,1.88C251.559,214.031,251.93,213.834,251.925,213.647Z" transform="translate(-246.058 -211.13)" fill="#263238"/>
                                    </g>
                                  </g>
                                </g>
                              </g>
                            </g>
                          </g>
                        </g>
                      </g>
                    </g>
                  </g>
                </g>
                <g id="Group_16240" data-name="Group 16240" transform="translate(2.161 10.875)">
                  <g id="Group_16239" data-name="Group 16239">
                    <g id="Group_16238" data-name="Group 16238">
                      <g id="Group_16237" data-name="Group 16237">
                        <g id="Group_16236" data-name="Group 16236">
                          <g id="Group_16235" data-name="Group 16235">
                            <g id="Group_16234" data-name="Group 16234">
                              <g id="Group_16233" data-name="Group 16233">
                                <g id="Group_16232" data-name="Group 16232">
                                  <g id="Group_16231" data-name="Group 16231">
                                    <g id="Group_16230" data-name="Group 16230">
                                      <path id="Path_5341" data-name="Path 5341" d="M227.918,211.765c-.4-.156-1.292.631-2.528,1.238-1.218.644-2.385.907-2.486,1.319-.038.194.263.4.851.447a4.5,4.5,0,0,0,2.285-.524,4.42,4.42,0,0,0,1.754-1.536C228.1,212.208,228.1,211.848,227.918,211.765Z" transform="translate(-222.902 -211.745)" fill="#263238"/>
                                    </g>
                                  </g>
                                </g>
                              </g>
                            </g>
                          </g>
                        </g>
                      </g>
                    </g>
                  </g>
                </g>
              </g>
            </g>
            <g id="Group_16294" data-name="Group 16294" transform="translate(0.6 1.877)">
              <g id="Group_16245" data-name="Group 16245" transform="translate(0 1.818)">
                <g id="Group_16244" data-name="Group 16244">
                  <g id="Group_16243" data-name="Group 16243">
                    <path id="Path_5342" data-name="Path 5342" d="M225.938,187.08a19.523,19.523,0,0,0-7.464,11.1l.607,3.7c.862-1.79.97-3.708,2.736-5.545a12.723,12.723,0,0,1,5.709-2.987c6.661-1.7,8.905-4.114,11.847-8.465A17.7,17.7,0,0,0,225.938,187.08Z" transform="translate(-218.474 -184.408)" fill="#263238"/>
                  </g>
                </g>
              </g>
              <g id="Group_16248" data-name="Group 16248" transform="translate(14.868 1.332)">
                <g id="Group_16247" data-name="Group 16247">
                  <g id="Group_16246" data-name="Group 16246">
                    <path id="Path_5343" data-name="Path 5343" d="M264.77,196.52a18.324,18.324,0,0,0-14.781-12.927l-.542.96-5.058,5.913a3.494,3.494,0,0,0-.954,1.661,2.571,2.571,0,0,0,1.076,2.239c1.6,1.313,3.853,1.394,5.925,1.45s4.339.225,5.849,1.645c1.88,1.769,1.839,4.773,1.207,7.276a31.236,31.236,0,0,0-.621,9.105c.233,2.3,3.274-3.29,5.275-2.128.558.324-.946,9.355-.363,9.078s.517-3.525.707-4.128a71.632,71.632,0,0,0,2.6-9.942A23.944,23.944,0,0,0,264.77,196.52Z" transform="translate(-243.415 -183.593)" fill="#263238"/>
                  </g>
                </g>
              </g>
              <g id="Group_16265" data-name="Group 16265" transform="translate(32.136 30.64)">
                <g id="Group_16264" data-name="Group 16264">
                  <g id="Group_16263" data-name="Group 16263">
                    <g id="Group_16262" data-name="Group 16262">
                      <g id="Group_16261" data-name="Group 16261">
                        <g id="Group_16260" data-name="Group 16260">
                          <g id="Group_16259" data-name="Group 16259">
                            <g id="Group_16258" data-name="Group 16258">
                              <g id="Group_16257" data-name="Group 16257">
                                <g id="Group_16256" data-name="Group 16256">
                                  <g id="Group_16255" data-name="Group 16255">
                                    <g id="Group_16254" data-name="Group 16254">
                                      <g id="Group_16253" data-name="Group 16253">
                                        <g id="Group_16252" data-name="Group 16252">
                                          <g id="Group_16251" data-name="Group 16251">
                                            <g id="Group_16250" data-name="Group 16250">
                                              <g id="Group_16249" data-name="Group 16249">
                                                <path id="Path_5344" data-name="Path 5344" d="M272.39,237.552c.029-.018.1.082.278.177a1.075,1.075,0,0,0,.8.07,2.658,2.658,0,0,0,1.385-2.3,3.545,3.545,0,0,0-.2-1.555,1.238,1.238,0,0,0-.752-.876.547.547,0,0,0-.652.252c-.094.167-.063.292-.1.3s-.125-.111-.059-.363a.689.689,0,0,1,.268-.369.811.811,0,0,1,.6-.117,1.51,1.51,0,0,1,1.057,1.029,3.649,3.649,0,0,1,.258,1.74,2.789,2.789,0,0,1-1.741,2.553,1.147,1.147,0,0,1-.969-.228C272.392,237.7,272.368,237.561,272.39,237.552Z" transform="translate(-272.383 -232.757)" fill="#eb996e"/>
                                              </g>
                                            </g>
                                          </g>
                                        </g>
                                      </g>
                                    </g>
                                  </g>
                                </g>
                              </g>
                            </g>
                          </g>
                        </g>
                      </g>
                    </g>
                  </g>
                </g>
              </g>
              <g id="Group_16269" data-name="Group 16269" transform="translate(32.104 6.181)">
                <g id="Group_16268" data-name="Group 16268">
                  <g id="Group_16267" data-name="Group 16267">
                    <g id="Group_16266" data-name="Group 16266">
                      <path id="Path_5345" data-name="Path 5345" d="M272.33,191.726a20.129,20.129,0,0,1,2.192,3.105,25.758,25.758,0,0,1,1.8,3.716,26.541,26.541,0,0,1,1.372,4.868,23.729,23.729,0,0,1-.1,9.146,7.354,7.354,0,0,1-.194.816l-.2.722a10.347,10.347,0,0,1-.375,1.137l-.267.708a1.306,1.306,0,0,1-.1.242,1.447,1.447,0,0,1,.07-.256l.233-.718a11.37,11.37,0,0,0,.343-1.142l.183-.722a7.274,7.274,0,0,0,.181-.814,24.427,24.427,0,0,0,.045-9.086,27.219,27.219,0,0,0-1.349-4.839,26.9,26.9,0,0,0-1.757-3.711l-.415-.724-.406-.625-.352-.545c-.11-.166-.224-.309-.318-.443l-.441-.613A1.438,1.438,0,0,1,272.33,191.726Z" transform="translate(-272.329 -191.726)" fill="#455a64"/>
                    </g>
                  </g>
                </g>
              </g>
              <g id="Group_16273" data-name="Group 16273" transform="translate(15.23 8.052)">
                <g id="Group_16272" data-name="Group 16272">
                  <g id="Group_16271" data-name="Group 16271">
                    <g id="Group_16270" data-name="Group 16270">
                      <path id="Path_5346" data-name="Path 5346" d="M261.49,194.865a.773.773,0,0,1-.033.19,1.6,1.6,0,0,1-.246.5,3.381,3.381,0,0,1-1.686,1.089c-.814.267-1.792.507-2.891.751a26.3,26.3,0,0,1-3.619.528,17.717,17.717,0,0,1-3.659-.107,13.943,13.943,0,0,1-2.9-.72,11.084,11.084,0,0,1-1.821-.864c-.206-.119-.358-.224-.461-.3a.732.732,0,0,1-.151-.117c.01-.015.23.128.648.349a12.809,12.809,0,0,0,1.829.8,14.553,14.553,0,0,0,2.88.674,18.275,18.275,0,0,0,3.623.091,32.916,32.916,0,0,0,6.48-1.217,3.421,3.421,0,0,0,1.67-1.007A2.328,2.328,0,0,0,261.49,194.865Z" transform="translate(-244.023 -194.865)" fill="#455a64"/>
                    </g>
                  </g>
                </g>
              </g>
              <g id="Group_16277" data-name="Group 16277" transform="translate(16.698 5.927)">
                <g id="Group_16276" data-name="Group 16276">
                  <g id="Group_16275" data-name="Group 16275">
                    <g id="Group_16274" data-name="Group 16274">
                      <path id="Path_5347" data-name="Path 5347" d="M261.376,191.3s-.03.047-.1.125a4.551,4.551,0,0,1-.324.327,7.413,7.413,0,0,1-1.366,1,11,11,0,0,1-5.372,1.353,22.434,22.434,0,0,1-5.511-.773c-.691-.173-1.246-.327-1.628-.438a3.811,3.811,0,0,1-.588-.191,3.987,3.987,0,0,1,.607.121l1.64.38a24.486,24.486,0,0,0,5.479.714,11.34,11.34,0,0,0,5.309-1.28A11.131,11.131,0,0,0,261.376,191.3Z" transform="translate(-246.486 -191.301)" fill="#455a64"/>
                    </g>
                  </g>
                </g>
              </g>
              <g id="Group_16281" data-name="Group 16281" transform="translate(18.779 5.178)">
                <g id="Group_16280" data-name="Group 16280">
                  <g id="Group_16279" data-name="Group 16279">
                    <g id="Group_16278" data-name="Group 16278">
                      <path id="Path_5348" data-name="Path 5348" d="M261.526,190.114a2.15,2.15,0,0,1-.436.151c-.283.088-.7.193-1.22.3a19.872,19.872,0,0,1-8.244-.048c-.518-.115-.934-.225-1.216-.317a2.161,2.161,0,0,1-.434-.156,2.254,2.254,0,0,1,.453.086c.287.069.705.159,1.223.257a22.545,22.545,0,0,0,8.192.047c.519-.092.939-.177,1.227-.243A2.174,2.174,0,0,1,261.526,190.114Z" transform="translate(-249.977 -190.045)" fill="#455a64"/>
                    </g>
                  </g>
                </g>
              </g>
              <g id="Group_16285" data-name="Group 16285" transform="translate(14.559)">
                <g id="Group_16284" data-name="Group 16284">
                  <g id="Group_16283" data-name="Group 16283">
                    <g id="Group_16282" data-name="Group 16282">
                      <path id="Path_5349" data-name="Path 5349" d="M250.452,181.358a2.217,2.217,0,0,1-.149.439,12.57,12.57,0,0,1-.52,1.151,17.163,17.163,0,0,1-5.409,6.253,12.6,12.6,0,0,1-1.064.68,2.23,2.23,0,0,1-.413.211,2.192,2.192,0,0,1,.374-.273c.249-.162.6-.409,1.025-.725a19.071,19.071,0,0,0,5.369-6.207c.253-.466.446-.849.57-1.119A2.232,2.232,0,0,1,250.452,181.358Z" transform="translate(-242.898 -181.358)" fill="#455a64"/>
                    </g>
                  </g>
                </g>
              </g>
              <g id="Group_16289" data-name="Group 16289" transform="translate(0.242 6.775)">
                <g id="Group_16288" data-name="Group 16288">
                  <g id="Group_16287" data-name="Group 16287">
                    <g id="Group_16286" data-name="Group 16286">
                      <path id="Path_5350" data-name="Path 5350" d="M218.881,199.165a.725.725,0,0,1,.106-.159c.076-.1.184-.249.336-.432a19.821,19.821,0,0,1,1.343-1.5,15.978,15.978,0,0,1,2.285-1.93,14.1,14.1,0,0,1,1.522-.906,13.036,13.036,0,0,1,1.76-.721,16.413,16.413,0,0,1,6.581-.718,14.966,14.966,0,0,1,1.989.322c.232.051.409.107.529.139a.688.688,0,0,1,.181.063,6.887,6.887,0,0,1-.725-.131,18.1,18.1,0,0,0-1.985-.262,17.025,17.025,0,0,0-6.512.765,14.229,14.229,0,0,0-5.533,3.472c-.606.59-1.066,1.1-1.38,1.454l-.362.409A.737.737,0,0,1,218.881,199.165Z" transform="translate(-218.88 -192.722)" fill="#455a64"/>
                    </g>
                  </g>
                </g>
              </g>
              <g id="Group_16293" data-name="Group 16293" transform="translate(4.864 4.206)">
                <g id="Group_16292" data-name="Group 16292">
                  <g id="Group_16291" data-name="Group 16291">
                    <g id="Group_16290" data-name="Group 16290">
                      <path id="Path_5351" data-name="Path 5351" d="M226.633,190.811a3.129,3.129,0,0,1,.47-.312,6.411,6.411,0,0,1,.576-.326c.23-.117.486-.262.787-.387s.622-.278.984-.4c.355-.142.749-.255,1.161-.381a15.781,15.781,0,0,1,5.547-.544c.428.044.836.078,1.213.148.379.053.727.131,1.044.2s.6.157.847.227a6.4,6.4,0,0,1,.628.208,3.227,3.227,0,0,1,.522.215,3.293,3.293,0,0,1-.544-.145c-.172-.055-.384-.119-.634-.176s-.529-.143-.848-.2-.662-.135-1.038-.181c-.374-.063-.778-.091-1.2-.129a16.555,16.555,0,0,0-5.488.538c-.408.12-.8.226-1.154.361-.361.118-.687.253-.984.379s-.56.252-.793.359-.429.209-.588.3A3.32,3.32,0,0,1,226.633,190.811Z" transform="translate(-226.633 -188.413)" fill="#455a64"/>
                    </g>
                  </g>
                </g>
              </g>
            </g>
          </g>
          <g id="Group_16297" data-name="Group 16297" transform="translate(4.503 29.85)">
            <g id="Group_16296" data-name="Group 16296">
              <path id="Path_5352" data-name="Path 5352" d="M228.863,228.286c.032.019-.063.266-.365.56a2.376,2.376,0,0,1-3.038.195c-.337-.252-.463-.486-.434-.508s.215.139.552.323a2.528,2.528,0,0,0,2.78-.178C228.668,228.453,228.824,228.259,228.863,228.286Z" transform="translate(-225.021 -228.284)" fill="#eb996e"/>
            </g>
          </g>
          <g id="Group_16299" data-name="Group 16299" transform="translate(18.571 29.432)">
            <g id="Group_16298" data-name="Group 16298">
              <path id="Path_5353" data-name="Path 5353" d="M252.1,227.587c.032.02-.052.238-.306.508a2.467,2.467,0,0,1-2.686.578c-.343-.142-.509-.305-.488-.337a3.2,3.2,0,0,0,3.479-.749Z" transform="translate(-248.621 -227.583)" fill="#eb996e"/>
            </g>
          </g>
          <g id="Group_16301" data-name="Group 16301" transform="translate(10.613 18.639)">
            <g id="Group_16300" data-name="Group 16300">
              <path id="Path_5354" data-name="Path 5354" d="M236.107,209.481c.029-.026.181.076.31.333a1.419,1.419,0,0,1-.693,1.91c-.264.115-.446.1-.451.057s.144-.1.343-.248a1.482,1.482,0,0,0,.595-1.642C236.151,209.654,236.07,209.51,236.107,209.481Z" transform="translate(-235.272 -209.478)" fill="#eb996e"/>
            </g>
          </g>
          <g id="Group_16303" data-name="Group 16303" transform="translate(12.814 18.523)">
            <g id="Group_16302" data-name="Group 16302">
              <path id="Path_5355" data-name="Path 5355" d="M239.61,211.871c-.023.028-.187-.049-.357-.28a1.707,1.707,0,0,1,.13-2.069c.2-.207.37-.264.39-.233a2.227,2.227,0,0,0-.163,2.582Z" transform="translate(-238.964 -209.282)" fill="#eb996e"/>
            </g>
          </g>
        </g>
        <g id="Group_16324" data-name="Group 16324" transform="translate(8.242 124.175)">
          <g id="Group_16305" data-name="Group 16305">
            <path id="Path_5356" data-name="Path 5356" d="M181.542,396.524s-18.772-8.226-24.26-8.4c-4.691-.153-12.739,1.952-15.054,6.929s-1.6,11.738.018,14.284,18.519,10.669,26.62,13.794,33.676,10.068,33.676,10.068l35.875-2.314s10.572-9.105,12.192-10.957,12.444-12.006,13.6-13.626,4.3-11.686.827-15.621-5.755-6.417-10.731-6.07-8.395.949-14.668,5.535c-4.827,3.528-6.785,4.876-11.682,5.993s-14.511,3.969-22.31,3.332S181.542,396.524,181.542,396.524Z" transform="translate(-140.75 -384.573)" fill="#427069"/>
          </g>
          <g id="Group_16307" data-name="Group 16307" transform="translate(23.182 10.867)">
            <g id="Group_16306" data-name="Group 16306">
              <path id="Path_5357" data-name="Path 5357" d="M179.638,402.8a.756.756,0,0,1,.161.064l.458.214,1.747.851,6.393,3.193c2.693,1.362,5.9,2.985,9.431,4.839l11.467,6.078,15.51,8.241.111.059-.056.112c-2.115,4.234-3.875,7.757-5.117,10.244l-1.44,2.856-.383.749a1.982,1.982,0,0,1-.139.253,1.36,1.36,0,0,1,.1-.271l.349-.766,1.376-2.888,5.02-10.293.055.171-15.535-8.2c-4.064-2.161-7.952-4.2-11.454-6.1-3.524-1.865-6.718-3.509-9.4-4.895l-6.349-3.279-1.722-.9-.445-.241A.721.721,0,0,1,179.638,402.8Z" transform="translate(-179.638 -402.802)" fill="#455a64"/>
            </g>
          </g>
          <g id="Group_16309" data-name="Group 16309" transform="translate(34.528 12.612)">
            <g id="Group_16308" data-name="Group 16308">
              <path id="Path_5358" data-name="Path 5358" d="M257.4,405.73a.639.639,0,0,1-.128.1l-.391.262c-.344.229-.858.558-1.527.97-1.34.819-3.292,1.994-5.817,3.237a47.76,47.76,0,0,1-9.23,3.506,37.291,37.291,0,0,1-5.753,1.017,42.485,42.485,0,0,1-6.271.1,56.477,56.477,0,0,1-11.906-2.107,97.153,97.153,0,0,1-9.339-3.208c-2.613-1.034-4.7-1.933-6.143-2.556l-1.655-.73-.427-.2a.677.677,0,0,1-.142-.076.63.63,0,0,1,.154.048l.439.17,1.677.677c1.455.591,3.555,1.459,6.175,2.466s5.763,2.147,9.336,3.139a57.312,57.312,0,0,0,11.849,2.072,42.713,42.713,0,0,0,6.225-.088,37.545,37.545,0,0,0,5.711-.992,48.875,48.875,0,0,0,9.205-3.428c2.528-1.214,4.493-2.358,5.85-3.146l1.556-.921.407-.237A.622.622,0,0,1,257.4,405.73Z" transform="translate(-198.672 -405.729)" fill="#455a64"/>
            </g>
          </g>
          <g id="Group_16311" data-name="Group 16311" transform="translate(67.385 16.528)">
            <g id="Group_16310" data-name="Group 16310">
              <path id="Path_5359" data-name="Path 5359" d="M254.171,427.355a2.234,2.234,0,0,1-.128-.582c-.067-.377-.129-.928-.18-1.611a39.548,39.548,0,0,1,.039-5.345c.138-2.082.32-3.958.426-5.317a20.584,20.584,0,0,1,.207-2.2,2.275,2.275,0,0,1,.039.594c.007.383-.005.936-.032,1.619-.052,1.366-.2,3.248-.337,5.323s-.178,3.955-.127,5.314S254.22,427.348,254.171,427.355Z" transform="translate(-253.79 -412.299)" fill="#455a64"/>
            </g>
          </g>
          <g id="Group_16313" data-name="Group 16313" transform="translate(73.191 13.142)">
            <g id="Group_16312" data-name="Group 16312">
              <path id="Path_5360" data-name="Path 5360" d="M275.767,406.625c.013.046-.727.269-1.9.69a38.837,38.837,0,0,0-8.654,4.359c-1.035.691-1.655,1.152-1.684,1.115-.013-.017.128-.15.393-.377s.663-.543,1.168-.913a30.341,30.341,0,0,1,8.709-4.386c.6-.185,1.087-.319,1.428-.395A1.879,1.879,0,0,1,275.767,406.625Z" transform="translate(-263.53 -406.619)" fill="#455a64"/>
            </g>
          </g>
          <g id="Group_16315" data-name="Group 16315" transform="translate(65.496 3.724)">
            <g id="Group_16314" data-name="Group 16314">
              <path id="Path_5361" data-name="Path 5361" d="M291.984,390.822a3.3,3.3,0,0,1-.429.288l-1.258.773c-.553.325-1.214.747-1.975,1.247s-1.636,1.056-2.578,1.711c-1.9,1.276-4.108,2.889-6.547,4.689-2.424,1.82-5.069,3.85-7.837,5.992s-5.416,4.175-7.847,5.992c-2.443,1.8-4.655,3.409-6.569,4.679-.945.652-1.819,1.212-2.592,1.7s-1.434.908-1.994,1.224l-1.28.738a3.335,3.335,0,0,1-.457.24,3.224,3.224,0,0,1,.426-.292l1.25-.786c.549-.331,1.206-.76,1.963-1.266s1.627-1.07,2.564-1.731c1.894-1.291,4.09-2.915,6.522-4.726,2.419-1.828,5.06-3.865,7.829-6.008s5.42-4.167,7.856-5.977c2.451-1.79,4.671-3.387,6.594-4.643.95-.645,1.829-1.2,2.606-1.676s1.442-.9,2-1.205l1.289-.725A3.362,3.362,0,0,1,291.984,390.822Z" transform="translate(-250.622 -390.821)" fill="#455a64"/>
            </g>
          </g>
          <g id="Group_16317" data-name="Group 16317" transform="translate(77.358 16.603)">
            <g id="Group_16316" data-name="Group 16316">
              <path id="Path_5362" data-name="Path 5362" d="M314.926,412.425a.479.479,0,0,1-.032.133l-.122.382a14.856,14.856,0,0,1-.539,1.445,23.284,23.284,0,0,1-2.819,4.917,25.39,25.39,0,0,1-2.567,2.966,28.238,28.238,0,0,1-3.421,2.929,33.932,33.932,0,0,1-9.167,4.668c-3.462,1.193-6.857,1.983-9.918,2.763s-5.839,1.429-8.182,1.918-4.252.816-5.576,1.006c-.662.095-1.177.163-1.528.2l-.4.041a.5.5,0,0,1-.137,0,.473.473,0,0,1,.133-.035l.395-.07,1.518-.256c1.317-.226,3.217-.584,5.55-1.1s5.1-1.2,8.158-1.98,6.446-1.593,9.888-2.779a34.2,34.2,0,0,0,9.1-4.607,28.532,28.532,0,0,0,3.409-2.882,25.728,25.728,0,0,0,2.573-2.917,24.6,24.6,0,0,0,2.883-4.835c.285-.6.46-1.092.589-1.419l.15-.371A.454.454,0,0,1,314.926,412.425Z" transform="translate(-270.519 -412.425)" fill="#455a64"/>
            </g>
          </g>
          <g id="Group_16319" data-name="Group 16319" transform="translate(118.963 16.43)">
            <g id="Group_16318" data-name="Group 16318">
              <path id="Path_5363" data-name="Path 5363" d="M344.811,412.135a3.642,3.642,0,0,1-.3,1.168,11.957,11.957,0,0,1-3.229,4.791,3.625,3.625,0,0,1-.972.712,17.842,17.842,0,0,0,4.5-6.672Z" transform="translate(-340.313 -412.134)" fill="#455a64"/>
            </g>
          </g>
          <g id="Group_16321" data-name="Group 16321" transform="translate(59.604 32.995)">
            <g id="Group_16320" data-name="Group 16320">
              <path id="Path_5364" data-name="Path 5364" d="M240.744,454.562a2.4,2.4,0,0,1,.073-.615c.065-.392.18-.956.339-1.649a43.69,43.69,0,0,1,3.861-10.392c.332-.629.613-1.131.82-1.471a2.424,2.424,0,0,1,.345-.513c.041.023-.361.8-.973,2.08s-1.416,3.06-2.169,5.083-1.305,3.9-1.676,5.266S240.79,454.572,240.744,454.562Z" transform="translate(-240.737 -439.922)" fill="#455a64"/>
            </g>
          </g>
          <g id="Group_16323" data-name="Group 16323" transform="translate(14.834 8.588)">
            <g id="Group_16322" data-name="Group 16322">
              <path id="Path_5365" data-name="Path 5365" d="M165.635,399.566a3.245,3.245,0,0,1,1.139-.4,8.45,8.45,0,0,1,5.694.777,3.225,3.225,0,0,1,.99.689,10.775,10.775,0,0,0-7.823-1.068Z" transform="translate(-165.635 -398.98)" fill="#455a64"/>
            </g>
          </g>
        </g>
        <g id="Group_16334" data-name="Group 16334" transform="translate(31.126 163.005)">
          <g id="Group_16325" data-name="Group 16325">
            <path id="Path_5366" data-name="Path 5366" d="M185.784,449.71a6.145,6.145,0,0,0-4.079,2.178,13.835,13.835,0,0,0-1.983,3.721,4.4,4.4,0,0,0-.411,3.2,3.034,3.034,0,0,0,2.474,1.681,10.5,10.5,0,0,0,3.113-.25c10.769-1.815,21.894.836,32.693-.792Z" transform="translate(-179.14 -449.71)" fill="#455a64"/>
          </g>
          <g id="Group_16327" data-name="Group 16327" transform="translate(2.816 1.603)">
            <g id="Group_16326" data-name="Group 16326">
              <path id="Path_5367" data-name="Path 5367" d="M187.625,461.152c-.02-.018.157-.2.385-.593a3.87,3.87,0,0,0,.528-1.8,3.681,3.681,0,0,0-.929-2.55,3.169,3.169,0,0,0-1.319-.914,1.719,1.719,0,0,0-1.6.178,1.029,1.029,0,0,0-.378,1.391,1,1,0,0,0,.584.45.75.75,0,0,0,.661-.144,1.383,1.383,0,0,0,.439-1.267,5.44,5.44,0,0,0-.318-1.265,8.517,8.517,0,0,0-1.348-2.235,2.138,2.138,0,0,1,.522.491,6.011,6.011,0,0,1,1.026,1.667,5.431,5.431,0,0,1,.368,1.317,1.633,1.633,0,0,1-.516,1.514,1.033,1.033,0,0,1-.9.2,1.288,1.288,0,0,1-.764-.573,1.179,1.179,0,0,1-.143-.982,1.566,1.566,0,0,1,.6-.811,2.008,2.008,0,0,1,1.877-.213,3.4,3.4,0,0,1,1.432,1.012,3.841,3.841,0,0,1,.933,2.744,3.728,3.728,0,0,1-.642,1.853A1.731,1.731,0,0,1,187.625,461.152Z" transform="translate(-183.863 -452.4)" fill="#fff"/>
            </g>
          </g>
          <g id="Group_16329" data-name="Group 16329" transform="translate(11.685 2.109)">
            <g id="Group_16328" data-name="Group 16328">
              <path id="Path_5368" data-name="Path 5368" d="M201.008,453.249a3.01,3.01,0,0,1,.621,1.212,5.652,5.652,0,0,1-1.72,6.046,3,3,0,0,1-1.165.7c-.026-.045.431-.293,1.022-.862a5.926,5.926,0,0,0,1.658-5.828C201.219,453.726,200.961,453.273,201.008,453.249Z" transform="translate(-198.741 -453.248)" fill="#fff"/>
            </g>
          </g>
          <g id="Group_16331" data-name="Group 16331" transform="translate(18.068 3.975)">
            <g id="Group_16330" data-name="Group 16330">
              <path id="Path_5369" data-name="Path 5369" d="M211.326,456.38c.016.023-.154.132-.386.4a2.67,2.67,0,0,0-.616,1.315,2.178,2.178,0,0,0,.579,1.958.977.977,0,0,0,1.064.247,1.009,1.009,0,0,0,.547-1.021,1.177,1.177,0,0,0-.8-.9,1.376,1.376,0,0,0-1.156.157,2.011,2.011,0,0,0-.885,1.818,3.551,3.551,0,0,0,.382,1.421,3.258,3.258,0,0,1,.242.5,1.467,1.467,0,0,1-.346-.446,3.311,3.311,0,0,1-.492-1.466,2.53,2.53,0,0,1,.153-1.081,2,2,0,0,1,.8-.984,1.646,1.646,0,0,1,1.4-.2,1.463,1.463,0,0,1,1.008,1.134,1.3,1.3,0,0,1-.723,1.335,1.257,1.257,0,0,1-1.378-.312,2.373,2.373,0,0,1-.6-2.2,2.6,2.6,0,0,1,.742-1.357A1.149,1.149,0,0,1,211.326,456.38Z" transform="translate(-209.45 -456.379)" fill="#fff"/>
            </g>
          </g>
          <g id="Group_16333" data-name="Group 16333" transform="translate(26.096 6.285)">
            <g id="Group_16332" data-name="Group 16332">
              <path id="Path_5370" data-name="Path 5370" d="M222.918,464.324c-.027-.038.174-.2.429-.519a3.19,3.19,0,0,0,.666-1.39,2.987,2.987,0,0,0-.129-1.531c-.134-.381-.273-.6-.235-.628s.234.156.432.545a2.666,2.666,0,0,1,.229,1.67,2.8,2.8,0,0,1-.805,1.48C223.189,464.25,222.939,464.355,222.918,464.324Z" transform="translate(-222.916 -460.254)" fill="#fff"/>
            </g>
          </g>
        </g>
        <g id="Group_16346" data-name="Group 16346" transform="translate(70.491 160.361)">
          <g id="Group_16335" data-name="Group 16335">
            <path id="Path_5371" data-name="Path 5371" d="M291.218,449.9c-1.7-2.343-4.993-2.831-7.887-2.674a28.406,28.406,0,0,0-6.743,1.192,7.547,7.547,0,0,1-3.509.558c-1.029-.191-1.909-.854-2.914-1.146-1.827-.532-3.746.216-5.621.54-4.8.827-9.583-1.157-14.047-3.1l-5.323,10.347c5.1,2.258,9.61,3.279,14.967,4.585,4.753,1.158,9.726.758,14.615.932a53.317,53.317,0,0,0,8.381.049,11.392,11.392,0,0,0,7.4-3.53C292.346,455.525,292.864,452.167,291.218,449.9Z" transform="translate(-245.175 -445.275)" fill="#455a64"/>
          </g>
          <g id="Group_16337" data-name="Group 16337" transform="translate(5.278 0.934)">
            <g id="Group_16336" data-name="Group 16336">
              <path id="Path_5372" data-name="Path 5372" d="M254.6,458.411c-.01,0-.044-.055-.1-.174a4.273,4.273,0,0,1-.207-.534,6.042,6.042,0,0,1-.256-2.092,6.163,6.163,0,0,1,.944-2.984,3.481,3.481,0,0,1,1.368-1.3,2,2,0,0,1,2.03.089,1.074,1.074,0,0,1,.421,1.028.672.672,0,0,1-.4.451,1.12,1.12,0,0,1-.545.058,3.527,3.527,0,0,1-1.726-.77,3.482,3.482,0,0,1-1.3-2.814,3.539,3.539,0,0,1,.7-1.99,2.857,2.857,0,0,1,.389-.424c.1-.083.158-.123.165-.116s-.191.2-.457.607a3.614,3.614,0,0,0-.578,1.927,3.353,3.353,0,0,0,2.847,3.283c.287.041.569-.054.624-.289a.792.792,0,0,0-.32-.718,1.731,1.731,0,0,0-1.712-.056,3.244,3.244,0,0,0-1.261,1.182,6.126,6.126,0,0,0-.964,2.845A7.8,7.8,0,0,0,254.6,458.411Z" transform="translate(-254.03 -446.841)" fill="#fff"/>
            </g>
          </g>
          <g id="Group_16339" data-name="Group 16339" transform="translate(13.725 3.308)">
            <g id="Group_16338" data-name="Group 16338">
              <path id="Path_5373" data-name="Path 5373" d="M268.719,461.738c0-.026.19-.026.511-.11a2.773,2.773,0,0,0,1.2-.685,3.089,3.089,0,0,0,.917-1.793,4.683,4.683,0,0,0-.339-2.479,9.251,9.251,0,0,0-1.345-2.182,8.829,8.829,0,0,1-1.258-1.751,2.015,2.015,0,0,1-.117-1.462c.12-.337.287-.461.3-.451a4.912,4.912,0,0,0-.182.483,2,2,0,0,0,.2,1.338,9.7,9.7,0,0,0,1.282,1.667,8.939,8.939,0,0,1,1.407,2.243,4.81,4.81,0,0,1,.334,2.639,3.221,3.221,0,0,1-1.048,1.905,2.655,2.655,0,0,1-1.318.643A1.071,1.071,0,0,1,268.719,461.738Z" transform="translate(-268.199 -450.825)" fill="#fff"/>
            </g>
          </g>
          <g id="Group_16341" data-name="Group 16341" transform="translate(19.942 3.714)">
            <g id="Group_16340" data-name="Group 16340">
              <path id="Path_5374" data-name="Path 5374" d="M286.8,451.5a.9.9,0,0,1,.1.245,7.554,7.554,0,0,1,.2.733,9.4,9.4,0,0,1,.195,2.792,6.99,6.99,0,0,1-.392,1.909,3.364,3.364,0,0,1-1.4,1.762,3.219,3.219,0,0,1-2.466.322,2.663,2.663,0,0,1-1.175-.669,1.626,1.626,0,0,1-.5-1.32,1.207,1.207,0,0,1,.918-1.077,1.535,1.535,0,0,1,1.34.315,2.747,2.747,0,0,1,.894,2.317,4.493,4.493,0,0,1-2.262,3.408,9.119,9.119,0,0,1-2.615,1c-.321.075-.573.122-.744.151a.882.882,0,0,1-.264.027,9.026,9.026,0,0,1,.978-.293,9.926,9.926,0,0,0,2.532-1.068,4.771,4.771,0,0,0,1.365-1.271,3.905,3.905,0,0,0,.733-1.974,2.479,2.479,0,0,0-.8-2.065,1.239,1.239,0,0,0-1.081-.255.9.9,0,0,0-.691.816,1.327,1.327,0,0,0,.415,1.077,2.386,2.386,0,0,0,1.041.6,2.956,2.956,0,0,0,2.245-.278,3.129,3.129,0,0,0,1.308-1.611,6.937,6.937,0,0,0,.413-1.838,10.241,10.241,0,0,0-.1-2.75C286.878,451.861,286.773,451.512,286.8,451.5Z" transform="translate(-278.629 -451.505)" fill="#fff"/>
            </g>
          </g>
          <g id="Group_16343" data-name="Group 16343" transform="translate(30.913 2.2)">
            <g id="Group_16342" data-name="Group 16342">
              <path id="Path_5375" data-name="Path 5375" d="M299.177,462.449a.925.925,0,0,1-.218-.164,5.25,5.25,0,0,1-.544-.563,6.2,6.2,0,0,1-1.245-2.587,6.015,6.015,0,0,1,.619-4.188,6.324,6.324,0,0,1,1.647-1.938,3.972,3.972,0,0,1,2.561-.963,1.83,1.83,0,0,1,1.791,1.92,1.377,1.377,0,0,1-.861,1.058,1.92,1.92,0,0,1-1.3.064,2.173,2.173,0,0,1-1.382-1.826,3.154,3.154,0,0,1,.386-1.977,5.325,5.325,0,0,1,2.154-1.895c.3-.158.541-.265.705-.334a.916.916,0,0,1,.258-.088c.011.022-.327.185-.906.525a5.456,5.456,0,0,0-2.026,1.9,2.956,2.956,0,0,0-.323,1.835,1.919,1.919,0,0,0,1.217,1.6,1.639,1.639,0,0,0,1.1-.063,1.084,1.084,0,0,0,.682-.834,1.539,1.539,0,0,0-1.517-1.576,3.712,3.712,0,0,0-2.36.9,6.117,6.117,0,0,0-1.585,1.838,5.868,5.868,0,0,0-.654,4.009,6.413,6.413,0,0,0,1.128,2.557C298.912,462.182,299.2,462.428,299.177,462.449Z" transform="translate(-297.032 -448.965)" fill="#fff"/>
            </g>
          </g>
          <g id="Group_16345" data-name="Group 16345" transform="translate(38.834 2.626)">
            <g id="Group_16344" data-name="Group 16344">
              <path id="Path_5376" data-name="Path 5376" d="M314.225,449.68a2.04,2.04,0,0,1,.3.523,8.832,8.832,0,0,1,.547,1.546,10.105,10.105,0,0,1-2.919,9.948,8.856,8.856,0,0,1-1.3,1.006,2.046,2.046,0,0,1-.531.28c-.033-.048.712-.477,1.677-1.44a10.466,10.466,0,0,0,2.86-9.744C314.567,450.466,314.171,449.7,314.225,449.68Z" transform="translate(-310.32 -449.68)" fill="#fff"/>
            </g>
          </g>
        </g>
        <g id="Group_16352" data-name="Group 16352" transform="translate(49.509 26.065)">
          <g id="Group_16347" data-name="Group 16347" transform="translate(0.549 0)">
            <path id="Path_5377" data-name="Path 5377" d="M210.9,226.75a8.571,8.571,0,0,0,1.666-2.311c.445-2.454,1.208-3.7,2.451-4.447a16.964,16.964,0,0,1,1.8,7.463c.12,3.359.182,5.9.182,5.9s1.687,4,.888,6.037-1.884,1.332-3.384.71-2.032-3.019-2.032-3.019l-1.567-.137Z" transform="translate(-210.897 -219.992)" fill="#ffbe9d"/>
          </g>
          <g id="Group_16349" data-name="Group 16349" transform="translate(4.663)">
            <g id="Group_16348" data-name="Group 16348">
              <path id="Path_5378" data-name="Path 5378" d="M217.8,219.992c.01-.005.054.056.132.178a4.936,4.936,0,0,1,.309.552,11.26,11.26,0,0,1,.788,2.188,25.038,25.038,0,0,1,.593,3.394l.207,2.018a18.1,18.1,0,0,1,.1,2.187,17.334,17.334,0,0,0,.085,2.153,9.841,9.841,0,0,0,.478,1.936c.2.61.408,1.195.54,1.763a4.127,4.127,0,0,1,.1,1.626,4.823,4.823,0,0,1-.807,2.19c-.342.461-.7.519-.689.5a1.82,1.82,0,0,0,.591-.57,5.03,5.03,0,0,0,.687-2.144,7.5,7.5,0,0,0-.7-3.273,9.822,9.822,0,0,1-.508-1.988,16.708,16.708,0,0,1-.093-2.192,18.883,18.883,0,0,0-.088-2.158c-.065-.7-.128-1.371-.188-2.015a28.074,28.074,0,0,0-.522-3.373,13.4,13.4,0,0,0-.685-2.19A8.161,8.161,0,0,1,217.8,219.992Z" transform="translate(-217.799 -219.991)" fill="#eb996e"/>
            </g>
          </g>
          <g id="Group_16351" data-name="Group 16351" transform="translate(0 6.58)">
            <g id="Group_16350" data-name="Group 16350">
              <path id="Path_5379" data-name="Path 5379" d="M213.526,231.718a10.591,10.591,0,0,1-3.549-.654,10.544,10.544,0,0,1,3.549.654Z" transform="translate(-209.977 -231.03)" fill="#eb996e"/>
            </g>
          </g>
        </g>
        <g id="Group_16354" data-name="Group 16354" transform="translate(44.626 134.608)">
          <g id="Group_16353" data-name="Group 16353">
            <path id="Path_5380" data-name="Path 5380" d="M230.834,407.073a1.146,1.146,0,0,1-.3-.013l-.854-.1c-.74-.091-1.81-.235-3.131-.423-2.641-.377-6.284-.941-10.3-1.63s-7.635-1.376-10.25-1.9c-1.307-.263-2.364-.485-3.092-.647l-.838-.194a1.112,1.112,0,0,1-.287-.088,1.08,1.08,0,0,1,.3.027l.848.137,3.11.55,10.262,1.812,10.276,1.719,3.115.52.845.154A1.088,1.088,0,0,1,230.834,407.073Z" transform="translate(-201.786 -402.075)" fill="#455a64"/>
          </g>
        </g>
        <g id="Group_16355" data-name="Group 16355" transform="translate(89.982 25.029)">
          <path id="Path_5381" data-name="Path 5381" d="M277.872,218.253s1.667,4.169,1.654,5.809a37.151,37.151,0,0,1-1.122,5.788Z" transform="translate(-277.872 -218.253)" fill="#ffbe9d"/>
        </g>
        <g id="Group_16367" data-name="Group 16367" transform="translate(83.746 21.696)">
          <g id="Group_16356" data-name="Group 16356" transform="translate(0.809)">
            <path id="Path_5382" data-name="Path 5382" d="M277.335,228.534l-2.328-.333s-.615-6.141-.551-7.1c.128-1.933-.309-7.54-1.063-8.274-1.583-1.539-1.23,8.274-1.23,8.274,0-2.575-.15-5.842-.522-6.516-.635-1.151-1.369.126-1.369.126s-1.3,10-1.39,12.146-.265,8.109.152,9.29c.442,1.252-.065,1.649,1.338,1.555s9.149-1.035,9.149-1.035l-1.717-8.241" transform="translate(-268.767 -212.662)" fill="#ffbe9d"/>
          </g>
          <g id="Group_16358" data-name="Group 16358" transform="translate(0 2.048)">
            <g id="Group_16357" data-name="Group 16357">
              <path id="Path_5383" data-name="Path 5383" d="M269.725,216.1a6.029,6.029,0,0,1-.042.99c-.048.635-.135,1.553-.259,2.686-.244,2.266-.678,5.383-1.108,8.828-.212,1.723-.389,3.367-.509,4.865a12.9,12.9,0,0,0,.023,3.938,1.641,1.641,0,0,0,.861,1.12,3.812,3.812,0,0,0,1.058.4,6.261,6.261,0,0,0,.972.106.648.648,0,0,1-.254.049,3,3,0,0,1-.741-.036,3.7,3.7,0,0,1-1.12-.37,2.188,2.188,0,0,1-.6-.454,1.86,1.86,0,0,1-.387-.755,12.508,12.508,0,0,1-.1-4.021c.1-1.505.274-3.155.486-4.881.43-3.451.9-6.561,1.2-8.817.145-1.088.265-1.988.356-2.672A6,6,0,0,1,269.725,216.1Z" transform="translate(-267.411 -216.098)" fill="#eb996e"/>
            </g>
          </g>
          <g id="Group_16360" data-name="Group 16360" transform="translate(3.903 9.285)">
            <g id="Group_16359" data-name="Group 16359">
              <path id="Path_5384" data-name="Path 5384" d="M273.969,230.225c-.069-.058.184-.441.255-.975s-.049-.972.033-1.008.37.417.275,1.052S274.022,230.289,273.969,230.225Z" transform="translate(-273.957 -228.238)" fill="#eb996e"/>
            </g>
          </g>
          <g id="Group_16362" data-name="Group 16362" transform="translate(4.062 3.765)">
            <g id="Group_16361" data-name="Group 16361">
              <path id="Path_5385" data-name="Path 5385" d="M274.266,218.978a9.233,9.233,0,0,1,.07,4.531,90.661,90.661,0,0,1-.07-4.531Z" transform="translate(-274.225 -218.978)" fill="#eb996e"/>
            </g>
          </g>
          <g id="Group_16364" data-name="Group 16364" transform="translate(6.21 3.475)">
            <g id="Group_16363" data-name="Group 16363">
              <path id="Path_5386" data-name="Path 5386" d="M278.149,224.774a21.215,21.215,0,0,1-.267-3.134,12.947,12.947,0,0,1,.042-3.149,21.152,21.152,0,0,1,.268,3.134A12.893,12.893,0,0,1,278.149,224.774Z" transform="translate(-277.828 -218.491)" fill="#eb996e"/>
            </g>
          </g>
          <g id="Group_16366" data-name="Group 16366" transform="translate(4.842 15.744)">
            <g id="Group_16365" data-name="Group 16365">
              <path id="Path_5387" data-name="Path 5387" d="M280.772,239.307a22.22,22.22,0,0,1-5.239-.13,22.216,22.216,0,0,1,5.239.13Z" transform="translate(-275.533 -239.074)" fill="#eb996e"/>
            </g>
          </g>
        </g>
      </g>
    </g>
    <text id="_" data-name="?" transform="translate(261 130)" fill="#427069" font-size="49" font-family="Poppins-SemiBold, Poppins" font-weight="600"><tspan x="-13" y="0">?</tspan></text>
    <text id="_2" data-name="?" transform="translate(190 106)" fill="#427069" font-size="64" font-family="Poppins-SemiBold, Poppins" font-weight="600"><tspan x="-17" y="0">?</tspan></text>
    <text id="_3" data-name="?" transform="translate(125 88) rotate(180)" fill="#427069" font-size="35" font-family="Poppins-SemiBold, Poppins" font-weight="600"><tspan x="-9" y="0">?</tspan></text>
    <text id="_4" data-name="?" transform="translate(221 112) rotate(180)" fill="#427069" font-size="35" font-family="Poppins-SemiBold, Poppins" font-weight="600"><tspan x="-9" y="0">?</tspan></text>
    <text id="_5" data-name="?" transform="translate(158 126) rotate(180)" fill="#427069" font-size="38" font-family="Poppins-SemiBold, Poppins" font-weight="600"><tspan x="-10" y="0">?</tspan></text>
  </g>
</svg>
