<svg xmlns="http://www.w3.org/2000/svg" width="23" height="23" viewBox="0 0 23 23">
  <g id="Group_82924" data-name="Group 82924" transform="translate(6262 21318)">
    <g id="pin" transform="translate(-6305.08 -21316)">
      <g id="Group_82920" data-name="Group 82920" transform="translate(48.08)">
        <g id="Group_82919" data-name="Group 82919" transform="translate(0)">
          <path id="Path_5641" data-name="Path 5641" d="M54.781,0a6.709,6.709,0,0,0-6.7,6.7,7.731,7.731,0,0,0,.568,2.58,10.807,10.807,0,0,0,.775,1.449l4.595,6.962a.874.874,0,0,0,1.527,0l4.6-6.962a10.762,10.762,0,0,0,.775-1.449,7.73,7.73,0,0,0,.568-2.58A6.709,6.709,0,0,0,54.781,0Zm5.406,8.975a9.9,9.9,0,0,1-.706,1.321l-4.6,6.962c-.091.138-.119.138-.21,0l-4.6-6.962a9.906,9.906,0,0,1-.706-1.321A7.018,7.018,0,0,1,48.868,6.7a5.913,5.913,0,1,1,11.826,0A7.024,7.024,0,0,1,60.188,8.975Z" transform="translate(-48.08)" fill="#427069"/>
          <path id="Path_5642" data-name="Path 5642" d="M115.628,64.008a3.548,3.548,0,1,0,3.548,3.548A3.552,3.552,0,0,0,115.628,64.008Zm0,6.307a2.759,2.759,0,1,1,2.759-2.759A2.763,2.763,0,0,1,115.628,70.315Z" transform="translate(-108.926 -60.854)" fill="#427069"/>
        </g>
      </g>
    </g>
    <rect id="Rectangle_26960" data-name="Rectangle 26960" width="23" height="23" transform="translate(-6262 -21318)" fill="none"/>
  </g>
</svg>
