<svg xmlns="http://www.w3.org/2000/svg" width="20.493" height="25.137" viewBox="0 0 20.493 25.137">
  <g id="apple_icon" transform="translate(-2.104)">
    <g id="Group_15882" data-name="Group 15882" transform="translate(2.104)">
      <path id="Path_5184" data-name="Path 5184" d="M16.229,0h.179a5.383,5.383,0,0,1-1.355,4.057,4.2,4.2,0,0,1-3.7,1.736,5.221,5.221,0,0,1,1.38-3.931A5.96,5.96,0,0,1,16.229,0Z" transform="translate(-1.145)" fill="#302c2b"/>
      <path id="Path_5185" data-name="Path 5185" d="M22.6,17.881v.05A14.625,14.625,0,0,1,20.5,21.965c-.8,1.1-1.776,2.576-3.522,2.576-1.509,0-2.511-.97-4.058-1-1.636-.026-2.535.811-4.031,1.022h-.51a4.555,4.555,0,0,1-2.63-1.812A15.879,15.879,0,0,1,2.1,13.619V12.495A7.367,7.367,0,0,1,5.321,6.448,5.432,5.432,0,0,1,8.968,5.6a9.174,9.174,0,0,1,1.787.512,4.935,4.935,0,0,0,1.786.535,4.287,4.287,0,0,0,1.253-.383,7.709,7.709,0,0,1,4.031-.715A5.593,5.593,0,0,1,21.934,8a5.274,5.274,0,0,0-2.679,5.232A5.4,5.4,0,0,0,22.6,17.881Z" transform="translate(-2.104 0.57)" fill="#302c2b"/>
    </g>
  </g>
</svg>
