<svg xmlns="http://www.w3.org/2000/svg" width="24" height="24" viewBox="0 0 24 24">
  <g id="Group_16493" data-name="Group 16493" transform="translate(10092 20154)">
    <g id="Rectangle_26751" data-name="Rectangle 26751" transform="translate(-10092 -20154)" fill="#fff" stroke="#707070" stroke-width="1" opacity="0">
      <rect width="24" height="24" stroke="none"/>
      <rect x="0.5" y="0.5" width="23" height="23" fill="none"/>
    </g>
    <g id="notification_4_" data-name="notification (4)" transform="translate(-10089.995 -20152.904)">
      <path id="Path_5434" data-name="Path 5434" d="M138.3,450.726A3.413,3.413,0,0,0,141.642,448h-6.677A3.413,3.413,0,0,0,138.3,450.726Zm0,0" transform="translate(-129.217 -428.917)" fill="#427069"/>
      <path id="Path_5435" data-name="Path 5435" d="M15.458,51.754h-.011a6.369,6.369,0,0,1-6.361-6.361,6.3,6.3,0,0,1,.608-2.7c-.2-.019-.4-.031-.608-.031a6.361,6.361,0,0,0-6.361,6.361v2.533a6.093,6.093,0,0,1-2.17,4.664,1.59,1.59,0,0,0-.5,1.632A1.667,1.667,0,0,0,1.69,59.024H16.479a1.666,1.666,0,0,0,1.661-1.26,1.593,1.593,0,0,0-.542-1.556,6.047,6.047,0,0,1-2.139-4.454Zm0,0" transform="translate(0 -40.85)" fill="#427069"/>
      <path id="Path_5436" data-name="Path 5436" d="M265.1,4.544A4.543,4.543,0,1,1,260.555,0,4.543,4.543,0,0,1,265.1,4.544Zm0,0" transform="translate(-245.108)" fill="#f14831"/>
    </g>
  </g>
</svg>
