<svg xmlns="http://www.w3.org/2000/svg" width="12.997" height="12.998" viewBox="0 0 12.997 12.998">
  <path id="check_3_" data-name="check (3)" d="M13,7a6.473,6.473,0,0,1-1.1,3.608.508.508,0,0,1-.844-.564,5.47,5.47,0,0,0,.757-4.415.508.508,0,0,1,.983-.253A6.522,6.522,0,0,1,13,7ZM9.335,11.693a5.484,5.484,0,1,1,.277-9.208.508.508,0,0,0,.577-.835A6.5,6.5,0,0,0,1.9,11.595a6.5,6.5,0,0,0,7.958.967.508.508,0,1,0-.526-.868ZM6.548,8.472a.289.289,0,0,1-.214-.081L3.675,5.869a.508.508,0,0,0-.7.737L5.635,9.127a1.3,1.3,0,0,0,.9.36h.054a1.3,1.3,0,0,0,.922-.435l.017-.021,5.358-6.664a.508.508,0,0,0-.791-.636L6.747,8.382a.29.29,0,0,1-.2.09Zm0,0" transform="translate(0 -0.5)" fill="#fcb041"/>
</svg>
