<svg xmlns="http://www.w3.org/2000/svg" width="16.736" height="12.534" viewBox="0 0 16.736 12.534">
  <path id="Emial_icon" d="M16.736,65.806a1.542,1.542,0,0,0-1.54-1.54H1.54A1.542,1.542,0,0,0,0,65.806H0V75.26A1.54,1.54,0,0,0,1.541,76.8H15.2a1.54,1.54,0,0,0,1.541-1.541V65.807h0Zm-15.2-.559H15.2a.56.56,0,0,1,.56.56.489.489,0,0,1-.219.408L8.679,70.787a.559.559,0,0,1-.621,0L1.2,66.215h0a.49.49,0,0,1-.219-.409.56.56,0,0,1,.56-.559ZM15.2,75.82H1.541a.56.56,0,0,1-.56-.56V67.248L7.513,71.6a1.537,1.537,0,0,0,1.709,0l6.533-4.355V75.26A.56.56,0,0,1,15.2,75.82Z" transform="translate(0 -64.266)" fill="#427069"/>
</svg>
