<svg xmlns="http://www.w3.org/2000/svg" width="24" height="24" viewBox="0 0 24 24">
  <g id="Group_16401" data-name="Group 16401" transform="translate(10135 20124)">
    <g id="Rectangle_26750" data-name="Rectangle 26750" transform="translate(-10135 -20124)" fill="#fff" stroke="#707070" stroke-width="1" opacity="0">
      <rect width="24" height="24" stroke="none"/>
      <rect x="0.5" y="0.5" width="23" height="23" fill="none"/>
    </g>
    <g id="love" transform="translate(-10139.235 -20131.383)" fill="none">
      <path d="M11.965,9.673a6.276,6.276,0,0,0-4.923,2.241c-2.217,2.666-2.637,7.419.652,10.116l6.84,6.41a2.53,2.53,0,0,0,3.4,0l6.84-6.41c3.291-2.7,2.87-7.45.654-10.116A6.281,6.281,0,0,0,20.5,9.673,5.87,5.87,0,0,0,16.234,12,5.869,5.869,0,0,0,11.965,9.673Z" stroke="none"/>
      <path d="M 11.83667755126953 9.672079086303711 L 11.83669662475586 10.67207908630371 L 11.83658790588379 10.67207908630371 C 10.29598617553711 10.67207908630371 8.79130744934082 11.3755989074707 7.811557769775391 12.55398750305176 C 6.734006881713867 13.85007858276367 6.167037963867188 15.72775840759277 6.331926345825195 17.45428848266602 C 6.434276580810547 18.52603721618652 6.863807678222656 20.0557689666748 8.328817367553711 21.25698852539062 L 8.378547668457031 21.30059814453125 L 15.21910667419434 27.71085739135742 C 15.48408699035645 27.9592170715332 15.84462738037109 28.09599685668945 16.23431777954102 28.09599685668945 C 16.62399673461914 28.09599685668945 16.98454666137695 27.9592170715332 17.24958801269531 27.7107982635498 L 24.13970756530762 21.25685882568359 C 25.60544776916504 20.0555477142334 26.0352668762207 18.52568817138672 26.13773727416992 17.45384788513184 C 26.30277633666992 15.72751808166504 25.73595809936523 13.85000801086426 24.65882682800293 12.5544376373291 C 23.6777172088623 11.37576866149902 22.17220687866211 10.67207908630371 20.63156700134277 10.67207908630371 C 20.59571838378906 10.67207908630371 20.5599365234375 10.67245864868164 20.52426719665527 10.67320823669434 C 19.29179763793945 10.69932746887207 18.04079818725586 11.39889907836914 17.0016975402832 12.64303779602051 L 16.23408699035645 13.56210899353027 L 15.46658706665039 12.64294815063477 C 14.42759704589844 11.39864730834961 13.17668724060059 10.69911766052246 11.94426727294922 10.67320823669434 C 11.90848731994629 10.67245864868164 11.8725471496582 10.67207908630371 11.83677673339844 10.67207908630371 L 11.83667755126953 9.672079086303711 M 11.83682060241699 9.672075271606445 C 11.87953948974609 9.672077178955078 11.92251777648926 9.672527313232422 11.96529769897461 9.673427581787109 C 13.5326976776123 9.706378936767578 15.04462623596191 10.5773983001709 16.23417663574219 12.00200843811035 C 17.42400741577148 10.5773983001709 18.93566703796387 9.706657409667969 20.50306701660156 9.673427581787109 C 22.39259910583496 9.633640289306641 24.22879791259766 10.47469902038574 25.42740631103516 11.91468811035156 C 27.64395713806152 14.58074760437012 28.06435775756836 19.33318901062012 24.77359771728516 22.03027725219727 L 17.93338775634766 28.44046783447266 C 17.00085639953613 29.31451034545898 15.46777534484863 29.31450653076172 14.53524780273438 28.44046783447266 L 7.694766998291016 22.03027725219727 C 4.405376434326172 19.33318901062012 4.826057434082031 14.58074760437012 7.042606353759766 11.91468811035156 C 8.212736129760742 10.50730514526367 9.993019104003906 9.672006607055664 11.83682060241699 9.672075271606445 Z" stroke="none" fill="#302c2b"/>
    </g>
  </g>
</svg>
