<svg xmlns="http://www.w3.org/2000/svg" width="24" height="24" viewBox="0 0 24 24">
  <g id="Group_16492" data-name="Group 16492" transform="translate(10136 20154)">
    <g id="Rectangle_26749" data-name="Rectangle 26749" transform="translate(-10136 -20154)" fill="#fff" stroke="#707070" stroke-width="1" opacity="0">
      <rect width="24" height="24" stroke="none"/>
      <rect x="0.5" y="0.5" width="23" height="23" fill="none"/>
    </g>
    <path id="love" d="M11.965,9.673a6.276,6.276,0,0,0-4.923,2.241c-2.217,2.666-2.637,7.419.652,10.116l6.84,6.41a2.53,2.53,0,0,0,3.4,0l6.84-6.41c3.291-2.7,2.87-7.45.654-10.116A6.281,6.281,0,0,0,20.5,9.673,5.87,5.87,0,0,0,16.234,12,5.869,5.869,0,0,0,11.965,9.673Z" transform="translate(-10140.235 -20161.383)" fill="#427069"/>
  </g>
</svg>
