<svg id="google_icon" xmlns="http://www.w3.org/2000/svg" width="25.073" height="25.073" viewBox="0 0 25.073 25.073">
  <path id="Path_5178" data-name="Path 5178" d="M278.176,211.48H267.949a.818.818,0,0,0-.818.818v3.267a.818.818,0,0,0,.818.818h5.759a7.688,7.688,0,0,1-3.31,3.878l2.456,4.251a12.293,12.293,0,0,0,6.268-10.751,8.281,8.281,0,0,0-.141-1.606A.821.821,0,0,0,278.176,211.48Z" transform="translate(-254.049 -201.123)" fill="#167ee6"/>
  <path id="Path_5179" data-name="Path 5179" d="M45.262,337.666a7.629,7.629,0,0,1-6.6-3.819l-4.251,2.45a12.527,12.527,0,0,0,17.12,4.595v-.006l-2.456-4.251A7.574,7.574,0,0,1,45.262,337.666Z" transform="translate(-32.726 -317.498)" fill="#12b347"/>
  <path id="Path_5180" data-name="Path 5180" d="M262.268,395.036v-.006l-2.456-4.251A7.575,7.575,0,0,1,256,391.81v4.906A12.516,12.516,0,0,0,262.268,395.036Z" transform="translate(-243.463 -371.642)" fill="#0f993e"/>
  <path id="Path_5181" data-name="Path 5181" d="M4.906,134.381a7.574,7.574,0,0,1,1.03-3.812l-4.251-2.45a12.479,12.479,0,0,0,0,12.525l4.251-2.45A7.574,7.574,0,0,1,4.906,134.381Z" transform="translate(0 -121.845)" fill="#ffd500"/>
  <path id="Path_5182" data-name="Path 5182" d="M45.262,4.906a7.6,7.6,0,0,1,4.845,1.739A.814.814,0,0,0,51.2,6.6l2.315-2.315a.824.824,0,0,0-.047-1.2,12.509,12.509,0,0,0-19.06,3.2l4.251,2.45A7.63,7.63,0,0,1,45.262,4.906Z" transform="translate(-32.726)" fill="#ff4b26"/>
  <path id="Path_5183" data-name="Path 5183" d="M260.845,6.645a.815.815,0,0,0,1.1-.049l2.315-2.315a.824.824,0,0,0-.047-1.2A12.5,12.5,0,0,0,256,0V4.906A7.6,7.6,0,0,1,260.845,6.645Z" transform="translate(-243.463)" fill="#d93f21"/>
</svg>
