<svg xmlns="http://www.w3.org/2000/svg" width="24" height="24" viewBox="0 0 24 24">
  <g id="Group_16491" data-name="Group 16491" transform="translate(10221 20124)">
    <g id="Rectangle_26746" data-name="Rectangle 26746" transform="translate(-10221 -20124)" fill="#fff" stroke="#707070" stroke-width="1" opacity="0">
      <rect width="24" height="24" stroke="none"/>
      <rect x="0.5" y="0.5" width="23" height="23" fill="none"/>
    </g>
    <path id="homepage_4_" data-name="homepage (4)" d="M27.369,12.348,17.645,6.513a1.268,1.268,0,0,0-1.305,0L6.616,12.348A1.274,1.274,0,0,0,6,13.435V26.062a2.116,2.116,0,0,0,2.114,2.114h4.651a1.268,1.268,0,0,0,1.268-1.268v-5.5a.423.423,0,0,1,.423-.423h5.073a.423.423,0,0,1,.423.423v5.5a1.268,1.268,0,0,0,1.268,1.268H25.87a2.116,2.116,0,0,0,2.114-2.114V13.435a1.274,1.274,0,0,0-.616-1.087Zm-.23,13.715a1.268,1.268,0,0,1-1.268,1.268H21.22a.423.423,0,0,1-.423-.423v-5.5a1.268,1.268,0,0,0-1.268-1.268H14.456a1.268,1.268,0,0,0-1.268,1.268v5.5a.423.423,0,0,1-.423.423H8.114a1.268,1.268,0,0,1-1.268-1.268V13.435a.423.423,0,0,1,.2-.362l9.724-5.834a.423.423,0,0,1,.436,0l9.724,5.834a.423.423,0,0,1,.205.362Z" transform="translate(-10225.992 -20129.254)" fill="#232323"/>
  </g>
</svg>
