<svg id="Group_16666" data-name="Group 16666" xmlns="http://www.w3.org/2000/svg" width="24" height="24" viewBox="0 0 24 24">
  <g id="Rectangle_26904" data-name="Rectangle 26904" fill="#fff" stroke="#707070" stroke-width="1" opacity="0">
    <rect width="24" height="24" stroke="none"/>
    <rect x="0.5" y="0.5" width="23" height="23" fill="none"/>
  </g>
  <g id="logout_1_" data-name="logout (1)" transform="translate(2.127 2.127)">
    <path id="Path_5526" data-name="Path 5526" d="M12.341,10.7a.822.822,0,0,0-.823.823v3.291a.824.824,0,0,1-.823.823H8.227V3.295a1.658,1.658,0,0,0-1.12-1.564l-.244-.081H10.7a.824.824,0,0,1,.823.823V4.94a.823.823,0,0,0,1.645,0V2.472A2.471,2.471,0,0,0,10.7,0H1.851a.646.646,0,0,0-.088.018C1.723.019,1.686,0,1.645,0A1.647,1.647,0,0,0,0,1.649V16.458a1.658,1.658,0,0,0,1.12,1.564l4.951,1.65a1.7,1.7,0,0,0,.51.077A1.647,1.647,0,0,0,8.227,18.1v-.823H10.7a2.471,2.471,0,0,0,2.468-2.468V11.522a.822.822,0,0,0-.823-.823Zm0,0" transform="translate(0 -0.004)" fill="red"/>
    <path id="Path_5527" data-name="Path 5527" d="M286.141,110.2l-3.291-3.291a.822.822,0,0,0-1.4.582v2.468h-3.291a.823.823,0,1,0,0,1.645h3.291v2.468a.822.822,0,0,0,1.4.582l3.291-3.291a.822.822,0,0,0,0-1.163Zm0,0" transform="translate(-266.637 -102.552)" fill="red"/>
  </g>
</svg>
