<svg xmlns="http://www.w3.org/2000/svg" width="93.289" height="93.289" viewBox="0 0 93.289 93.289">
  <g id="Group_16726" data-name="Group 16726" transform="translate(-149.855 -550.855)">
    <circle id="Ellipse_555" data-name="Ellipse 555" cx="46.645" cy="46.645" r="46.645" transform="translate(149.855 550.855)" fill="#ff4229" opacity="0.3"/>
    <g id="logout_1_" data-name="logout (1)" transform="translate(173.933 573.934)">
      <path id="Path_5526" data-name="Path 5526" d="M29.459,25.535A1.963,1.963,0,0,0,27.5,27.5v7.856a1.966,1.966,0,0,1-1.964,1.964H19.639V7.859a3.958,3.958,0,0,0-2.675-3.733l-.581-.195h9.148A1.966,1.966,0,0,1,27.5,5.9v5.892a1.964,1.964,0,0,0,3.928,0V5.9A5.9,5.9,0,0,0,25.531,0H4.419a1.543,1.543,0,0,0-.21.043C4.114.039,4.024,0,3.928,0A3.932,3.932,0,0,0,0,3.931V39.282a3.958,3.958,0,0,0,2.675,3.733l11.819,3.94a4.066,4.066,0,0,0,1.218.183,3.932,3.932,0,0,0,3.928-3.928V41.246h5.892a5.9,5.9,0,0,0,5.892-5.892V27.5a1.963,1.963,0,0,0-1.964-1.964Zm0,0" transform="translate(0 -0.004)" fill="red"/>
      <path id="Path_5527" data-name="Path 5527" d="M298.36,115.1l-7.856-7.856a1.963,1.963,0,0,0-3.352,1.388v5.892H279.3a1.964,1.964,0,1,0,0,3.928h7.855v5.892a1.963,1.963,0,0,0,3.352,1.389l7.856-7.856a1.962,1.962,0,0,0,0-2.777Zm0,0" transform="translate(-251.801 -96.846)" fill="red"/>
    </g>
  </g>
</svg>
