<svg id="Lock_icon" xmlns="http://www.w3.org/2000/svg" width="16.736" height="12.534" viewBox="0 0 13.353 18.217">
  <path id="Path_5175" data-name="Path 5175" d="M15.8,24.646H6.091A1.821,1.821,0,0,1,4.27,22.824V16.751A1.821,1.821,0,0,1,6.091,14.93H15.8a1.821,1.821,0,0,1,1.821,1.821v6.073A1.821,1.821,0,0,1,15.8,24.646Zm-9.71-8.5a.609.609,0,0,0-.609.6v6.073a.609.609,0,0,0,.609.609H15.8a.609.609,0,0,0,.609-.609V16.751a.609.609,0,0,0-.609-.609Z" transform="translate(-4.27 -6.429)" fill="#427069"/>
  <path id="Path_5176" data-name="Path 5176" d="M15.539,23.808a.609.609,0,0,1-.609-.609V21.964a.609.609,0,0,1,1.212,0V23.2a.609.609,0,0,1-.6.609Z" transform="translate(-8.863 -9.222)" fill="#427069"/>
  <path id="Path_5177" data-name="Path 5177" d="M16.427,7.283a.609.609,0,0,1-.609-.609V4.244a3.034,3.034,0,0,0-6.067,0v2.43a.609.609,0,1,1-1.212,0V4.244a4.249,4.249,0,1,1,8.5,0v2.43a.609.609,0,0,1-.609.609Z" transform="translate(-6.107 0.005)" fill="#427069"/>
</svg>
