<svg xmlns="http://www.w3.org/2000/svg" width="26" height="26" viewBox="0 0 26 26">
  <g id="Group_16472" data-name="Group 16472" transform="translate(8381 21054)">
    <circle id="Ellipse_554" data-name="Ellipse 554" cx="13" cy="13" r="13" transform="translate(-8381 -21054)" fill="#427069" opacity="0.3"/>
    <g id="pencil_3_" data-name="pencil (3)" transform="translate(-8374.15 -21047.391)">
      <path id="Path_5459" data-name="Path 5459" d="M7.6,82.473.828,89.242a.27.27,0,0,0-.07.124l-.75,3.011a.266.266,0,0,0,.258.331A.265.265,0,0,0,.33,92.7l3.011-.75a.266.266,0,0,0,.124-.07l6.769-6.769Zm0,0" transform="translate(0 -80.172)" fill="#427069"/>
      <path id="Path_5460" data-name="Path 5460" d="M337.889,1.377l-.753-.753a1.364,1.364,0,0,0-1.884,0l-.923.923,2.638,2.638.923-.923a1.333,1.333,0,0,0,0-1.884Zm0,0" transform="translate(-325.978 0)" fill="#427069"/>
    </g>
  </g>
</svg>
