<svg id="Group_16668" data-name="Group 16668" xmlns="http://www.w3.org/2000/svg" width="24" height="24" viewBox="0 0 24 24">
  <g id="Rectangle_26907" data-name="Rectangle 26907" fill="#fff" stroke="#707070" stroke-width="1" opacity="0">
    <rect width="24" height="24" stroke="none"/>
    <rect x="0.5" y="0.5" width="23" height="23" fill="none"/>
  </g>
  <g id="file_4_" data-name="file (4)" transform="translate(1 1)">
    <path id="Path_5528" data-name="Path 5528" d="M18.19,25H5.619A2.622,2.622,0,0,1,3,22.381V5.619A2.622,2.622,0,0,1,5.619,3h8.1a2.631,2.631,0,0,1,1.874.786l4.472,4.578A2.613,2.613,0,0,1,20.81,10.2v3.9a.524.524,0,1,1-1.048,0V10.2a1.571,1.571,0,0,0-.448-1.1L14.841,4.519a1.575,1.575,0,0,0-1.124-.471h-8.1A1.571,1.571,0,0,0,4.048,5.619V22.381a1.571,1.571,0,0,0,1.571,1.571H18.19a1.5,1.5,0,0,0,.576-.113.524.524,0,0,1,.4.969A2.55,2.55,0,0,1,18.19,25Z" transform="translate(-3 -3)" fill="#427069" stroke="#427069" stroke-width="0.25"/>
    <path id="Path_5529" data-name="Path 5529" d="M30.071,9.957H26.619A2.622,2.622,0,0,1,24,7.338v-3.5a.524.524,0,0,1,1.048,0v3.5A1.571,1.571,0,0,0,26.619,8.91h3.452a.524.524,0,0,1,0,1.048Z" transform="translate(-13 -3.148)" fill="#427069" stroke="#427069" stroke-width="0.25"/>
    <path id="Path_5530" data-name="Path 5530" d="M28.762,34.04a1.043,1.043,0,0,1-.58-.175L26.5,32.743A7.84,7.84,0,0,1,23,26.207v-.9a1.052,1.052,0,0,1,.807-1.019,15.674,15.674,0,0,0,4.387-1.979,1.048,1.048,0,0,1,1.135,0,15.667,15.667,0,0,0,4.387,1.979,1.052,1.052,0,0,1,.807,1.019v.9a7.84,7.84,0,0,1-3.5,6.538l-1.682,1.121a1.044,1.044,0,0,1-.581.174Zm0-10.848a16.709,16.709,0,0,1-4.7,2.117l-.013.9a6.8,6.8,0,0,0,3.032,5.666l1.682,1.119,1.682-1.121a6.8,6.8,0,0,0,3.032-5.664v-.9a16.762,16.762,0,0,1-4.714-2.118h0Z" transform="translate(-12.524 -12.117)" fill="#427069" stroke="#427069" stroke-width="0.25"/>
    <path id="Path_5531" data-name="Path 5531" d="M31.571,33.143a.524.524,0,0,1-.37-.153l-1.048-1.048a.524.524,0,1,1,.741-.741l.677.677L33.3,30.153a.524.524,0,1,1,.741.741l-2.1,2.1A.524.524,0,0,1,31.571,33.143Z" transform="translate(-15.857 -15.857)" fill="#427069" stroke="#427069" stroke-width="0.25"/>
    <path id="Path_5532" data-name="Path 5532" d="M13.714,12.048H9.524a.524.524,0,1,1,0-1.048h4.19a.524.524,0,1,1,0,1.048Z" transform="translate(-5.857 -6.81)" fill="#427069" stroke="#427069" stroke-width="0.25"/>
    <path id="Path_5533" data-name="Path 5533" d="M16.857,18.048H9.524a.524.524,0,1,1,0-1.048h7.333a.524.524,0,0,1,0,1.048Z" transform="translate(-5.857 -9.667)" fill="#427069" stroke="#427069" stroke-width="0.25"/>
    <path id="Path_5534" data-name="Path 5534" d="M17.9,24.048H9.524a.524.524,0,1,1,0-1.048H17.9a.524.524,0,1,1,0,1.048Z" transform="translate(-5.857 -12.524)" fill="#427069" stroke="#427069" stroke-width="0.25"/>
    <path id="Path_5535" data-name="Path 5535" d="M14.762,30.048H9.524a.524.524,0,1,1,0-1.048h5.238a.524.524,0,0,1,0,1.048Z" transform="translate(-5.857 -15.381)" fill="#427069" stroke="#427069" stroke-width="0.25"/>
    <path id="Path_5536" data-name="Path 5536" d="M14.762,36.048H9.524a.524.524,0,0,1,0-1.048h5.238a.524.524,0,0,1,0,1.048Z" transform="translate(-5.857 -18.238)" fill="#427069" stroke="#427069" stroke-width="0.25"/>
  </g>
</svg>
