<svg xmlns="http://www.w3.org/2000/svg" width="23" height="23" viewBox="0 0 23 23">
  <g id="Group_82923" data-name="Group 82923" transform="translate(-53 -263)">
    <rect id="Rectangle_26960" data-name="Rectangle 26960" width="23" height="23" transform="translate(53 263)" fill="none"/>
    <g id="telephone" transform="translate(55.446 265.411)">
      <path id="Path_5643" data-name="Path 5643" d="M4.581,12.082a19.282,19.282,0,0,0,6.414,5.024,9.982,9.982,0,0,0,3.589,1.062c.087,0,.169.008.256.008a2.972,2.972,0,0,0,2.3-.99.082.082,0,0,0,.015-.019,9.7,9.7,0,0,1,.727-.753c.177-.169.358-.346.531-.527a1.818,1.818,0,0,0-.008-2.708l-2.263-2.263a1.832,1.832,0,0,0-1.326-.61,1.894,1.894,0,0,0-1.341.606l-1.348,1.348c-.124-.072-.252-.136-.373-.2a4.656,4.656,0,0,1-.414-.226,14.269,14.269,0,0,1-3.408-3.1A8.217,8.217,0,0,1,6.784,6.9c.354-.32.685-.655,1.006-.983.113-.117.23-.234.346-.35a1.931,1.931,0,0,0,.625-1.356,1.915,1.915,0,0,0-.625-1.356L7.014,1.729c-.132-.132-.256-.26-.384-.392-.249-.256-.508-.52-.765-.757A1.878,1.878,0,0,0,4.539,0,1.933,1.933,0,0,0,3.2.584L1.79,1.992A2.894,2.894,0,0,0,.928,3.845a6.97,6.97,0,0,0,.523,3.013A17.528,17.528,0,0,0,4.581,12.082ZM1.847,3.924a1.992,1.992,0,0,1,.6-1.28l1.4-1.4a1.014,1.014,0,0,1,.693-.32.962.962,0,0,1,.678.328c.252.234.49.478.746.738.128.132.26.264.392.4L7.477,3.51a1.023,1.023,0,0,1,.354.7,1.023,1.023,0,0,1-.354.7c-.117.117-.234.237-.35.354-.35.354-.678.689-1.039,1.009L6.068,6.3a.736.736,0,0,0-.188.836c0,.011.008.019.011.03a8.864,8.864,0,0,0,1.322,2.15,15.06,15.06,0,0,0,3.631,3.307,5.391,5.391,0,0,0,.5.271,4.657,4.657,0,0,1,.414.226l.041.023a.787.787,0,0,0,.365.094.8.8,0,0,0,.561-.256l1.409-1.409a1,1,0,0,1,.689-.335.946.946,0,0,1,.667.335l2.271,2.267a.908.908,0,0,1-.011,1.42c-.158.169-.324.331-.5.5a10.845,10.845,0,0,0-.787.817,2.068,2.068,0,0,1-1.616.685c-.064,0-.132,0-.2-.008a9.069,9.069,0,0,1-3.246-.972A18.318,18.318,0,0,1,5.3,11.5,16.777,16.777,0,0,1,2.321,6.549,6.074,6.074,0,0,1,1.847,3.924Z" transform="translate(-0.912 0)" fill="#427069"/>
    </g>
  </g>
</svg>
