<svg xmlns="http://www.w3.org/2000/svg" width="31.745" height="32.315" viewBox="0 0 31.745 32.315">
  <g id="user_11_" data-name="user (11)" transform="translate(-23.922 -27)">
    <path id="Path_5397" data-name="Path 5397" d="M59.217,36.109a9.109,9.109,0,1,0-9.109,9.109A9.11,9.11,0,0,0,59.217,36.109Zm-15.841,0a6.732,6.732,0,1,1,6.732,6.732A6.727,6.727,0,0,1,43.376,36.109Z" transform="translate(-10.315)" fill="#427069"/>
    <path id="Path_5398" data-name="Path 5398" d="M24.547,91.772a1.118,1.118,0,0,0,.594.158,1.148,1.148,0,0,0,1.03-.594,15.672,15.672,0,0,1,27.286,0,1.189,1.189,0,1,0,2.059-1.188,18.084,18.084,0,0,0-31.444,0,1.19,1.19,0,0,0,.475,1.624Z" transform="translate(0 -32.615)" fill="#427069"/>
  </g>
</svg>
