<svg xmlns="http://www.w3.org/2000/svg" width="19.755" height="19.755" viewBox="0 0 19.755 19.755">
  <g id="Icon" transform="translate(-3.326 -3.325)">
    <g id="Group_16390" data-name="Group 16390" transform="translate(3.326 3.325)">
      <path id="Path_5423" data-name="Path 5423" d="M15.389,10.225a4.42,4.42,0,0,0-6.24.2c-1.6,1.6-2.831,2.83-4.428,4.428a4.42,4.42,0,0,0-.2,6.24,4.42,4.42,0,0,0,6.24-.2l2.215-2.214a.854.854,0,0,0-1.208-1.208L9.551,19.687a2.713,2.713,0,0,1-3.824.2,2.713,2.713,0,0,1,.2-3.824l4.428-4.428a2.713,2.713,0,0,1,3.825-.2.854.854,0,0,0,1.208-1.208Z" transform="translate(-3.326 -2.534)" fill="#a6a6a6" fill-rule="evenodd"/>
      <path id="Path_5424" data-name="Path 5424" d="M10.061,15.445a4.268,4.268,0,0,0,6.038,0l4.831-4.83a4.271,4.271,0,0,0-6.04-6.04L12.477,6.992A.854.854,0,1,0,13.684,8.2L16.1,5.783a2.562,2.562,0,0,1,3.623,3.623l-4.831,4.831a2.562,2.562,0,0,1-3.623,0,.853.853,0,1,0-1.207,1.207Z" transform="translate(-2.427 -3.325)" fill="#a6a6a6" fill-rule="evenodd"/>
    </g>
  </g>
</svg>
