<svg xmlns="http://www.w3.org/2000/svg" width="24" height="24" viewBox="0 0 24 24">
  <g id="Group_16677" data-name="Group 16677" transform="translate(-32 -290)">
    <g id="Rectangle_26896" data-name="Rectangle 26896" transform="translate(32 290)" fill="#fff" stroke="#707070" stroke-width="1" opacity="0">
      <rect width="24" height="24" stroke="none"/>
      <rect x="0.5" y="0.5" width="23" height="23" fill="none"/>
    </g>
    <g id="clipboard_3_" data-name="clipboard (3)" transform="translate(-11.614 291.083)">
      <g id="Group_16676" data-name="Group 16676" transform="translate(47.037 0)">
        <g id="Group_16675" data-name="Group 16675" transform="translate(0 0)">
          <path id="Path_5539" data-name="Path 5539" d="M62.007,2.861H60.032V1.977c0-.286-.312-.416-.6-.416H57.9A2.325,2.325,0,0,0,55.588,0a2.365,2.365,0,0,0-2.313,1.559H51.767c-.286,0-.572.13-.572.416v.884H49.22a2.209,2.209,0,0,0-2.183,2.105V19.858a2.091,2.091,0,0,0,2.183,1.975H62.007a2.091,2.091,0,0,0,2.183-1.975V4.966A2.209,2.209,0,0,0,62.007,2.861ZM52.235,2.6h1.429a.572.572,0,0,0,.494-.468A1.507,1.507,0,0,1,55.588.963a1.481,1.481,0,0,1,1.4,1.17.572.572,0,0,0,.52.468h1.481V4.68H52.235ZM63.15,19.858a1.054,1.054,0,0,1-1.144.936H49.22a1.054,1.054,0,0,1-1.144-.936V4.966A1.169,1.169,0,0,1,49.22,3.9H51.2V5.226a.546.546,0,0,0,.572.494h7.667a.572.572,0,0,0,.6-.494V3.9h1.975A1.17,1.17,0,0,1,63.15,4.966V19.858Z" transform="translate(-47.037 0)" fill="#427069"/>
          <path id="Path_5540" data-name="Path 5540" d="M103.352,230.473a.52.52,0,0,0-.728-.026l-1.663,1.585-.7-.728a.52.52,0,0,0-.728-.026.546.546,0,0,0,0,.754l1.066,1.092a.468.468,0,0,0,.364.156.52.52,0,0,0,.364-.156l2.027-1.923a.494.494,0,0,0,.03-.7Z" transform="translate(-96.777 -218.855)" fill="#427069"/>
          <path id="Path_5541" data-name="Path 5541" d="M205.045,256.034h-5.978a.52.52,0,1,0,0,1.04h5.978a.52.52,0,1,0,0-1.04Z" transform="translate(-191.011 -243.298)" fill="#427069"/>
          <path id="Path_5542" data-name="Path 5542" d="M103.352,146.882a.52.52,0,0,0-.728-.026l-1.663,1.585-.7-.728a.52.52,0,0,0-.728-.026.546.546,0,0,0,0,.754l1.066,1.092a.468.468,0,0,0,.364.156.52.52,0,0,0,.364-.156l2.027-1.923a.494.494,0,0,0,.03-.7Z" transform="translate(-96.777 -139.421)" fill="#427069"/>
          <path id="Path_5543" data-name="Path 5543" d="M205.045,172.442h-5.978a.52.52,0,0,0,0,1.04h5.978a.52.52,0,0,0,0-1.04Z" transform="translate(-191.011 -163.864)" fill="#427069"/>
          <path id="Path_5544" data-name="Path 5544" d="M103.352,314.065a.52.52,0,0,0-.728-.026l-1.663,1.585-.7-.728a.52.52,0,0,0-.728-.026.546.546,0,0,0,0,.754l1.066,1.092a.468.468,0,0,0,.364.156.52.52,0,0,0,.364-.156l2.027-1.923a.494.494,0,0,0,.03-.7Z" transform="translate(-96.777 -298.288)" fill="#427069"/>
          <path id="Path_5545" data-name="Path 5545" d="M205.045,339.626h-5.978a.52.52,0,0,0,0,1.04h5.978a.52.52,0,0,0,0-1.04Z" transform="translate(-191.011 -322.731)" fill="#427069"/>
        </g>
      </g>
    </g>
  </g>
</svg>
