<svg id="search_4_" data-name="search (4)" xmlns="http://www.w3.org/2000/svg" width="22.238" height="22.238" viewBox="0 0 22.238 22.238">
  <g id="Group_16518" data-name="Group 16518" transform="translate(3.343 4.82)">
    <g id="Group_16517" data-name="Group 16517">
      <path id="Path_5484" data-name="Path 5484" d="M79.774,111.216a.821.821,0,0,0-1.162,0,5.615,5.615,0,0,0-1.606,4.551.822.822,0,0,0,.817.74c.027,0,.055,0,.082,0a.822.822,0,0,0,.736-.9,3.978,3.978,0,0,1,1.133-3.226A.821.821,0,0,0,79.774,111.216Z" transform="translate(-76.978 -110.975)" fill="#8b8b8b"/>
    </g>
  </g>
  <g id="Group_16520" data-name="Group 16520">
    <g id="Group_16519" data-name="Group 16519">
      <path id="Path_5485" data-name="Path 5485" d="M9.394,0a9.394,9.394,0,1,0,9.394,9.394A9.4,9.4,0,0,0,9.394,0Zm0,17.144a7.751,7.751,0,1,1,7.751-7.751A7.759,7.759,0,0,1,9.394,17.144Z" fill="#8b8b8b"/>
    </g>
  </g>
  <g id="Group_16522" data-name="Group 16522" transform="translate(14.625 14.625)">
    <g id="Group_16521" data-name="Group 16521">
      <path id="Path_5486" data-name="Path 5486" d="M344.081,342.921l-5.97-5.97a.821.821,0,0,0-1.162,1.162l5.97,5.97a.821.821,0,0,0,1.162-1.162Z" transform="translate(-336.709 -336.709)" fill="#8b8b8b"/>
    </g>
  </g>
</svg>
