<svg xmlns="http://www.w3.org/2000/svg" width="24" height="24" viewBox="0 0 24 24">
  <g id="Group_16494" data-name="Group 16494" transform="translate(10049 20154)">
    <g id="Rectangle_26753" data-name="Rectangle 26753" transform="translate(-10049 -20154)" fill="#fff" stroke="#707070" stroke-width="1" opacity="0">
      <rect width="24" height="24" stroke="none"/>
      <rect x="0.5" y="0.5" width="23" height="23" fill="none"/>
    </g>
    <path id="XMLID_273_" d="M22.118,14.5l-.41-.237a1.559,1.559,0,0,1,0-2.7l.41-.237a2.338,2.338,0,0,0,.856-3.2l-.78-1.351A2.342,2.342,0,0,0,19,5.927l-.41.236A1.56,1.56,0,0,1,16.25,4.813V4.339A2.342,2.342,0,0,0,13.91,2h-1.56a2.342,2.342,0,0,0-2.339,2.339v.474A1.56,1.56,0,0,1,7.672,6.164l-.41-.237a2.343,2.343,0,0,0-3.2.856l-.78,1.351a2.338,2.338,0,0,0,.856,3.2l.411.237a1.559,1.559,0,0,1,0,2.7l-.41.237a2.338,2.338,0,0,0-.856,3.2l.78,1.351a2.342,2.342,0,0,0,3.2.856l.41-.236a1.56,1.56,0,0,1,2.339,1.351v.473a2.342,2.342,0,0,0,2.339,2.339h1.56a2.342,2.342,0,0,0,2.339-2.339V21.02a1.56,1.56,0,0,1,2.339-1.351l.41.237a2.343,2.343,0,0,0,3.2-.856l.78-1.351A2.338,2.338,0,0,0,22.118,14.5Zm-8.987,2.311a3.9,3.9,0,1,1,3.9-3.9,3.9,3.9,0,0,1-3.9,3.9Z" transform="translate(-10050.13 -20154.916)" fill="#427069"/>
  </g>
</svg>
