<svg xmlns="http://www.w3.org/2000/svg" width="24" height="24" viewBox="0 0 24 24">
  <g id="Group_16405" data-name="Group 16405" transform="translate(10049 20124)">
    <g id="Rectangle_26754" data-name="Rectangle 26754" transform="translate(-10049 -20124)" fill="#fff" stroke="#707070" stroke-width="1" opacity="0">
      <rect width="24" height="24" stroke="none"/>
      <rect x="0.5" y="0.5" width="23" height="23" fill="none"/>
    </g>
    <g id="gear_4_" data-name="gear (4)" transform="translate(-10050.104 -20124.889)">
      <path id="XMLID_111_" d="M14.889,11a3.889,3.889,0,1,0,3.889,3.889A3.893,3.893,0,0,0,14.889,11Zm0,6.222a2.333,2.333,0,1,1,2.333-2.333A2.336,2.336,0,0,1,14.889,17.222Z" transform="translate(-1.785 -2.001)" fill="#302c2b"/>
      <path id="XMLID_114_" d="M22.068,14.471l-.409-.236a1.555,1.555,0,0,1,0-2.694l.409-.236a2.332,2.332,0,0,0,.854-3.187L22.144,6.77a2.336,2.336,0,0,0-3.187-.854l-.409.236a1.555,1.555,0,0,1-2.333-1.347V4.333A2.336,2.336,0,0,0,13.882,2H12.326A2.336,2.336,0,0,0,9.993,4.333v.473A1.555,1.555,0,0,1,7.66,6.153l-.409-.236a2.337,2.337,0,0,0-3.188.854L3.285,8.117A2.332,2.332,0,0,0,4.139,11.3l.41.236a1.555,1.555,0,0,1,0,2.694l-.409.236a2.332,2.332,0,0,0-.854,3.187l.778,1.347a2.336,2.336,0,0,0,3.187.854l.409-.236a1.555,1.555,0,0,1,2.333,1.347v.472a2.336,2.336,0,0,0,2.333,2.333h1.555a2.336,2.336,0,0,0,2.333-2.333V20.97a1.555,1.555,0,0,1,2.333-1.347l.409.236a2.337,2.337,0,0,0,3.187-.854l.778-1.347A2.332,2.332,0,0,0,22.068,14.471Zm-.493,2.409L20.8,18.228a.777.777,0,0,1-1.062.285l-.409-.236a3.111,3.111,0,0,0-4.666,2.694v.473a.779.779,0,0,1-.778.778H12.326a.779.779,0,0,1-.778-.778V20.97a3.111,3.111,0,0,0-4.666-2.694l-.409.236a.777.777,0,0,1-1.062-.285l-.778-1.347a.777.777,0,0,1,.285-1.062l.409-.236a3.111,3.111,0,0,0,0-5.388l-.409-.236A.778.778,0,0,1,4.633,8.9l.778-1.347a.779.779,0,0,1,1.062-.285l.409.236a3.111,3.111,0,0,0,4.666-2.694V4.333a.779.779,0,0,1,.778-.778h1.555a.779.779,0,0,1,.778.778v.473A3.111,3.111,0,0,0,19.326,7.5l.409-.236a.777.777,0,0,1,1.062.285L21.575,8.9a.777.777,0,0,1-.285,1.062l-.409.236a3.111,3.111,0,0,0,0,5.388l.409.236a.777.777,0,0,1,.285,1.062Z" transform="translate(0 0)" fill="#302c2b"/>
    </g>
  </g>
</svg>
