<svg xmlns="http://www.w3.org/2000/svg" width="14.693" height="17.61" viewBox="0 0 14.693 17.61">
  <g id="User_icon" transform="translate(0 0)">
    <path id="Path_5186" data-name="Path 5186" d="M91.273,8.483a4.1,4.1,0,0,0,3-1.243,4.1,4.1,0,0,0,1.243-3,4.1,4.1,0,0,0-1.243-3,4.241,4.241,0,0,0-6,0,4.1,4.1,0,0,0-1.243,3,4.1,4.1,0,0,0,1.243,3A4.106,4.106,0,0,0,91.273,8.483ZM89,1.972a3.208,3.208,0,0,1,4.538,0,3.067,3.067,0,0,1,.94,2.269,3.066,3.066,0,0,1-.94,2.269,3.208,3.208,0,0,1-4.538,0,3.066,3.066,0,0,1-.941-2.269A3.066,3.066,0,0,1,89,1.972Zm0,0" transform="translate(-84.038)" fill="#427069"/>
    <path id="Path_5187" data-name="Path 5187" d="M14.657,252.351a10.478,10.478,0,0,0-.143-1.113,8.767,8.767,0,0,0-.274-1.119,5.526,5.526,0,0,0-.46-1.043,3.933,3.933,0,0,0-.693-.9,3.058,3.058,0,0,0-1-.626,3.443,3.443,0,0,0-1.272-.23,1.291,1.291,0,0,0-.689.292c-.207.135-.448.291-.718.463a4.115,4.115,0,0,1-.929.409,3.608,3.608,0,0,1-2.273,0,4.1,4.1,0,0,1-.929-.409c-.267-.171-.509-.327-.719-.463a1.29,1.29,0,0,0-.689-.292,3.439,3.439,0,0,0-1.272.23,3.055,3.055,0,0,0-1,.626,3.934,3.934,0,0,0-.693.9,5.538,5.538,0,0,0-.46,1.044,8.788,8.788,0,0,0-.274,1.119,10.406,10.406,0,0,0-.143,1.113c-.023.336-.035.686-.035,1.04A2.924,2.924,0,0,0,.868,255.6a3.126,3.126,0,0,0,2.238.816h8.48a3.127,3.127,0,0,0,2.238-.816,2.923,2.923,0,0,0,.869-2.212c0-.355-.012-.7-.036-1.04Zm-1.545,2.5a2.1,2.1,0,0,1-1.526.532H3.106a2.1,2.1,0,0,1-1.526-.532,1.91,1.91,0,0,1-.548-1.465c0-.33.011-.656.033-.969a9.385,9.385,0,0,1,.129-1,7.751,7.751,0,0,1,.241-.986,4.508,4.508,0,0,1,.374-.848,2.916,2.916,0,0,1,.51-.668,2.028,2.028,0,0,1,.663-.412,2.375,2.375,0,0,1,.813-.157c.036.019.1.056.2.124.212.138.457.3.727.469a5.115,5.115,0,0,0,1.166.521,4.64,4.64,0,0,0,2.908,0,5.12,5.12,0,0,0,1.167-.522c.277-.177.514-.33.726-.468.1-.068.169-.1.2-.124a2.377,2.377,0,0,1,.813.157,2.031,2.031,0,0,1,.663.412,2.908,2.908,0,0,1,.51.668,4.493,4.493,0,0,1,.374.848,7.732,7.732,0,0,1,.241.986,9.464,9.464,0,0,1,.129,1h0c.022.312.033.637.033.968a1.909,1.909,0,0,1-.548,1.465Zm0,0" transform="translate(0 -238.81)" fill="#427069"/>
  </g>
</svg>
